<?xml version="1.0" standalone="no"?>
<!DOCTYPE svg PUBLIC "-//W3C//DTD SVG 20010904//EN"
 "http://www.w3.org/TR/2001/REC-SVG-20010904/DTD/svg10.dtd">
<svg version="1.0" xmlns="http://www.w3.org/2000/svg"
 width="551.000000pt" height="551.000000pt" viewBox="0 0 551.000000 551.000000"
 preserveAspectRatio="xMidYMid meet">
<metadata>
Created by potrace 1.14, written by Peter Selinger 2001-2017
</metadata>
<g transform="translate(0.000000,551.000000) scale(0.100000,-0.100000)"
fill="#000000" stroke="none">
<path d="M2768 5506 c-1 -2 -70 -6 -153 -10 -82 -3 -166 -8 -185 -11 -113 -16
-285 -48 -350 -66 -41 -11 -84 -22 -94 -24 -186 -43 -538 -206 -751 -348 -82
-55 -194 -136 -221 -162 -6 -5 -36 -30 -65 -55 -88 -73 -255 -247 -340 -352
-207 -258 -362 -540 -467 -853 -46 -136 -96 -342 -108 -445 -3 -24 -7 -47 -9
-50 -18 -29 -27 -503 -12 -650 9 -92 34 -253 47 -300 5 -19 11 -47 14 -61 13
-79 109 -374 127 -394 5 -5 9 -15 9 -22 0 -15 104 -229 151 -313 71 -125 207
-320 294 -420 87 -101 318 -322 400 -383 5 -4 24 -19 40 -32 17 -14 33 -25 37
-25 4 0 13 -6 20 -13 20 -20 138 -97 149 -97 5 0 9 -4 9 -10 0 -5 5 -10 11
-10 6 0 23 -8 37 -19 48 -33 194 -106 317 -158 235 -100 507 -174 730 -198
218 -25 557 -25 694 0 9 1 38 6 64 9 55 8 63 10 169 31 391 80 801 276 1138
543 134 107 383 359 449 456 8 12 18 23 21 26 38 32 212 316 281 457 85 176
179 436 203 563 2 14 11 57 19 95 9 39 18 88 21 110 4 23 8 51 11 63 26 136
26 643 0 742 -2 8 -6 37 -10 63 -17 140 -79 374 -139 532 -233 608 -639 1089
-1197 1417 -81 48 -241 127 -310 154 -24 9 -48 21 -54 26 -5 4 -18 8 -30 8
-12 0 -25 4 -30 9 -15 14 -227 78 -350 105 -112 25 -135 30 -215 41 -91 13
-107 14 -225 20 -66 4 -125 8 -132 10 -6 2 -13 2 -15 1z"/>
</g>
</svg>
