<svg width="71" height="64" viewBox="0 0 71 64" fill="none" xmlns="http://www.w3.org/2000/svg">
<path d="M62.4081 21.641C61.9366 23.4127 61.2937 26.856 61.0508 28.6849C61.0651 28.7135 61.0794 28.7278 61.0936 28.742C61.4366 28.8563 61.7652 29.0135 62.0795 29.1993C62.3367 29.3564 62.5653 29.5279 62.7796 29.7279C62.7796 29.5279 62.7939 29.3421 62.7939 29.1421C62.8368 27.2275 63.3225 23.6413 63.6512 21.641C63.7512 21.0409 63.8655 20.4122 64.0655 19.7979C63.1654 20.0979 62.651 20.7551 62.4081 21.641Z" fill="white"/>
<path d="M50.4492 31.5567C52.4209 28.9563 53.4925 26.1702 53.6211 23.284C53.7211 21.3552 53.7068 19.3978 53.7068 17.4975V8.92476C53.7068 7.26737 52.6924 6.13863 50.9921 5.91003L50.2634 5.8243C49.2919 5.71 48.3631 5.5957 47.4773 5.39567C44.2625 4.68127 41.1621 3.22391 37.7187 0.823557C37.1758 0.452073 36.5757 0.0234375 35.6898 0.0234375C34.804 0.0234375 34.2039 0.452073 33.6752 0.823557C29.0603 4.00975 24.9168 5.60998 20.6447 5.86716C19.516 5.92432 17.6443 6.39581 17.6443 9.05335L17.63 13.3397C17.6157 16.2258 17.6157 19.1263 17.6443 22.0124C17.6443 23.1697 17.7872 24.3842 18.0872 25.7273C18.7302 28.6134 20.259 31.2567 22.7593 33.7999C25.8169 36.9004 29.6746 39.3007 34.6325 41.1581C34.9611 41.2724 35.3041 41.3153 35.6612 41.3153C36.147 41.3153 36.6328 41.201 36.9757 41.0295L38.2331 40.4866C39.2618 40.0437 40.3048 39.5865 41.3621 39.0578C45.2341 37.0289 48.2203 34.5571 50.4492 31.5567ZM39.3618 35.2001C38.4188 35.6716 37.4472 36.0859 36.4899 36.5003C36.2185 36.6146 35.947 36.7289 35.6612 36.8575V21.0551H21.9735C21.9592 18.4833 21.9592 15.9115 21.9592 13.354L21.9735 10.1107C26.5313 9.63915 30.932 7.91033 35.6612 4.72414V21.0694H49.3347C49.3204 21.741 49.3204 22.4268 49.2776 23.084C49.1918 25.1129 48.4346 27.0132 46.9629 28.9563C45.1341 31.4424 42.6337 33.4999 39.3618 35.2001Z" fill="white"/>
<path d="M59.265 28.2275L59.3793 27.356C59.5508 26.0701 60.2937 23.6554 60.5795 22.3267C59.6937 22.6267 59.1793 23.2697 58.9507 24.1555C58.6649 25.2557 57.8791 27.5989 57.6934 28.7848C58.1934 28.599 58.7221 28.499 59.2507 28.4704C59.2507 28.3847 59.2507 28.3133 59.265 28.2275Z" fill="white"/>
<path d="M2.58499 38.9436C2.91361 41.1582 3.95663 42.987 5.49971 44.6158L15.9298 57.1749L16.1299 62.9614C16.1299 63.4758 16.5442 63.8901 17.0586 63.9044L28.0316 63.9616C28.546 63.9616 28.9604 63.5472 28.9746 63.0329L29.3604 56.0175C29.4604 55.2889 29.4747 54.5459 29.4747 53.9601C29.4747 53.2457 29.4176 52.7599 29.4176 52.7599C28.9032 50.5739 28.1174 46.3161 22.2879 42.1012C21.7307 41.7011 20.9306 40.9153 20.5019 40.3724L14.0153 32.0283C13.3437 30.8995 11.7435 30.5137 10.5147 31.2567C9.28599 31.9997 8.90022 33.6142 9.57175 34.7429L15.8155 44.9302C16.0156 45.2588 15.9013 45.7017 15.5584 45.8875C15.244 46.0589 14.8583 45.9589 14.6582 45.6731L14.401 45.2874C14.401 45.2874 9.68605 38.8436 7.32856 33.7285C6.89992 32.7998 6.65703 31.8568 6.59988 30.8424C6.58559 30.6852 6.58559 30.4709 6.5713 30.3137C6.49986 27.9848 6.12838 24.6843 5.74261 22.384C5.6283 21.741 5.29968 19.3264 4.62816 18.5548C3.67087 17.4689 2.38496 17.7118 1.57056 18.3691C0.899029 18.912 0.584697 19.8122 0.684712 20.6694L2.49927 38.2863L2.58499 38.9436Z" fill="white"/>
<path d="M69.7523 18.3832C68.9379 17.726 67.652 17.4831 66.6947 18.569C66.0089 19.3405 65.6803 21.7552 65.5803 22.3981C65.1945 24.6985 64.8087 28.0132 64.7516 30.3279C64.7516 30.485 64.7373 30.6994 64.723 30.8565C64.6658 31.871 64.4229 32.814 63.9943 33.7427C61.6511 38.8434 56.9218 45.3015 56.9218 45.3015L56.6646 45.6873C56.4646 45.9731 56.0788 46.0731 55.7645 45.9016C55.4216 45.7159 55.3073 45.273 55.5073 44.9443L61.7511 34.7571C62.4226 33.6284 62.0369 32.0281 60.8081 31.2709C59.5794 30.5136 57.9791 30.8994 57.3076 32.0424L50.8209 40.3865C50.3923 40.9295 49.5922 41.7153 49.0349 42.1153C43.1912 46.316 42.4197 50.588 41.9053 52.7741C41.9053 52.7741 41.8624 53.2599 41.8481 53.9743C41.8481 54.5601 41.8624 55.2887 41.9624 56.0317L42.3482 63.047C42.3482 63.5614 42.7769 63.9757 43.2912 63.9757L54.2643 63.9186C54.7786 63.9186 55.193 63.49 55.193 62.9756L55.393 57.189L65.8232 44.63C67.3662 43.0012 68.4092 41.1581 68.7379 38.9577L68.8379 38.3148L70.6524 20.6979C70.7382 19.8263 70.4381 18.9405 69.7523 18.3832Z" fill="white"/>
<path d="M7.25732 19.812C7.44307 20.4407 7.57166 21.0551 7.67167 21.6551C8.01458 23.6412 8.50037 27.2417 8.52894 29.1563C8.52894 29.3563 8.54323 29.542 8.54323 29.7421C8.75755 29.5563 8.98615 29.3706 9.24333 29.2134C9.55767 29.0134 9.90058 28.8705 10.2292 28.7562C10.2435 28.7276 10.2578 28.7133 10.2721 28.699C10.0292 26.8845 9.38621 23.4411 8.91471 21.6551C8.67182 20.755 8.15746 20.0978 7.25732 19.812Z" fill="white"/>
<path d="M10.7432 22.3267C11.0289 23.6554 11.7719 26.0701 11.9433 27.356L12.0576 28.2275C12.0719 28.3133 12.0719 28.399 12.0719 28.4847C12.6006 28.499 13.1292 28.6133 13.6293 28.7991C13.4579 27.6132 12.672 25.27 12.372 24.1698C12.1434 23.2697 11.629 22.6267 10.7432 22.3267Z" fill="white"/>
</svg>
