<svg width="64" height="70" viewBox="0 0 64 70" fill="none" xmlns="http://www.w3.org/2000/svg">
<path d="M54.5914 11.3065H27.3845L37.0727 1.61827C39.2304 -0.539423 42.7456 -0.539423 44.9033 1.61827L54.5914 11.3065ZM11.9663 7.76269V11.3065H22.3404L31.4141 2.23271H17.5106C14.4525 2.21842 11.9663 4.70477 11.9663 7.76269ZM32.743 68.0352H46.1893C49.1472 68.0352 51.5478 65.6346 51.5478 62.6767V59.0615H41.7167L32.743 68.0352ZM9.29403 59.0758L18.6536 68.4353C20.7398 70.5216 24.1407 70.5216 26.2269 68.4353L35.5864 59.0758H9.29403ZM63.9653 20.9375V49.4448C63.9653 52.5027 61.4789 54.989 58.421 54.989H5.57894C2.52102 54.989 0.034668 52.5027 0.034668 49.4448V20.9375C0.034668 17.8796 2.52102 15.3932 5.57894 15.3932H58.4353C61.4788 15.3932 63.9653 17.8796 63.9653 20.9375ZM59.2355 26.9247C58.7925 27.039 58.321 27.0962 57.8494 27.0962C54.7486 27.0962 52.248 24.5813 52.248 21.4948C52.248 21.0232 52.3051 20.566 52.4195 20.123H11.2661C11.3233 20.4516 11.3661 20.8089 11.3661 21.1518C11.3661 24.2526 8.8512 26.7533 5.7647 26.7533C5.42176 26.7533 5.0931 26.7247 4.77874 26.6675V43.7004C5.0931 43.6433 5.42176 43.6147 5.7647 43.6147C8.86549 43.6147 11.3661 46.1296 11.3661 49.2161C11.3661 49.5734 11.3376 49.9163 11.2661 50.245H52.2909C52.2623 50.0163 52.248 49.7877 52.248 49.5448C52.248 46.444 54.7629 43.9434 57.8494 43.9434C58.3353 43.9434 58.7925 44.0005 59.2355 44.1148V26.9247ZM44.9604 34.0265V36.3557C44.9604 36.8273 44.5746 37.2131 44.1031 37.2131H42.1597C41.8882 38.5706 41.3595 39.8423 40.6165 40.9569L41.9882 42.3287C42.3169 42.6573 42.3169 43.2003 41.9882 43.5433L40.345 45.1865C40.0163 45.5152 39.4733 45.5152 39.1304 45.1865L37.7586 43.8148C36.644 44.5578 35.3723 45.1008 34.0148 45.3723V47.2871C34.0148 47.7586 33.629 48.1444 33.1574 48.1444H30.8282C30.3567 48.1444 29.9709 47.7586 29.9709 47.2871V45.3437C28.6134 45.0722 27.3416 44.5435 26.2271 43.7862L24.8553 45.1579C24.5266 45.4866 23.9836 45.4866 23.6407 45.1579L21.9974 43.5147C21.6688 43.186 21.6688 42.643 21.9974 42.3001L23.3692 40.9283C22.6261 39.8137 22.0832 38.542 21.8259 37.1845H19.8826C19.411 37.1845 19.0252 36.7987 19.0252 36.3271V33.998C19.0252 33.5264 19.411 33.1406 19.8826 33.1406H21.8259C22.0974 31.7831 22.6261 30.5114 23.3692 29.3968L21.9974 28.025C21.6688 27.6964 21.6688 27.1534 21.9974 26.8104L23.6407 25.1671C23.9693 24.8385 24.5123 24.8385 24.8553 25.1671L26.2271 26.5389C27.3416 25.7959 28.6134 25.2529 29.9709 24.9814V23.038C29.9709 22.5665 30.3567 22.1807 30.8282 22.1807H33.1574C33.629 22.1807 34.0148 22.5665 34.0148 23.038V24.9814C35.3723 25.2529 36.644 25.7816 37.7586 26.5389L39.1304 25.1671C39.459 24.8385 40.002 24.8385 40.345 25.1671L41.9882 26.8104C42.3169 27.1391 42.3169 27.6821 41.9882 28.025L40.6165 29.3968C41.3595 30.5114 41.9025 31.7831 42.1597 33.1406H44.1031C44.5746 33.1692 44.9604 33.555 44.9604 34.0265ZM36.4009 33.2835L34.7291 31.6116L30.8853 35.4269L29.2848 33.8122L27.613 35.4841L29.2134 37.0988L30.8853 38.7706L32.5571 37.0988L36.4009 33.2835ZM50.6047 31.826C48.7471 31.826 47.2467 33.3264 47.2467 35.184C47.2467 37.0416 48.7471 38.542 50.6047 38.542C52.4623 38.542 53.9627 37.0416 53.9627 35.184C53.9627 33.3264 52.4623 31.826 50.6047 31.826ZM13.3952 31.826C11.5376 31.826 10.0372 33.3264 10.0372 35.184C10.0372 37.0416 11.5376 38.542 13.3952 38.542C15.2528 38.542 16.7532 37.0416 16.7532 35.184C16.7674 33.3264 15.2528 31.826 13.3952 31.826Z" fill="white"/>
</svg>
