<svg width="71" height="70" viewBox="0 0 71 70" fill="none" xmlns="http://www.w3.org/2000/svg">
<path d="M69.9977 30.6826C69.3512 24.807 67.189 19.439 63.6923 14.6564C58.0588 6.95551 50.5247 2.24712 41.1166 0.607989C39.2407 0.281572 37.3223 0.196626 35.4236 0C35.2974 0 35.1721 0 35.0467 0C33.2728 0.194183 31.4912 0.322824 29.7296 0.593473C11.6399 3.36938 -1.43924 20.498 0.628646 38.7209C1.61537 47.4189 5.25885 54.8363 11.727 60.7519C19.4172 67.7864 28.5526 70.8025 38.9094 69.8185C46.858 69.0609 53.7939 65.8553 59.5106 60.2618C67.8126 52.1322 71.2652 42.1948 69.9977 30.6826ZM62.6269 48.592C61.7425 47.0499 60.6261 44.8998 60.1274 43.0648C59.4027 40.4004 57.6628 42.9747 57.5175 44.7147C57.3722 46.4547 56.2127 47.7595 53.8924 45.1495C51.5721 42.5397 51.1372 43.1191 50.4125 43.1191C49.6878 43.1191 48.3828 44.8588 48.6726 52.9793C48.8792 58.7768 51.1662 59.6968 52.6606 60.1174C49.8859 62.0238 46.6974 63.5258 43.1189 64.4348C29.4417 67.9061 15.4807 61.6024 8.95782 49.0788C2.88079 37.4099 5.84155 24.2055 12.0192 16.9379C12.1853 18.245 12.348 19.4192 12.4834 20.5979C12.8517 23.8161 12.5738 26.9921 11.9173 30.1556C11.777 30.8297 11.8259 31.5976 12.0077 32.2607C12.1066 32.6227 12.6525 33.0503 13.0296 33.0861C13.3266 33.115 13.8447 32.6443 13.965 32.2909C14.1825 31.6589 14.1914 30.9503 14.2582 30.271C14.3063 29.7918 14.3071 29.3062 14.3402 28.5545C14.8307 28.9521 15.1885 29.1933 15.4859 29.4924C16.2436 30.2553 17.01 31.0148 17.7015 31.8351C18.0069 32.1992 18.3217 32.7088 18.3132 33.1472C18.2941 34.0851 18.7056 34.7228 19.2083 35.4593C19.7668 36.2783 20.0183 37.308 20.3777 38.2562C20.528 38.6538 20.5595 39.1024 20.7387 39.4847C21.1215 40.3035 21.7 40.8644 22.6945 40.9255C23.7407 40.9917 24.1324 41.3978 24.2827 42.4681C24.0151 42.4988 23.7488 42.5345 23.4816 42.5591C22.2055 42.6807 21.5731 43.2669 21.6235 44.554C21.7233 47.1103 22.6455 49.3437 24.543 51.1194C25.0659 51.6097 25.6215 52.065 26.1296 52.5671C27.2901 53.7132 27.695 55.0597 27.1371 56.6425C26.8699 57.3969 26.5037 58.1377 26.3853 58.9178C26.2647 59.7103 26.2638 60.5719 26.4474 61.3474C26.6377 62.1545 26.556 63.9198 27.3895 63.7738C28.8639 63.5146 29.7114 63.8053 29.8261 62.1545C29.8478 61.84 29.8235 61.8011 29.7398 61.5106C29.3015 59.961 31.292 55.5619 32.4864 54.7599C33.5068 54.0734 34.53 53.375 35.4548 52.5688C36.7881 51.41 37.385 49.9131 36.8247 48.1699C36.2975 46.5293 36.9143 45.3247 38.0613 44.2685C39.2312 43.1921 39.9983 41.9517 39.9184 40.295C39.8385 38.6384 38.7545 37.4421 37.3417 37.6121C36.6509 37.6936 35.9888 38.0249 35.3154 38.2517C34.3282 38.5856 33.3648 39.0529 32.3516 39.2347C30.9315 39.4863 30.0565 38.5585 29.4231 37.4319C28.9134 36.5262 28.7455 36.4567 27.8607 37.0208C27.1143 37.4983 26.3693 37.9791 25.5962 38.4107C24.793 38.8593 24.3553 38.6929 23.7361 38.0216C23.3699 37.6256 22.8628 37.3471 22.3921 37.0616C22.0536 36.8544 21.5959 36.7973 21.3246 36.5374C20.9609 36.1857 20.4537 35.6641 20.5052 35.2828C20.5651 34.8351 21.0837 34.2747 21.536 34.0913C22.3155 33.7752 23.2012 33.7242 24.0371 33.5425C24.4822 33.4456 24.9339 33.3448 25.3547 33.1788C25.9308 32.949 25.9065 32.5706 25.4655 32.2154C25.2481 32.0408 24.9791 31.918 24.717 31.8127C23.4426 31.2995 22.1611 30.8088 20.8875 30.2937C20.571 30.1666 20.2592 30.0104 19.9751 29.8247C19.1743 29.2985 19.0779 28.7191 19.8043 28.078C22.6725 25.5481 26.0228 24.8073 28.9911 28.1686C29.9107 29.2097 30.5344 30.5078 31.4027 31.6004C32.0857 32.4619 32.8721 33.2707 33.7402 33.9354C34.098 34.2085 34.9024 34.255 35.3026 34.0356C35.8985 33.7094 35.9193 32.9657 35.6195 32.3455C35.3604 31.8068 35.0558 31.2758 34.6897 30.8044C33.0033 28.6316 33.1193 24.3973 36.4224 22.6307C37.5273 22.039 38.6418 21.4157 39.1694 19.8284C38.5366 19.9995 38.0776 20.1099 37.6282 20.2476C35.1199 21.0245 36.8661 19.1534 38.02 18.8271C38.7208 18.6279 37.393 18.0909 37.393 18.0909C37.4245 18.0362 38.2748 17.7935 39.2205 17.3904C39.8711 17.1138 40.5363 16.8025 41.0768 16.3624C41.4269 16.0752 41.5619 15.5264 41.7921 15.0948C41.7336 15.0268 41.6766 14.9606 41.6172 14.8926C40.9544 14.9818 40.2926 15.0799 39.6282 15.1547C38.5025 15.2808 38.2383 15.06 38.134 13.9245C38.0617 13.1492 37.2716 12.7267 36.5338 13.1242C36.0346 13.3949 35.603 13.7873 35.1226 14.0977C34.0136 14.8161 33.1844 14.5289 32.7493 13.2902C32.4902 12.5529 32.1293 12.4135 31.4508 12.8264C31.1096 13.0337 30.825 13.3365 30.4781 13.5303C29.9092 13.8481 29.3308 14.167 28.7199 14.3829C28.1249 14.5936 27.4082 14.7465 27.0033 14.094C26.5684 13.3923 26.9486 12.7091 27.497 12.2692C28.1788 11.722 28.9647 11.2972 29.7318 10.8673C30.8245 10.2523 31.9815 9.74077 33.0366 9.07011C33.8111 8.57596 34.1496 7.77062 33.899 6.82041C33.6875 6.01838 33.1509 5.74701 32.408 6.11482C31.7945 6.41939 31.2585 6.89601 30.6277 7.14151C30.1667 7.31815 29.5924 7.32002 29.0975 7.23292C28.9148 7.20058 28.7206 6.69435 28.7156 6.40042C28.7122 6.23096 29.0558 5.93659 29.275 5.9008C30.7992 5.66336 32.3301 5.46242 33.8631 5.28778C34.0658 5.26565 34.3703 5.39098 34.4974 5.55283C35.51 6.83104 36.9229 7.45125 38.4092 7.8938C39.658 8.26463 39.8389 8.08799 40.0107 6.77786C41.6146 6.40027 43.245 5.65631 44.8591 6.67423C45.7545 7.23781 46.5709 7.95589 47.3289 8.69957C47.5167 8.8847 47.402 9.45733 47.3119 9.82615C47.193 10.3217 46.9186 10.7798 46.792 11.2754C46.5474 12.2358 47.1683 12.9864 48.1606 12.9707C48.4741 12.964 48.7867 12.8997 49.1019 12.8841C50.0187 12.8412 50.3441 13.1921 50.26 14.1177C50.141 15.4294 50.3593 15.5871 51.6829 15.3632C52.0634 15.2991 52.5028 15.4718 52.891 15.6079C53.122 15.6894 53.3012 15.9108 53.5069 16.0662C54.7378 16.999 55.6791 16.6494 56.0395 15.1231C56.0784 14.957 56.0734 14.7795 56.1075 14.6116C56.2502 13.9268 56.6368 13.7506 57.0988 14.2373C58.0776 15.2738 58.9959 16.368 59.989 17.498C58.9219 18.4767 58.8863 19.6661 59.1226 20.8316C59.385 22.1282 59.0435 23.2547 58.5321 24.3969C58.042 25.4911 57.5034 26.5786 57.1761 27.7235C56.6869 29.4418 57.2424 30.2267 58.9874 30.607C60.6526 30.9705 60.9253 31.3053 60.9882 32.9332C61.0723 35.1536 62.2125 36.6861 64.1605 37.664C64.593 37.8798 65.0525 38.0438 65.4942 38.2273C65.2759 41.6502 64.2988 45.2124 62.6269 48.592Z" fill="white"/>
</svg>
