<svg width="655" height="550" viewBox="0 0 655 550" fill="none" xmlns="http://www.w3.org/2000/svg">
<g filter="url(#filter0_d_1145_1289)">
<mask id="path-1-outside-1_1145_1289" maskUnits="userSpaceOnUse" x="12.0249" y="9.93506" width="529" height="437" fill="black">
<rect fill="white" x="12.0249" y="9.93506" width="529" height="437"/>
<path d="M24.067 95.361L27.1406 95.7213L33.1061 96.8052L38.4395 97.4364L44.8551 98.5203L50.6387 99.1515L53.5305 98.6989L56.0616 96.2603L59.5854 94.1849L62.6591 91.7462L65.5509 87.9557L68.2638 84.4362L70.3417 81.5479L71.7876 81.006L74.3187 80.2824L76.7603 79.5589L79.5627 79.1986L82.2756 78.5674L85.9813 78.1148L87.9697 77.2125L89.3262 75.2265L90.7721 72.1566L91.2253 70.2598L92.6712 68.0921L94.7491 66.4664L96.3768 65.3825L100.172 62.7652L98.726 61.2318L95.2022 57.4413L93.1243 54.6423L88.876 49.9496L85.4417 45.9775L82.2786 42.8183L79.7475 39.2987L78.6623 35.9579V33.7009L81.8254 32.7093L86.345 31.6255L89.6899 30.363L94.0276 28.9188L98.1864 27.835L103.52 26.3908L107.679 25.036L111.927 24.1338L119.156 21.6952L124.94 19.7984L127.11 18.1727L129.552 15.3737L132.262 12.9351L137.867 15.2814L142.565 17.1781L147.535 18.4406L151.33 19.5245L153.229 21.5999L155.489 22.4128H157.567L161.362 25.1224L165.067 26.9268L173.111 31.1699L183.053 36.4968L192 41.1895L199.683 45.251L210.346 51.5694L219.657 55.2706L227.971 62.0417L234.387 67.9105L242.702 74.6816L251.741 82.8045L258.61 88.581L264.664 93.908L270.991 99.3242L276.867 104.017L282.108 108.62L284.457 110.606H287.981L296.385 107.265L304.881 104.377L310.847 101.849L314.281 102.052L317.739 102.525L320.926 103.136L324.179 103.338L327.229 103.609L331.23 104.285L333.4 105.911L335.57 107.468L336.384 108.823V110.99C336.384 110.99 336.655 113.632 336.384 113.834C336.113 114.037 336.995 115.46 336.995 115.46L338.623 117.357L340.182 118.169H343.912L347.435 118.509H356.111L357.739 119.253L358.621 120.135L359.095 121.692V123.181C359.095 123.181 358.755 124.738 359.095 125.009C359.435 125.28 360.788 126.635 360.788 126.635L361.331 128.463C361.331 128.463 361.465 130.154 361.331 130.36C361.197 130.562 361.874 131.578 361.874 131.578C361.874 131.578 363.23 132.593 363.501 132.593H365.061V134.353L365.737 135.639L367.159 136.383L367.702 137.399L368.584 138.483V140.445L367.771 140.784L367.431 138.956H366.685L366.345 140.784L366.548 142.002H367.633L367.973 143.086L367.431 143.83H368.042C368.042 143.83 368.99 144.033 369.261 144.372C369.532 144.712 370.549 143.967 370.549 143.967L371.634 144.462L372.517 145.525H374.007L376.312 145.864L378.276 146.54L379.633 148.097V149.723L378.75 150.67L378.411 153.109L379.97 153.785L379.564 154.666L379.97 155.613L381.055 155.273L381.46 157.236C381.46 157.236 382.614 157.102 382.817 157.236C383.02 157.37 384.51 157.641 384.51 157.641V157.167L383.628 155.812H384.984L386.203 156.423V157.641L386.815 158.858L387.426 160.213L388.037 161.095L389.799 162.72L392.035 164.007L395.016 164.82L397.523 166.85L398.811 168.812L397.657 169.694L396.709 168.747L396.641 167.8L395.693 167.934L395.895 169.086L396.098 170.17L396.438 171.728L396.369 173.014L397.657 174.774L398.811 176.194H399.965L401.864 178.496V181.881L400.916 183.168C400.916 183.168 401.187 184.049 401.187 184.32C401.187 184.591 400.305 185.404 400.305 185.404L398.203 184.659L398.271 183.373L396.915 182.155L396.51 183.171L397.255 184.254L399.017 186.422L399.151 187.506L399.22 188.861L398.948 190.35C398.948 190.35 398.746 191.365 398.948 191.502C399.151 191.636 400.236 193.804 400.236 194.074C400.236 194.345 401.864 197.46 401.864 197.46C401.864 197.46 403.355 199.899 403.355 200.101C403.355 200.304 404.574 202.334 404.574 202.334L405.93 204.094V202.942H406.813C406.813 202.942 408.101 204.16 408.303 204.094C408.506 204.026 409.32 205.178 409.32 205.38C409.32 205.583 409.997 207.614 409.997 207.614L409.386 208.831L409.997 209.984V213.369L411.216 214.522H411.69L412.638 216.213L413.383 217.77L414.469 218.652L414.808 220.006L415.282 222.174L416.23 222.579L417.45 223.053L418.264 226.236L420.908 228.606L423.755 229.419C423.755 229.419 426.331 228.877 426.602 228.877H428.975L430.397 227.522L431.008 227.048V226.033L432.499 225.965L433.11 227.048L432.705 227.793L431.485 228.064L429.724 229.419L428.707 230.907L428.301 232.465V234.156H429.724L431.351 233.48L433.113 233.82L434.741 235.24V241.198L438.944 246.072L444.502 252.572L449.382 258.191L452.703 262.524L456.906 267.329L459.753 271.054L461.787 273.559H473.786L517.372 273.964H525.168L538.589 295.289L530.388 321.557L521.847 347.963L467.213 365.769L444.844 373.418L440.507 374.976L345.471 408.623L333.948 416.882L330.085 423.99L328.254 425.208L325.002 425.547H321.681L316.8 420.875L314.427 417.49L299.718 417.421L286.228 417.49L278.84 416.948L268.4 414.78H261.284L253.151 414.849L249.219 415.864L245.489 416.067L239.184 414.036L234.304 411.734L232.339 412.208L228.338 417.15C228.338 417.15 228.135 418.571 228.135 418.776C228.135 418.982 227.864 420.875 227.864 420.875L226.848 422.028L226.102 423.99L226.171 427.239L227.593 429.269L227.796 431.098L227.456 432.044L225.828 432.72L224.743 433.873L224.066 435.159L223.661 436.579L222.778 437.866L218.983 441.385L217.829 442.332C217.829 442.332 217.627 440.843 217.627 440.641C217.627 440.438 216.473 438.068 216.473 438.068L216.404 436.308L215.185 434.209L214.982 432.923L214.1 431.705L213.083 431.095L212.269 430.011L211.593 429.266L211.864 425.949L211.321 425.068C211.321 425.068 210.168 424.392 209.965 424.392C209.762 424.392 208.608 423.24 208.608 423.24L207.66 423.171L207.186 422.019V420.866L206.238 420.256L205.764 419.104L205.424 415.855L205.153 414.703L205.222 413.89L205.088 412.943L200.818 409.828L198.648 407.458L194.919 404.752L191.666 402.923L189.022 399.675L187.328 396.155L185.635 393.449L185.092 391.62L184.55 388.235L183.602 386.544L182.856 384.986L181.163 384.444L179.604 382.616L178.385 381.735L178.79 380.314L179.673 379.502C179.673 379.502 179.875 378.757 179.741 378.486C179.607 378.215 178.927 377.334 178.724 377.334C178.522 377.334 177.708 376.929 177.708 376.929L177.234 375.982V373.543L177.776 372.528L177.371 371.513L176.217 370.971L175.335 370.429L175.201 369.211L174.998 368.127L174.864 367.246L174.187 366.433L172.899 364.742L172.628 362.574L172.085 361.49C172.085 361.49 171.409 360.135 171.203 360.001C171 359.867 170.186 358.986 169.983 358.986C169.781 358.986 168.898 358.242 168.898 358.242L168.493 357.226L169.441 356.616L169.509 355.059L168.424 353.841L167.61 353.23C167.61 353.23 166.662 353.028 166.525 353.23C166.391 353.433 165.711 353.772 165.711 353.772L163.881 353.096C163.881 353.096 163.407 351.878 163.407 351.607C163.407 351.336 163.204 350.05 163.204 350.05L162.322 349.035L159.88 347.275L157.17 345.855L155.814 344.908C155.814 344.908 155.34 343.961 155.137 343.69C154.934 343.419 153.104 341.793 153.104 341.793L151.139 340.709C151.139 340.709 149.309 340.099 149.106 340.099C148.903 340.099 146.87 340.031 146.599 340.099C146.327 340.168 145.108 340.504 144.837 340.438C144.565 340.373 143.209 339.763 143.209 339.763L140.905 337.866L138.6 334.617L136.498 331.232L134.396 327.712L131.549 324.529C131.549 324.529 130.262 322.361 130.262 322.159C130.262 321.956 127.888 316.674 127.888 316.674L126.872 314.17L126.669 312.342L127.414 310.514C127.414 310.514 127.754 309.43 127.82 309.227C127.888 309.025 127.686 307.536 127.686 307.536L126.601 306.181L125.989 304.624L126.803 303.406L127.888 302.864C127.888 302.864 128.228 301.983 128.16 301.712C128.091 301.441 127.549 300.899 127.277 300.899C127.006 300.899 125.921 301.78 125.921 301.78L125.176 302.185L124.362 301.643L123.005 297.784L121.92 295.346L122.734 293.991L123.751 294.601L125.512 294.059L126.395 293.112L125.921 292.3L125.176 291.96L125.244 290.54L125.989 289.322L126.601 288.307L127.549 287.223L127.346 284.853L126.872 284.108L126.058 283.432L125.855 282.077L126.127 279.573L124.636 277.34L123.959 276.054L124.502 275.241L123.08 274.767L121.249 272.6L120.233 271.179L120.504 269.759L119.961 268.607L119.622 267.725L120.027 266.573C120.027 266.573 120.367 265.558 120.23 265.287C120.096 265.016 118.808 263.73 118.808 263.73L117.722 262.848L116.637 261.157L115.823 257.908L115.484 255.267V254.252L114.807 253.37L113.653 253.168L113.382 253.778L112.499 254.118L112.297 252.427L111.28 250.056L110.737 247.484L108.162 244.843L106.805 243.488L105.383 243.083L103.621 241.186L102.199 239.56L100.235 239.289L98.8125 238.342C98.8125 238.342 98.407 237.801 98.3385 237.598C98.2699 237.396 98.3385 236.38 98.3385 236.38L98.2043 235.499L97.1877 235.633L97.1191 236.446L96.2367 237.53L94.4062 236.514L93.2525 235.025L91.7619 233.4L90.7453 233.06L90.0685 233.671L89.7287 234.552L87.764 234.686L86.4761 233.468L86.0021 232.25L85.2568 231.098L85.868 229.812C85.868 229.812 85.868 228.999 85.6652 228.93C85.4625 228.862 84.7172 228.591 84.7172 228.591L83.4293 226.358L81.6674 224.19L79.7684 222.43L78.6146 220.941L78.5461 219.316L79.7654 219.113L80.9847 218.64L81.4587 216.406L80.4421 213.902L80.8476 212.616L81.1874 210.993L80.5763 209.364C80.5763 209.364 78.3403 207.807 78.0005 207.673C77.6606 207.539 76.3727 207.334 76.4413 206.792C76.5099 206.25 77.1866 204.83 77.1866 204.83C77.1866 204.83 77.3208 203.883 77.118 203.475C76.9153 203.07 75.696 201.986 75.5589 201.715C75.4247 201.444 73.8655 198.94 73.8655 198.94L72.8489 196.841C72.8489 196.841 72.1722 195.42 71.9009 195.42C71.6296 195.42 69.5278 194.744 69.5278 194.744C69.5278 194.744 67.4261 194.203 67.4261 194C67.4261 193.798 66.2723 191.63 66.2723 191.63V186.958C66.2723 186.958 65.7983 185.74 65.4584 185.74C65.1186 185.74 63.0168 185.401 63.0168 185.401L61.8631 183.843L60.915 181.947L58.2707 177.343C58.2707 177.343 57.4568 174.366 57.4568 174.16C57.4568 173.955 55.8976 170.843 55.8976 170.843L53.3218 168.542L51.5599 167.187L51.1545 164.141L48.9841 162.178L45.7316 159.537L44.6464 157.98L44.5123 153.984L42.8189 151.885L40.7172 150.057L39.9033 147.35L38.8867 146.198L38.684 144.235C38.684 144.235 37.1934 143.288 37.1248 143.018C37.0562 142.747 36.7193 140.918 36.7193 140.918L35.0916 139.09L34.549 137.464L31.1593 134.01L30.8195 133.063L31.2249 132.117L30.1398 131.304L28.1066 130.422L27.09 129.746L23.7689 130.22L22.1411 130.83L21.1931 129.883L20.5819 130.357C20.5819 130.357 19.2255 129.544 18.9542 129.475C18.6829 129.407 17.2608 129.273 17.1923 129.475C17.1237 129.678 17.1923 131.506 17.1923 131.506L16.2442 131.846L15.7702 130.762L15.0249 130.017C15.0249 130.017 15.9073 128.529 16.1101 128.46C16.3128 128.392 16.9925 127.376 16.9925 127.376C16.9925 127.376 17.0611 126.224 17.2638 125.819C17.4665 125.414 18.4175 123.922 18.4831 123.72C18.5517 123.517 18.9572 122.231 18.9572 122.231L19.9738 120.269L20.4478 115.055L20.0423 112.753L19.9738 110.654L20.4478 108.284L20.9904 107.2L21.3958 105.238L21.7357 103.612L22.3468 101.921L22.8894 100.295L23.5661 98.6036L23.7003 96.9779L24.0849 95.3521L24.067 95.361Z"/>
</mask>
<path d="M24.067 95.361L27.1406 95.7213L33.1061 96.8052L38.4395 97.4364L44.8551 98.5203L50.6387 99.1515L53.5305 98.6989L56.0616 96.2603L59.5854 94.1849L62.6591 91.7462L65.5509 87.9557L68.2638 84.4362L70.3417 81.5479L71.7876 81.006L74.3187 80.2824L76.7603 79.5589L79.5627 79.1986L82.2756 78.5674L85.9813 78.1148L87.9697 77.2125L89.3262 75.2265L90.7721 72.1566L91.2253 70.2598L92.6712 68.0921L94.7491 66.4664L96.3768 65.3825L100.172 62.7652L98.726 61.2318L95.2022 57.4413L93.1243 54.6423L88.876 49.9496L85.4417 45.9775L82.2786 42.8183L79.7475 39.2987L78.6623 35.9579V33.7009L81.8254 32.7093L86.345 31.6255L89.6899 30.363L94.0276 28.9188L98.1864 27.835L103.52 26.3908L107.679 25.036L111.927 24.1338L119.156 21.6952L124.94 19.7984L127.11 18.1727L129.552 15.3737L132.262 12.9351L137.867 15.2814L142.565 17.1781L147.535 18.4406L151.33 19.5245L153.229 21.5999L155.489 22.4128H157.567L161.362 25.1224L165.067 26.9268L173.111 31.1699L183.053 36.4968L192 41.1895L199.683 45.251L210.346 51.5694L219.657 55.2706L227.971 62.0417L234.387 67.9105L242.702 74.6816L251.741 82.8045L258.61 88.581L264.664 93.908L270.991 99.3242L276.867 104.017L282.108 108.62L284.457 110.606H287.981L296.385 107.265L304.881 104.377L310.847 101.849L314.281 102.052L317.739 102.525L320.926 103.136L324.179 103.338L327.229 103.609L331.23 104.285L333.4 105.911L335.57 107.468L336.384 108.823V110.99C336.384 110.99 336.655 113.632 336.384 113.834C336.113 114.037 336.995 115.46 336.995 115.46L338.623 117.357L340.182 118.169H343.912L347.435 118.509H356.111L357.739 119.253L358.621 120.135L359.095 121.692V123.181C359.095 123.181 358.755 124.738 359.095 125.009C359.435 125.28 360.788 126.635 360.788 126.635L361.331 128.463C361.331 128.463 361.465 130.154 361.331 130.36C361.197 130.562 361.874 131.578 361.874 131.578C361.874 131.578 363.23 132.593 363.501 132.593H365.061V134.353L365.737 135.639L367.159 136.383L367.702 137.399L368.584 138.483V140.445L367.771 140.784L367.431 138.956H366.685L366.345 140.784L366.548 142.002H367.633L367.973 143.086L367.431 143.83H368.042C368.042 143.83 368.99 144.033 369.261 144.372C369.532 144.712 370.549 143.967 370.549 143.967L371.634 144.462L372.517 145.525H374.007L376.312 145.864L378.276 146.54L379.633 148.097V149.723L378.75 150.67L378.411 153.109L379.97 153.785L379.564 154.666L379.97 155.613L381.055 155.273L381.46 157.236C381.46 157.236 382.614 157.102 382.817 157.236C383.02 157.37 384.51 157.641 384.51 157.641V157.167L383.628 155.812H384.984L386.203 156.423V157.641L386.815 158.858L387.426 160.213L388.037 161.095L389.799 162.72L392.035 164.007L395.016 164.82L397.523 166.85L398.811 168.812L397.657 169.694L396.709 168.747L396.641 167.8L395.693 167.934L395.895 169.086L396.098 170.17L396.438 171.728L396.369 173.014L397.657 174.774L398.811 176.194H399.965L401.864 178.496V181.881L400.916 183.168C400.916 183.168 401.187 184.049 401.187 184.32C401.187 184.591 400.305 185.404 400.305 185.404L398.203 184.659L398.271 183.373L396.915 182.155L396.51 183.171L397.255 184.254L399.017 186.422L399.151 187.506L399.22 188.861L398.948 190.35C398.948 190.35 398.746 191.365 398.948 191.502C399.151 191.636 400.236 193.804 400.236 194.074C400.236 194.345 401.864 197.46 401.864 197.46C401.864 197.46 403.355 199.899 403.355 200.101C403.355 200.304 404.574 202.334 404.574 202.334L405.93 204.094V202.942H406.813C406.813 202.942 408.101 204.16 408.303 204.094C408.506 204.026 409.32 205.178 409.32 205.38C409.32 205.583 409.997 207.614 409.997 207.614L409.386 208.831L409.997 209.984V213.369L411.216 214.522H411.69L412.638 216.213L413.383 217.77L414.469 218.652L414.808 220.006L415.282 222.174L416.23 222.579L417.45 223.053L418.264 226.236L420.908 228.606L423.755 229.419C423.755 229.419 426.331 228.877 426.602 228.877H428.975L430.397 227.522L431.008 227.048V226.033L432.499 225.965L433.11 227.048L432.705 227.793L431.485 228.064L429.724 229.419L428.707 230.907L428.301 232.465V234.156H429.724L431.351 233.48L433.113 233.82L434.741 235.24V241.198L438.944 246.072L444.502 252.572L449.382 258.191L452.703 262.524L456.906 267.329L459.753 271.054L461.787 273.559H473.786L517.372 273.964H525.168L538.589 295.289L530.388 321.557L521.847 347.963L467.213 365.769L444.844 373.418L440.507 374.976L345.471 408.623L333.948 416.882L330.085 423.99L328.254 425.208L325.002 425.547H321.681L316.8 420.875L314.427 417.49L299.718 417.421L286.228 417.49L278.84 416.948L268.4 414.78H261.284L253.151 414.849L249.219 415.864L245.489 416.067L239.184 414.036L234.304 411.734L232.339 412.208L228.338 417.15C228.338 417.15 228.135 418.571 228.135 418.776C228.135 418.982 227.864 420.875 227.864 420.875L226.848 422.028L226.102 423.99L226.171 427.239L227.593 429.269L227.796 431.098L227.456 432.044L225.828 432.72L224.743 433.873L224.066 435.159L223.661 436.579L222.778 437.866L218.983 441.385L217.829 442.332C217.829 442.332 217.627 440.843 217.627 440.641C217.627 440.438 216.473 438.068 216.473 438.068L216.404 436.308L215.185 434.209L214.982 432.923L214.1 431.705L213.083 431.095L212.269 430.011L211.593 429.266L211.864 425.949L211.321 425.068C211.321 425.068 210.168 424.392 209.965 424.392C209.762 424.392 208.608 423.24 208.608 423.24L207.66 423.171L207.186 422.019V420.866L206.238 420.256L205.764 419.104L205.424 415.855L205.153 414.703L205.222 413.89L205.088 412.943L200.818 409.828L198.648 407.458L194.919 404.752L191.666 402.923L189.022 399.675L187.328 396.155L185.635 393.449L185.092 391.62L184.55 388.235L183.602 386.544L182.856 384.986L181.163 384.444L179.604 382.616L178.385 381.735L178.79 380.314L179.673 379.502C179.673 379.502 179.875 378.757 179.741 378.486C179.607 378.215 178.927 377.334 178.724 377.334C178.522 377.334 177.708 376.929 177.708 376.929L177.234 375.982V373.543L177.776 372.528L177.371 371.513L176.217 370.971L175.335 370.429L175.201 369.211L174.998 368.127L174.864 367.246L174.187 366.433L172.899 364.742L172.628 362.574L172.085 361.49C172.085 361.49 171.409 360.135 171.203 360.001C171 359.867 170.186 358.986 169.983 358.986C169.781 358.986 168.898 358.242 168.898 358.242L168.493 357.226L169.441 356.616L169.509 355.059L168.424 353.841L167.61 353.23C167.61 353.23 166.662 353.028 166.525 353.23C166.391 353.433 165.711 353.772 165.711 353.772L163.881 353.096C163.881 353.096 163.407 351.878 163.407 351.607C163.407 351.336 163.204 350.05 163.204 350.05L162.322 349.035L159.88 347.275L157.17 345.855L155.814 344.908C155.814 344.908 155.34 343.961 155.137 343.69C154.934 343.419 153.104 341.793 153.104 341.793L151.139 340.709C151.139 340.709 149.309 340.099 149.106 340.099C148.903 340.099 146.87 340.031 146.599 340.099C146.327 340.168 145.108 340.504 144.837 340.438C144.565 340.373 143.209 339.763 143.209 339.763L140.905 337.866L138.6 334.617L136.498 331.232L134.396 327.712L131.549 324.529C131.549 324.529 130.262 322.361 130.262 322.159C130.262 321.956 127.888 316.674 127.888 316.674L126.872 314.17L126.669 312.342L127.414 310.514C127.414 310.514 127.754 309.43 127.82 309.227C127.888 309.025 127.686 307.536 127.686 307.536L126.601 306.181L125.989 304.624L126.803 303.406L127.888 302.864C127.888 302.864 128.228 301.983 128.16 301.712C128.091 301.441 127.549 300.899 127.277 300.899C127.006 300.899 125.921 301.78 125.921 301.78L125.176 302.185L124.362 301.643L123.005 297.784L121.92 295.346L122.734 293.991L123.751 294.601L125.512 294.059L126.395 293.112L125.921 292.3L125.176 291.96L125.244 290.54L125.989 289.322L126.601 288.307L127.549 287.223L127.346 284.853L126.872 284.108L126.058 283.432L125.855 282.077L126.127 279.573L124.636 277.34L123.959 276.054L124.502 275.241L123.08 274.767L121.249 272.6L120.233 271.179L120.504 269.759L119.961 268.607L119.622 267.725L120.027 266.573C120.027 266.573 120.367 265.558 120.23 265.287C120.096 265.016 118.808 263.73 118.808 263.73L117.722 262.848L116.637 261.157L115.823 257.908L115.484 255.267V254.252L114.807 253.37L113.653 253.168L113.382 253.778L112.499 254.118L112.297 252.427L111.28 250.056L110.737 247.484L108.162 244.843L106.805 243.488L105.383 243.083L103.621 241.186L102.199 239.56L100.235 239.289L98.8125 238.342C98.8125 238.342 98.407 237.801 98.3385 237.598C98.2699 237.396 98.3385 236.38 98.3385 236.38L98.2043 235.499L97.1877 235.633L97.1191 236.446L96.2367 237.53L94.4062 236.514L93.2525 235.025L91.7619 233.4L90.7453 233.06L90.0685 233.671L89.7287 234.552L87.764 234.686L86.4761 233.468L86.0021 232.25L85.2568 231.098L85.868 229.812C85.868 229.812 85.868 228.999 85.6652 228.93C85.4625 228.862 84.7172 228.591 84.7172 228.591L83.4293 226.358L81.6674 224.19L79.7684 222.43L78.6146 220.941L78.5461 219.316L79.7654 219.113L80.9847 218.64L81.4587 216.406L80.4421 213.902L80.8476 212.616L81.1874 210.993L80.5763 209.364C80.5763 209.364 78.3403 207.807 78.0005 207.673C77.6606 207.539 76.3727 207.334 76.4413 206.792C76.5099 206.25 77.1866 204.83 77.1866 204.83C77.1866 204.83 77.3208 203.883 77.118 203.475C76.9153 203.07 75.696 201.986 75.5589 201.715C75.4247 201.444 73.8655 198.94 73.8655 198.94L72.8489 196.841C72.8489 196.841 72.1722 195.42 71.9009 195.42C71.6296 195.42 69.5278 194.744 69.5278 194.744C69.5278 194.744 67.4261 194.203 67.4261 194C67.4261 193.798 66.2723 191.63 66.2723 191.63V186.958C66.2723 186.958 65.7983 185.74 65.4584 185.74C65.1186 185.74 63.0168 185.401 63.0168 185.401L61.8631 183.843L60.915 181.947L58.2707 177.343C58.2707 177.343 57.4568 174.366 57.4568 174.16C57.4568 173.955 55.8976 170.843 55.8976 170.843L53.3218 168.542L51.5599 167.187L51.1545 164.141L48.9841 162.178L45.7316 159.537L44.6464 157.98L44.5123 153.984L42.8189 151.885L40.7172 150.057L39.9033 147.35L38.8867 146.198L38.684 144.235C38.684 144.235 37.1934 143.288 37.1248 143.018C37.0562 142.747 36.7193 140.918 36.7193 140.918L35.0916 139.09L34.549 137.464L31.1593 134.01L30.8195 133.063L31.2249 132.117L30.1398 131.304L28.1066 130.422L27.09 129.746L23.7689 130.22L22.1411 130.83L21.1931 129.883L20.5819 130.357C20.5819 130.357 19.2255 129.544 18.9542 129.475C18.6829 129.407 17.2608 129.273 17.1923 129.475C17.1237 129.678 17.1923 131.506 17.1923 131.506L16.2442 131.846L15.7702 130.762L15.0249 130.017C15.0249 130.017 15.9073 128.529 16.1101 128.46C16.3128 128.392 16.9925 127.376 16.9925 127.376C16.9925 127.376 17.0611 126.224 17.2638 125.819C17.4665 125.414 18.4175 123.922 18.4831 123.72C18.5517 123.517 18.9572 122.231 18.9572 122.231L19.9738 120.269L20.4478 115.055L20.0423 112.753L19.9738 110.654L20.4478 108.284L20.9904 107.2L21.3958 105.238L21.7357 103.612L22.3468 101.921L22.8894 100.295L23.5661 98.6036L23.7003 96.9779L24.0849 95.3521L24.067 95.361Z" fill="url(#paint0_linear_1145_1289)"/>
<path d="M24.067 95.361L27.1406 95.7213L33.1061 96.8052L38.4395 97.4364L44.8551 98.5203L50.6387 99.1515L53.5305 98.6989L56.0616 96.2603L59.5854 94.1849L62.6591 91.7462L65.5509 87.9557L68.2638 84.4362L70.3417 81.5479L71.7876 81.006L74.3187 80.2824L76.7603 79.5589L79.5627 79.1986L82.2756 78.5674L85.9813 78.1148L87.9697 77.2125L89.3262 75.2265L90.7721 72.1566L91.2253 70.2598L92.6712 68.0921L94.7491 66.4664L96.3768 65.3825L100.172 62.7652L98.726 61.2318L95.2022 57.4413L93.1243 54.6423L88.876 49.9496L85.4417 45.9775L82.2786 42.8183L79.7475 39.2987L78.6623 35.9579V33.7009L81.8254 32.7093L86.345 31.6255L89.6899 30.363L94.0276 28.9188L98.1864 27.835L103.52 26.3908L107.679 25.036L111.927 24.1338L119.156 21.6952L124.94 19.7984L127.11 18.1727L129.552 15.3737L132.262 12.9351L137.867 15.2814L142.565 17.1781L147.535 18.4406L151.33 19.5245L153.229 21.5999L155.489 22.4128H157.567L161.362 25.1224L165.067 26.9268L173.111 31.1699L183.053 36.4968L192 41.1895L199.683 45.251L210.346 51.5694L219.657 55.2706L227.971 62.0417L234.387 67.9105L242.702 74.6816L251.741 82.8045L258.61 88.581L264.664 93.908L270.991 99.3242L276.867 104.017L282.108 108.62L284.457 110.606H287.981L296.385 107.265L304.881 104.377L310.847 101.849L314.281 102.052L317.739 102.525L320.926 103.136L324.179 103.338L327.229 103.609L331.23 104.285L333.4 105.911L335.57 107.468L336.384 108.823V110.99C336.384 110.99 336.655 113.632 336.384 113.834C336.113 114.037 336.995 115.46 336.995 115.46L338.623 117.357L340.182 118.169H343.912L347.435 118.509H356.111L357.739 119.253L358.621 120.135L359.095 121.692V123.181C359.095 123.181 358.755 124.738 359.095 125.009C359.435 125.28 360.788 126.635 360.788 126.635L361.331 128.463C361.331 128.463 361.465 130.154 361.331 130.36C361.197 130.562 361.874 131.578 361.874 131.578C361.874 131.578 363.23 132.593 363.501 132.593H365.061V134.353L365.737 135.639L367.159 136.383L367.702 137.399L368.584 138.483V140.445L367.771 140.784L367.431 138.956H366.685L366.345 140.784L366.548 142.002H367.633L367.973 143.086L367.431 143.83H368.042C368.042 143.83 368.99 144.033 369.261 144.372C369.532 144.712 370.549 143.967 370.549 143.967L371.634 144.462L372.517 145.525H374.007L376.312 145.864L378.276 146.54L379.633 148.097V149.723L378.75 150.67L378.411 153.109L379.97 153.785L379.564 154.666L379.97 155.613L381.055 155.273L381.46 157.236C381.46 157.236 382.614 157.102 382.817 157.236C383.02 157.37 384.51 157.641 384.51 157.641V157.167L383.628 155.812H384.984L386.203 156.423V157.641L386.815 158.858L387.426 160.213L388.037 161.095L389.799 162.72L392.035 164.007L395.016 164.82L397.523 166.85L398.811 168.812L397.657 169.694L396.709 168.747L396.641 167.8L395.693 167.934L395.895 169.086L396.098 170.17L396.438 171.728L396.369 173.014L397.657 174.774L398.811 176.194H399.965L401.864 178.496V181.881L400.916 183.168C400.916 183.168 401.187 184.049 401.187 184.32C401.187 184.591 400.305 185.404 400.305 185.404L398.203 184.659L398.271 183.373L396.915 182.155L396.51 183.171L397.255 184.254L399.017 186.422L399.151 187.506L399.22 188.861L398.948 190.35C398.948 190.35 398.746 191.365 398.948 191.502C399.151 191.636 400.236 193.804 400.236 194.074C400.236 194.345 401.864 197.46 401.864 197.46C401.864 197.46 403.355 199.899 403.355 200.101C403.355 200.304 404.574 202.334 404.574 202.334L405.93 204.094V202.942H406.813C406.813 202.942 408.101 204.16 408.303 204.094C408.506 204.026 409.32 205.178 409.32 205.38C409.32 205.583 409.997 207.614 409.997 207.614L409.386 208.831L409.997 209.984V213.369L411.216 214.522H411.69L412.638 216.213L413.383 217.77L414.469 218.652L414.808 220.006L415.282 222.174L416.23 222.579L417.45 223.053L418.264 226.236L420.908 228.606L423.755 229.419C423.755 229.419 426.331 228.877 426.602 228.877H428.975L430.397 227.522L431.008 227.048V226.033L432.499 225.965L433.11 227.048L432.705 227.793L431.485 228.064L429.724 229.419L428.707 230.907L428.301 232.465V234.156H429.724L431.351 233.48L433.113 233.82L434.741 235.24V241.198L438.944 246.072L444.502 252.572L449.382 258.191L452.703 262.524L456.906 267.329L459.753 271.054L461.787 273.559H473.786L517.372 273.964H525.168L538.589 295.289L530.388 321.557L521.847 347.963L467.213 365.769L444.844 373.418L440.507 374.976L345.471 408.623L333.948 416.882L330.085 423.99L328.254 425.208L325.002 425.547H321.681L316.8 420.875L314.427 417.49L299.718 417.421L286.228 417.49L278.84 416.948L268.4 414.78H261.284L253.151 414.849L249.219 415.864L245.489 416.067L239.184 414.036L234.304 411.734L232.339 412.208L228.338 417.15C228.338 417.15 228.135 418.571 228.135 418.776C228.135 418.982 227.864 420.875 227.864 420.875L226.848 422.028L226.102 423.99L226.171 427.239L227.593 429.269L227.796 431.098L227.456 432.044L225.828 432.72L224.743 433.873L224.066 435.159L223.661 436.579L222.778 437.866L218.983 441.385L217.829 442.332C217.829 442.332 217.627 440.843 217.627 440.641C217.627 440.438 216.473 438.068 216.473 438.068L216.404 436.308L215.185 434.209L214.982 432.923L214.1 431.705L213.083 431.095L212.269 430.011L211.593 429.266L211.864 425.949L211.321 425.068C211.321 425.068 210.168 424.392 209.965 424.392C209.762 424.392 208.608 423.24 208.608 423.24L207.66 423.171L207.186 422.019V420.866L206.238 420.256L205.764 419.104L205.424 415.855L205.153 414.703L205.222 413.89L205.088 412.943L200.818 409.828L198.648 407.458L194.919 404.752L191.666 402.923L189.022 399.675L187.328 396.155L185.635 393.449L185.092 391.62L184.55 388.235L183.602 386.544L182.856 384.986L181.163 384.444L179.604 382.616L178.385 381.735L178.79 380.314L179.673 379.502C179.673 379.502 179.875 378.757 179.741 378.486C179.607 378.215 178.927 377.334 178.724 377.334C178.522 377.334 177.708 376.929 177.708 376.929L177.234 375.982V373.543L177.776 372.528L177.371 371.513L176.217 370.971L175.335 370.429L175.201 369.211L174.998 368.127L174.864 367.246L174.187 366.433L172.899 364.742L172.628 362.574L172.085 361.49C172.085 361.49 171.409 360.135 171.203 360.001C171 359.867 170.186 358.986 169.983 358.986C169.781 358.986 168.898 358.242 168.898 358.242L168.493 357.226L169.441 356.616L169.509 355.059L168.424 353.841L167.61 353.23C167.61 353.23 166.662 353.028 166.525 353.23C166.391 353.433 165.711 353.772 165.711 353.772L163.881 353.096C163.881 353.096 163.407 351.878 163.407 351.607C163.407 351.336 163.204 350.05 163.204 350.05L162.322 349.035L159.88 347.275L157.17 345.855L155.814 344.908C155.814 344.908 155.34 343.961 155.137 343.69C154.934 343.419 153.104 341.793 153.104 341.793L151.139 340.709C151.139 340.709 149.309 340.099 149.106 340.099C148.903 340.099 146.87 340.031 146.599 340.099C146.327 340.168 145.108 340.504 144.837 340.438C144.565 340.373 143.209 339.763 143.209 339.763L140.905 337.866L138.6 334.617L136.498 331.232L134.396 327.712L131.549 324.529C131.549 324.529 130.262 322.361 130.262 322.159C130.262 321.956 127.888 316.674 127.888 316.674L126.872 314.17L126.669 312.342L127.414 310.514C127.414 310.514 127.754 309.43 127.82 309.227C127.888 309.025 127.686 307.536 127.686 307.536L126.601 306.181L125.989 304.624L126.803 303.406L127.888 302.864C127.888 302.864 128.228 301.983 128.16 301.712C128.091 301.441 127.549 300.899 127.277 300.899C127.006 300.899 125.921 301.78 125.921 301.78L125.176 302.185L124.362 301.643L123.005 297.784L121.92 295.346L122.734 293.991L123.751 294.601L125.512 294.059L126.395 293.112L125.921 292.3L125.176 291.96L125.244 290.54L125.989 289.322L126.601 288.307L127.549 287.223L127.346 284.853L126.872 284.108L126.058 283.432L125.855 282.077L126.127 279.573L124.636 277.34L123.959 276.054L124.502 275.241L123.08 274.767L121.249 272.6L120.233 271.179L120.504 269.759L119.961 268.607L119.622 267.725L120.027 266.573C120.027 266.573 120.367 265.558 120.23 265.287C120.096 265.016 118.808 263.73 118.808 263.73L117.722 262.848L116.637 261.157L115.823 257.908L115.484 255.267V254.252L114.807 253.37L113.653 253.168L113.382 253.778L112.499 254.118L112.297 252.427L111.28 250.056L110.737 247.484L108.162 244.843L106.805 243.488L105.383 243.083L103.621 241.186L102.199 239.56L100.235 239.289L98.8125 238.342C98.8125 238.342 98.407 237.801 98.3385 237.598C98.2699 237.396 98.3385 236.38 98.3385 236.38L98.2043 235.499L97.1877 235.633L97.1191 236.446L96.2367 237.53L94.4062 236.514L93.2525 235.025L91.7619 233.4L90.7453 233.06L90.0685 233.671L89.7287 234.552L87.764 234.686L86.4761 233.468L86.0021 232.25L85.2568 231.098L85.868 229.812C85.868 229.812 85.868 228.999 85.6652 228.93C85.4625 228.862 84.7172 228.591 84.7172 228.591L83.4293 226.358L81.6674 224.19L79.7684 222.43L78.6146 220.941L78.5461 219.316L79.7654 219.113L80.9847 218.64L81.4587 216.406L80.4421 213.902L80.8476 212.616L81.1874 210.993L80.5763 209.364C80.5763 209.364 78.3403 207.807 78.0005 207.673C77.6606 207.539 76.3727 207.334 76.4413 206.792C76.5099 206.25 77.1866 204.83 77.1866 204.83C77.1866 204.83 77.3208 203.883 77.118 203.475C76.9153 203.07 75.696 201.986 75.5589 201.715C75.4247 201.444 73.8655 198.94 73.8655 198.94L72.8489 196.841C72.8489 196.841 72.1722 195.42 71.9009 195.42C71.6296 195.42 69.5278 194.744 69.5278 194.744C69.5278 194.744 67.4261 194.203 67.4261 194C67.4261 193.798 66.2723 191.63 66.2723 191.63V186.958C66.2723 186.958 65.7983 185.74 65.4584 185.74C65.1186 185.74 63.0168 185.401 63.0168 185.401L61.8631 183.843L60.915 181.947L58.2707 177.343C58.2707 177.343 57.4568 174.366 57.4568 174.16C57.4568 173.955 55.8976 170.843 55.8976 170.843L53.3218 168.542L51.5599 167.187L51.1545 164.141L48.9841 162.178L45.7316 159.537L44.6464 157.98L44.5123 153.984L42.8189 151.885L40.7172 150.057L39.9033 147.35L38.8867 146.198L38.684 144.235C38.684 144.235 37.1934 143.288 37.1248 143.018C37.0562 142.747 36.7193 140.918 36.7193 140.918L35.0916 139.09L34.549 137.464L31.1593 134.01L30.8195 133.063L31.2249 132.117L30.1398 131.304L28.1066 130.422L27.09 129.746L23.7689 130.22L22.1411 130.83L21.1931 129.883L20.5819 130.357C20.5819 130.357 19.2255 129.544 18.9542 129.475C18.6829 129.407 17.2608 129.273 17.1923 129.475C17.1237 129.678 17.1923 131.506 17.1923 131.506L16.2442 131.846L15.7702 130.762L15.0249 130.017C15.0249 130.017 15.9073 128.529 16.1101 128.46C16.3128 128.392 16.9925 127.376 16.9925 127.376C16.9925 127.376 17.0611 126.224 17.2638 125.819C17.4665 125.414 18.4175 123.922 18.4831 123.72C18.5517 123.517 18.9572 122.231 18.9572 122.231L19.9738 120.269L20.4478 115.055L20.0423 112.753L19.9738 110.654L20.4478 108.284L20.9904 107.2L21.3958 105.238L21.7357 103.612L22.3468 101.921L22.8894 100.295L23.5661 98.6036L23.7003 96.9779L24.0849 95.3521L24.067 95.361Z" stroke="white" stroke-width="4" stroke-miterlimit="10" mask="url(#path-1-outside-1_1145_1289)"/>
<path d="M426.551 230.183C426.597 230.176 426.623 230.173 426.634 230.171H427.013L427.174 230.011L427.833 229.726L428.085 229.617L428.246 229.396L428.878 228.526L429.141 228.165L429.047 227.728L428.965 227.349L429.973 227.059L430.605 226.878L430.957 226.776L431.161 226.472L431.703 225.659L431.713 225.644L431.722 225.629L432.447 224.456L432.541 224.304L432.576 224.128L432.735 223.341L433.228 222.275L433.272 222.18L433.295 222.078L433.687 220.36L435.304 218.662L435.327 218.638L435.348 218.613L436.252 217.529L436.341 217.422L436.397 217.296L437.121 215.67L437.208 215.475V215.263V212.193V211.874L437.023 211.613L436.203 210.46L435.556 208.694L435.312 207.108V205.967V205.908L435.305 205.849L435.123 204.315L435.113 204.235L435.091 204.156L434.13 204.433C435.091 204.156 435.091 204.156 435.091 204.156L435.091 204.156L435.091 204.155L435.09 204.154L435.089 204.15L435.085 204.136L435.071 204.088C435.058 204.048 435.041 203.991 435.019 203.923C434.975 203.789 434.912 203.603 434.835 203.405C434.759 203.211 434.663 202.985 434.55 202.777C434.481 202.65 434.369 202.456 434.205 202.281C434.188 202.164 434.178 201.999 434.178 201.805C434.178 201.604 434.188 201.406 434.199 201.255C434.204 201.18 434.209 201.119 434.213 201.077L434.217 201.031L434.218 201.02L434.218 201.019L434.218 201.019L434.218 201.019L434.218 201.019L434.218 201.019L434.22 201.004L434.221 200.99L434.291 200.07L435.145 198.75L435.327 198.47L435.303 198.136L435.222 196.98L435.245 196.817C435.339 196.729 435.448 196.623 435.558 196.509C435.704 196.357 435.879 196.159 436.017 195.949C436.086 195.845 436.166 195.706 436.224 195.543C436.277 195.393 436.347 195.123 436.269 194.81C436.27 194.815 436.27 194.815 436.27 194.808C436.268 194.795 436.263 194.752 436.26 194.671C436.257 194.568 436.259 194.448 436.264 194.326C436.269 194.206 436.277 194.094 436.283 194.012C436.286 193.971 436.289 193.939 436.291 193.917L436.293 193.893L436.294 193.887L436.294 193.887L436.294 193.887L436.294 193.887L436.294 193.887L436.294 193.886L436.299 193.838V193.788V191.531V191.132L436.024 190.843L434.396 189.128L434.196 188.916L433.913 188.846L432.467 188.486L432.451 188.482L432.435 188.478L431.529 188.284L431.058 187.671V186.568V186.241L430.865 185.978L430.141 184.986L430.046 184.856L429.914 184.762L428.65 183.86L428.389 183.674H428.069H425.267H424.947L424.686 183.86L423.422 184.762L423.249 184.885L423.141 185.068L422.292 186.509L421.28 187.604L421.18 187.712L421.115 187.845L419.989 190.16L419.984 190.169L419.92 190.28C419.864 190.375 419.784 190.513 419.687 190.678C419.493 191.01 419.231 191.454 418.959 191.906C418.685 192.36 418.406 192.813 418.175 193.166C418.059 193.343 417.962 193.486 417.888 193.586C417.859 193.626 417.838 193.653 417.823 193.671C417.669 193.802 417.566 193.951 417.504 194.05C417.424 194.178 417.358 194.313 417.304 194.437C417.196 194.684 417.104 194.962 417.031 195.205C416.957 195.453 416.896 195.688 416.854 195.86C416.833 195.946 416.816 196.018 416.804 196.069L416.791 196.129L416.787 196.146L416.786 196.151L416.786 196.153L416.786 196.153L416.785 196.153C416.785 196.153 416.785 196.154 417.763 196.364L416.785 196.154L416.525 197.364H417.763H418.734L419.616 197.402L419.679 197.404L419.741 197.399L419.741 197.399L419.741 197.399L419.741 197.399L419.741 197.399L419.743 197.399L419.751 197.398L419.782 197.396C419.809 197.394 419.849 197.391 419.898 197.388C419.898 197.388 419.899 197.388 419.899 197.388C419.899 197.396 419.898 197.404 419.898 197.412L418.802 198.551L418.194 199.038L418.102 198.291H417.218H416.225H414.944L415.255 199.534L415.489 200.469L415.463 200.908H415.143H414.143V201.908V203.081V203.243L414.194 203.397L414.503 204.327V206.217L414.169 207.637L414.143 207.75V207.866V211.928V212.141L414.229 212.335L414.867 213.766V214.908V214.982L414.878 215.055L415.238 217.493L415.283 217.795L415.488 218.02L416.131 218.726V219.872V220.108L416.237 220.32L416.609 221.063L416.453 221.296L415.546 222.142L414.381 223.229L415.866 223.806L416.606 224.093L417.292 226.778L417.367 227.072L417.593 227.275L420.238 229.645L420.409 229.798L420.631 229.862L423.478 230.675L423.716 230.743L423.958 230.692L423.752 229.713L423.958 230.692L423.958 230.692L423.959 230.692L423.96 230.691L423.965 230.69L423.987 230.686L424.068 230.669C424.138 230.654 424.239 230.633 424.362 230.608C424.606 230.557 424.934 230.49 425.27 230.423C425.607 230.355 425.948 230.289 426.219 230.24C426.355 230.215 426.468 230.196 426.551 230.183ZM428.717 226.296L428.78 226.612L428.677 226.479L428.299 225.992L428.394 225.986L428.602 225.725L428.717 226.296ZM417.804 193.694C417.804 193.693 417.806 193.691 417.81 193.687C417.806 193.692 417.804 193.694 417.804 193.694Z" fill="url(#paint1_linear_1145_1289)" stroke="white" stroke-width="2" stroke-miterlimit="10"/>
<path d="M410.173 194.783H410.791L411.067 194.23L412.331 191.702L412.437 191.491V191.255V187.464V187.242L412.343 187.041L411.711 185.687L411.572 185.389L411.284 185.232L410.805 186.109C411.284 185.232 411.284 185.232 411.284 185.232L411.284 185.231L411.283 185.231L411.282 185.231L411.279 185.229L411.268 185.223L411.231 185.203C411.2 185.187 411.155 185.163 411.101 185.136C410.994 185.08 410.845 185.006 410.682 184.93C410.521 184.856 410.331 184.774 410.146 184.709C410.028 184.667 409.839 184.605 409.631 184.579C409.603 184.565 409.566 184.544 409.517 184.515C409.411 184.452 409.314 184.391 409.203 184.32C409.115 184.264 409.017 184.202 408.898 184.129C408.679 183.995 408.39 183.824 408.112 183.719C407.978 183.668 407.766 183.601 407.523 183.601C407.256 183.6 406.854 183.689 406.572 184.064C406.572 184.063 406.571 184.064 406.568 184.067C406.554 184.082 406.489 184.15 406.345 184.275C406.197 184.403 406.017 184.55 405.836 184.692C405.657 184.833 405.485 184.964 405.358 185.06C405.294 185.108 405.242 185.147 405.206 185.173L405.165 185.204L405.154 185.211L405.152 185.213L405.151 185.214L405.151 185.214L405.151 185.214L405.151 185.214L404.606 185.614L404.774 186.269L405.588 189.44L405.668 189.751L405.914 189.958L407.81 191.546L407.844 191.606C407.92 191.738 408.022 191.917 408.13 192.105C408.336 192.463 408.593 192.903 408.703 193.071L408.703 193.071L408.707 193.077C408.707 193.077 408.71 193.082 408.717 193.093C408.724 193.105 408.734 193.121 408.745 193.141C408.767 193.181 408.794 193.232 408.825 193.291C408.886 193.41 408.955 193.549 409.021 193.686C409.086 193.821 409.146 193.95 409.189 194.044C409.211 194.091 409.229 194.13 409.241 194.156L409.255 194.186L409.258 194.194L409.259 194.196L409.259 194.196L409.259 194.196L409.259 194.196L409.526 194.783H410.17H410.173Z" fill="url(#paint2_linear_1145_1289)" stroke="white" stroke-width="2" stroke-miterlimit="10"/>
<mask id="path-4-outside-2_1145_1289" maskUnits="userSpaceOnUse" x="421.724" y="182.701" width="133" height="94" fill="black">
<rect fill="white" x="421.724" y="182.701" width="133" height="94"/>
<path d="M434.736 235.534V241.492L438.939 246.366L444.496 252.866L449.376 258.485L452.698 262.818L456.901 267.623L459.748 271.348L461.781 273.853H473.781L517.366 274.258H525.162L528.483 264.372L531.331 254.894L534.449 246.092L536.121 241.307L536.846 240.361L538.381 239.321L539.738 238.824L540.868 238.642L541.002 237.559L539.738 237.061L538.79 236.88L537.526 236.79C537.526 236.79 536.44 235.799 536.44 235.528C536.44 235.257 536.258 232.55 536.258 232.369C536.258 232.187 536.891 229.885 536.891 229.885L538.02 227.673L539.284 226.455L540.054 225.687L540.414 224.061L541.002 222.528L541.678 221.354L542.942 220.226L544.117 220.723L544.522 221.581V222.304L548.046 219.913L549.266 218.109L550.938 216.26L551.931 215.176V202.989L551.525 200.461L549.898 199.603L549.582 198.746L550.169 190.712L550.124 188.095L549.808 186.695L548.86 185.882L547.686 185.701L546.556 188.318L545.742 191.206L544.612 193.419L542.984 195.315L539.189 197.843L536.703 199.692L534.941 201.408L532.77 201.768L531.73 202.536L531.819 204.34L530.916 205.064L529.56 204.882L528.972 206.237L529.244 206.824L528.43 207.681L526.623 207.229C526.623 207.229 523.642 212.419 523.594 212.556C523.549 212.69 521.153 215.173 521.153 215.173C521.153 215.173 518.893 216.706 518.711 216.706C518.529 216.706 516.588 217.43 516.588 217.43L511.121 222.26V224.561C511.121 224.561 510.623 226.321 510.578 226.458C510.533 226.592 510.125 227.935 510.125 227.935L509.448 227.721C509.448 227.721 508.906 229.12 508.634 229.346C508.363 229.573 507.051 229.165 507.051 229.165L507.278 230.698L507.144 231.961L506.103 232.413L505.605 233.631L504.792 234.578C504.792 234.578 503.48 235.57 503.256 235.662C503.03 235.751 501.855 235.977 501.629 235.977C501.402 235.977 499.413 235.573 499.413 235.573L500.815 235.212V233.813L501.268 233.089L501.673 234.352C501.673 234.352 503.301 234.17 503.346 234.036C503.39 233.902 503.164 232.232 502.985 232.095C502.803 231.961 501.223 231.508 501.223 231.508L499.008 232.592L499.235 233.179L498.963 233.81L497.744 233.854L496.841 234.486L497.383 235.704L498.376 235.93C498.376 235.93 498.963 236.29 498.963 236.427C498.963 236.564 498.647 237.419 498.465 237.556C498.284 237.69 496.93 238.368 496.93 238.368L496.116 238.413L493.54 239.497L489.563 240.67L485.992 240.581L483.055 240.536L480.614 239.274L479.755 238.958C479.755 238.958 477.722 238.776 477.495 238.776C477.269 238.776 475.778 238.505 475.462 238.324C475.146 238.142 473.879 238.279 473.879 238.279L472.839 238.91C472.839 238.91 471.482 238.91 471.303 238.821C471.122 238.732 470.311 238.145 469.857 238.145C469.404 238.145 464.932 238.327 464.751 238.327C464.569 238.327 462.13 238.237 462.13 238.237L460.956 237.38C460.956 237.38 460.052 237.38 459.915 237.469C459.781 237.559 458.514 239.003 458.514 239.003L456.797 240.087L454.31 241.304L453.723 242.028L452.727 242.57L451.281 242.975C451.281 242.975 449.382 242.749 449.204 242.659C449.022 242.57 447.486 242.073 447.486 242.073L445.045 241.939L442.695 242.073L440.844 241.531L439.714 240.762L439.625 239.181L439.669 237.195L439.941 236.022C439.941 236.022 439.851 235.346 439.669 235.299C439.488 235.254 438.677 235.525 438.677 235.525L438.089 236.248L437.231 236.114L436.599 236.341L435.379 236.114L434.724 235.528L434.736 235.534Z"/>
</mask>
<path d="M434.736 235.534V241.492L438.939 246.366L444.496 252.866L449.376 258.485L452.698 262.818L456.901 267.623L459.748 271.348L461.781 273.853H473.781L517.366 274.258H525.162L528.483 264.372L531.331 254.894L534.449 246.092L536.121 241.307L536.846 240.361L538.381 239.321L539.738 238.824L540.868 238.642L541.002 237.559L539.738 237.061L538.79 236.88L537.526 236.79C537.526 236.79 536.44 235.799 536.44 235.528C536.44 235.257 536.258 232.55 536.258 232.369C536.258 232.187 536.891 229.885 536.891 229.885L538.02 227.673L539.284 226.455L540.054 225.687L540.414 224.061L541.002 222.528L541.678 221.354L542.942 220.226L544.117 220.723L544.522 221.581V222.304L548.046 219.913L549.266 218.109L550.938 216.26L551.931 215.176V202.989L551.525 200.461L549.898 199.603L549.582 198.746L550.169 190.712L550.124 188.095L549.808 186.695L548.86 185.882L547.686 185.701L546.556 188.318L545.742 191.206L544.612 193.419L542.984 195.315L539.189 197.843L536.703 199.692L534.941 201.408L532.77 201.768L531.73 202.536L531.819 204.34L530.916 205.064L529.56 204.882L528.972 206.237L529.244 206.824L528.43 207.681L526.623 207.229C526.623 207.229 523.642 212.419 523.594 212.556C523.549 212.69 521.153 215.173 521.153 215.173C521.153 215.173 518.893 216.706 518.711 216.706C518.529 216.706 516.588 217.43 516.588 217.43L511.121 222.26V224.561C511.121 224.561 510.623 226.321 510.578 226.458C510.533 226.592 510.125 227.935 510.125 227.935L509.448 227.721C509.448 227.721 508.906 229.12 508.634 229.346C508.363 229.573 507.051 229.165 507.051 229.165L507.278 230.698L507.144 231.961L506.103 232.413L505.605 233.631L504.792 234.578C504.792 234.578 503.48 235.57 503.256 235.662C503.03 235.751 501.855 235.977 501.629 235.977C501.402 235.977 499.413 235.573 499.413 235.573L500.815 235.212V233.813L501.268 233.089L501.673 234.352C501.673 234.352 503.301 234.17 503.346 234.036C503.39 233.902 503.164 232.232 502.985 232.095C502.803 231.961 501.223 231.508 501.223 231.508L499.008 232.592L499.235 233.179L498.963 233.81L497.744 233.854L496.841 234.486L497.383 235.704L498.376 235.93C498.376 235.93 498.963 236.29 498.963 236.427C498.963 236.564 498.647 237.419 498.465 237.556C498.284 237.69 496.93 238.368 496.93 238.368L496.116 238.413L493.54 239.497L489.563 240.67L485.992 240.581L483.055 240.536L480.614 239.274L479.755 238.958C479.755 238.958 477.722 238.776 477.495 238.776C477.269 238.776 475.778 238.505 475.462 238.324C475.146 238.142 473.879 238.279 473.879 238.279L472.839 238.91C472.839 238.91 471.482 238.91 471.303 238.821C471.122 238.732 470.311 238.145 469.857 238.145C469.404 238.145 464.932 238.327 464.751 238.327C464.569 238.327 462.13 238.237 462.13 238.237L460.956 237.38C460.956 237.38 460.052 237.38 459.915 237.469C459.781 237.559 458.514 239.003 458.514 239.003L456.797 240.087L454.31 241.304L453.723 242.028L452.727 242.57L451.281 242.975C451.281 242.975 449.382 242.749 449.204 242.659C449.022 242.57 447.486 242.073 447.486 242.073L445.045 241.939L442.695 242.073L440.844 241.531L439.714 240.762L439.625 239.181L439.669 237.195L439.941 236.022C439.941 236.022 439.851 235.346 439.669 235.299C439.488 235.254 438.677 235.525 438.677 235.525L438.089 236.248L437.231 236.114L436.599 236.341L435.379 236.114L434.724 235.528L434.736 235.534Z" fill="url(#paint3_linear_1145_1289)"/>
<path d="M434.736 235.534V241.492L438.939 246.366L444.496 252.866L449.376 258.485L452.698 262.818L456.901 267.623L459.748 271.348L461.781 273.853H473.781L517.366 274.258H525.162L528.483 264.372L531.331 254.894L534.449 246.092L536.121 241.307L536.846 240.361L538.381 239.321L539.738 238.824L540.868 238.642L541.002 237.559L539.738 237.061L538.79 236.88L537.526 236.79C537.526 236.79 536.44 235.799 536.44 235.528C536.44 235.257 536.258 232.55 536.258 232.369C536.258 232.187 536.891 229.885 536.891 229.885L538.02 227.673L539.284 226.455L540.054 225.687L540.414 224.061L541.002 222.528L541.678 221.354L542.942 220.226L544.117 220.723L544.522 221.581V222.304L548.046 219.913L549.266 218.109L550.938 216.26L551.931 215.176V202.989L551.525 200.461L549.898 199.603L549.582 198.746L550.169 190.712L550.124 188.095L549.808 186.695L548.86 185.882L547.686 185.701L546.556 188.318L545.742 191.206L544.612 193.419L542.984 195.315L539.189 197.843L536.703 199.692L534.941 201.408L532.77 201.768L531.73 202.536L531.819 204.34L530.916 205.064L529.56 204.882L528.972 206.237L529.244 206.824L528.43 207.681L526.623 207.229C526.623 207.229 523.642 212.419 523.594 212.556C523.549 212.69 521.153 215.173 521.153 215.173C521.153 215.173 518.893 216.706 518.711 216.706C518.529 216.706 516.588 217.43 516.588 217.43L511.121 222.26V224.561C511.121 224.561 510.623 226.321 510.578 226.458C510.533 226.592 510.125 227.935 510.125 227.935L509.448 227.721C509.448 227.721 508.906 229.12 508.634 229.346C508.363 229.573 507.051 229.165 507.051 229.165L507.278 230.698L507.144 231.961L506.103 232.413L505.605 233.631L504.792 234.578C504.792 234.578 503.48 235.57 503.256 235.662C503.03 235.751 501.855 235.977 501.629 235.977C501.402 235.977 499.413 235.573 499.413 235.573L500.815 235.212V233.813L501.268 233.089L501.673 234.352C501.673 234.352 503.301 234.17 503.346 234.036C503.39 233.902 503.164 232.232 502.985 232.095C502.803 231.961 501.223 231.508 501.223 231.508L499.008 232.592L499.235 233.179L498.963 233.81L497.744 233.854L496.841 234.486L497.383 235.704L498.376 235.93C498.376 235.93 498.963 236.29 498.963 236.427C498.963 236.564 498.647 237.419 498.465 237.556C498.284 237.69 496.93 238.368 496.93 238.368L496.116 238.413L493.54 239.497L489.563 240.67L485.992 240.581L483.055 240.536L480.614 239.274L479.755 238.958C479.755 238.958 477.722 238.776 477.495 238.776C477.269 238.776 475.778 238.505 475.462 238.324C475.146 238.142 473.879 238.279 473.879 238.279L472.839 238.91C472.839 238.91 471.482 238.91 471.303 238.821C471.122 238.732 470.311 238.145 469.857 238.145C469.404 238.145 464.932 238.327 464.751 238.327C464.569 238.327 462.13 238.237 462.13 238.237L460.956 237.38C460.956 237.38 460.052 237.38 459.915 237.469C459.781 237.559 458.514 239.003 458.514 239.003L456.797 240.087L454.31 241.304L453.723 242.028L452.727 242.57L451.281 242.975C451.281 242.975 449.382 242.749 449.204 242.659C449.022 242.57 447.486 242.073 447.486 242.073L445.045 241.939L442.695 242.073L440.844 241.531L439.714 240.762L439.625 239.181L439.669 237.195L439.941 236.022C439.941 236.022 439.851 235.346 439.669 235.299C439.488 235.254 438.677 235.525 438.677 235.525L438.089 236.248L437.231 236.114L436.599 236.341L435.379 236.114L434.724 235.528L434.736 235.534Z" stroke="white" stroke-width="4" stroke-miterlimit="10" mask="url(#path-4-outside-2_1145_1289)"/>
<mask id="path-5-outside-3_1145_1289" maskUnits="userSpaceOnUse" x="210.212" y="371.469" width="265" height="168" fill="black">
<rect fill="white" x="210.212" y="371.469" width="265" height="168"/>
<path d="M217.821 442.638L218.975 441.692L222.77 438.172L223.652 436.886L224.058 435.465L224.734 434.179L225.82 433.027L227.447 432.351L227.787 431.404L227.584 429.576L226.162 427.545L226.094 424.296L226.839 422.334L227.856 421.182C227.856 421.182 228.127 419.285 228.127 419.083C228.127 418.88 228.33 417.457 228.33 417.457L232.331 412.514L234.295 412.041L239.175 414.342L245.481 416.373L249.21 416.171L253.143 415.155L261.275 415.087H268.392L278.832 417.254L286.219 417.796L299.709 417.728L314.419 417.796L316.792 421.182L321.672 425.854H324.993L328.246 425.514L330.076 424.296L333.94 417.189L345.462 408.929L440.498 375.282L442.94 374.469L453.446 395.661L463.817 415.7L462.732 418.002L462.801 419.017C462.801 419.017 463.412 419.628 463.817 419.628C464.223 419.628 465.716 419.899 465.716 419.899L466.191 420.78L466.53 422.608L467.276 425.112L468.835 427.482L471.139 430.936L472.427 434.254L467.207 435.674C467.207 435.674 463.478 436.96 463.412 437.163C463.343 437.365 462.53 438.854 462.53 438.854L459.343 439.259L455.276 441.629L453.243 444.473L451.684 448.263L451.413 450.294L450.193 451.58V453.477L451.141 456.591L450.667 458.893L450.736 460.519L449.379 461.195L446.464 462.076L443.211 463.363L442.263 465.393H440.433L438.331 465.867L437.112 467.558V469.047C437.112 469.047 435.552 469.181 435.281 469.047C435.01 468.913 432.163 469.106 432.163 469.106C432.163 469.106 431.417 469.925 431.146 470.131C430.875 470.336 428.639 470.741 428.639 470.741L422.268 472.772L418.676 473.856L415.355 474.6L412.913 475.413C412.913 475.413 410.406 474.802 410.066 474.802C409.726 474.802 407.49 475.818 407.49 475.818L405.388 477.917C405.388 477.917 405.522 478.864 404.234 478.932C402.947 479.001 400.439 479.066 400.1 479.066C399.76 479.066 398.812 479.811 398.677 480.013C398.543 480.216 398.677 480.895 397.795 481.029C396.913 481.163 395.017 480.96 395.017 480.96L392.643 480.35L389.931 482.312L388.303 482.854H387.557C387.557 482.854 386.609 483.667 386.404 483.735C386.201 483.804 383.423 484.209 383.423 484.209L382.066 485.495L379.559 485.09L377.931 486.647C377.931 486.647 377.32 486.987 377.117 487.121C376.914 487.255 376.101 487.594 376.101 487.594L375.355 488.747H374.136L372.305 489.559L371.56 490.98L371.426 492.606L370.952 493.892L368.716 495.789L366.343 497.888L365.124 499.445L362.208 501.476H359.498L358.55 502.018L356.448 501.613L353.804 502.018L352.176 502.491L350.277 501.544L347.567 500.663L345.126 501.544C345.126 501.544 343.295 502.965 343.161 503.236C343.027 503.507 341.196 504.319 341.196 504.319H339.297C339.297 504.319 338.009 505.877 337.807 506.079C337.604 506.282 334.62 509.194 334.62 509.194L332.992 510.412L330.282 511.293L327.572 512.174L322.963 512.648L319.234 514.003L316.726 515.831L312.66 516.17L305.067 517.117H298.559C298.559 517.117 293.95 517.049 293.747 517.117C293.544 517.186 290.426 518.335 290.223 518.472C290.02 518.606 286.291 520.029 286.291 520.029L285.206 521.992L283.849 523.954L282.967 525.172L281.476 525.916C281.476 525.916 279.783 525.782 279.577 525.916C279.371 526.05 278.087 526.526 278.087 526.526L276.459 528.015L274.831 529.912L274.357 531.943L273.409 533.973L272.798 534.584C272.798 534.584 271.036 534.179 270.899 533.973C270.765 533.771 268.866 533.431 268.866 533.431L267.983 532.821L265.95 532.619C265.95 532.619 265.205 531.943 265.002 531.943C264.799 531.943 263.443 531.874 263.443 531.874C263.443 531.874 261.884 531.806 261.544 532.077C261.204 532.348 260.053 533.229 260.053 533.229L259.036 534.584L257.546 535.465L254.97 537.091H248.936L246.903 536.415C246.903 536.415 245.684 536.01 245.412 536.01H243.379C243.379 536.01 241.751 536.01 241.549 536.079C241.346 536.147 239.855 536.213 239.584 536.213C239.313 536.213 236.871 535.602 236.871 535.602H235.312L234.566 534.655L234.972 533.098L235.377 532.083L234.564 530.323L233.681 528.155C233.681 528.155 233.138 526.8 232.936 526.666C232.733 526.532 230.971 525.041 230.971 525.041L230.294 523.686L229.141 521.995L229.343 520.506L228.869 518.475L229.955 514.887L230.226 510.418L228.938 505.948L227.516 502.7L225.685 499.383L224.263 496.2L223.381 492.882L222.498 490.31L223.855 490.176L223.989 487.874L222.361 484.149L222.021 481.237L221.005 478.259L220.057 475.821L219.923 473.588L219.583 472.435L217.821 471.488H214.974L214.16 471.622L213.212 470.741L213.552 468.913L213.62 466.951L214.026 465.393L214.5 465.596L215.111 467.829L215.585 469.386L217.007 469.86L218.092 470.673C218.092 470.673 218.498 470.131 218.566 469.86C218.635 469.589 218.161 467.558 218.161 467.558C218.161 467.558 217.687 466.543 217.687 466.34C217.687 466.138 217.618 463.634 217.618 463.634L216.196 462.279L216.33 459.569L215.788 458.214L216.464 457.267L217.007 455.779H218.024C218.024 455.779 218.769 454.358 218.769 454.153V451.851L219.04 449.618V447.656L218.635 446.503L218.229 444.133L217.824 442.644L217.821 442.638Z"/>
</mask>
<path d="M217.821 442.638L218.975 441.692L222.77 438.172L223.652 436.886L224.058 435.465L224.734 434.179L225.82 433.027L227.447 432.351L227.787 431.404L227.584 429.576L226.162 427.545L226.094 424.296L226.839 422.334L227.856 421.182C227.856 421.182 228.127 419.285 228.127 419.083C228.127 418.88 228.33 417.457 228.33 417.457L232.331 412.514L234.295 412.041L239.175 414.342L245.481 416.373L249.21 416.171L253.143 415.155L261.275 415.087H268.392L278.832 417.254L286.219 417.796L299.709 417.728L314.419 417.796L316.792 421.182L321.672 425.854H324.993L328.246 425.514L330.076 424.296L333.94 417.189L345.462 408.929L440.498 375.282L442.94 374.469L453.446 395.661L463.817 415.7L462.732 418.002L462.801 419.017C462.801 419.017 463.412 419.628 463.817 419.628C464.223 419.628 465.716 419.899 465.716 419.899L466.191 420.78L466.53 422.608L467.276 425.112L468.835 427.482L471.139 430.936L472.427 434.254L467.207 435.674C467.207 435.674 463.478 436.96 463.412 437.163C463.343 437.365 462.53 438.854 462.53 438.854L459.343 439.259L455.276 441.629L453.243 444.473L451.684 448.263L451.413 450.294L450.193 451.58V453.477L451.141 456.591L450.667 458.893L450.736 460.519L449.379 461.195L446.464 462.076L443.211 463.363L442.263 465.393H440.433L438.331 465.867L437.112 467.558V469.047C437.112 469.047 435.552 469.181 435.281 469.047C435.01 468.913 432.163 469.106 432.163 469.106C432.163 469.106 431.417 469.925 431.146 470.131C430.875 470.336 428.639 470.741 428.639 470.741L422.268 472.772L418.676 473.856L415.355 474.6L412.913 475.413C412.913 475.413 410.406 474.802 410.066 474.802C409.726 474.802 407.49 475.818 407.49 475.818L405.388 477.917C405.388 477.917 405.522 478.864 404.234 478.932C402.947 479.001 400.439 479.066 400.1 479.066C399.76 479.066 398.812 479.811 398.677 480.013C398.543 480.216 398.677 480.895 397.795 481.029C396.913 481.163 395.017 480.96 395.017 480.96L392.643 480.35L389.931 482.312L388.303 482.854H387.557C387.557 482.854 386.609 483.667 386.404 483.735C386.201 483.804 383.423 484.209 383.423 484.209L382.066 485.495L379.559 485.09L377.931 486.647C377.931 486.647 377.32 486.987 377.117 487.121C376.914 487.255 376.101 487.594 376.101 487.594L375.355 488.747H374.136L372.305 489.559L371.56 490.98L371.426 492.606L370.952 493.892L368.716 495.789L366.343 497.888L365.124 499.445L362.208 501.476H359.498L358.55 502.018L356.448 501.613L353.804 502.018L352.176 502.491L350.277 501.544L347.567 500.663L345.126 501.544C345.126 501.544 343.295 502.965 343.161 503.236C343.027 503.507 341.196 504.319 341.196 504.319H339.297C339.297 504.319 338.009 505.877 337.807 506.079C337.604 506.282 334.62 509.194 334.62 509.194L332.992 510.412L330.282 511.293L327.572 512.174L322.963 512.648L319.234 514.003L316.726 515.831L312.66 516.17L305.067 517.117H298.559C298.559 517.117 293.95 517.049 293.747 517.117C293.544 517.186 290.426 518.335 290.223 518.472C290.02 518.606 286.291 520.029 286.291 520.029L285.206 521.992L283.849 523.954L282.967 525.172L281.476 525.916C281.476 525.916 279.783 525.782 279.577 525.916C279.371 526.05 278.087 526.526 278.087 526.526L276.459 528.015L274.831 529.912L274.357 531.943L273.409 533.973L272.798 534.584C272.798 534.584 271.036 534.179 270.899 533.973C270.765 533.771 268.866 533.431 268.866 533.431L267.983 532.821L265.95 532.619C265.95 532.619 265.205 531.943 265.002 531.943C264.799 531.943 263.443 531.874 263.443 531.874C263.443 531.874 261.884 531.806 261.544 532.077C261.204 532.348 260.053 533.229 260.053 533.229L259.036 534.584L257.546 535.465L254.97 537.091H248.936L246.903 536.415C246.903 536.415 245.684 536.01 245.412 536.01H243.379C243.379 536.01 241.751 536.01 241.549 536.079C241.346 536.147 239.855 536.213 239.584 536.213C239.313 536.213 236.871 535.602 236.871 535.602H235.312L234.566 534.655L234.972 533.098L235.377 532.083L234.564 530.323L233.681 528.155C233.681 528.155 233.138 526.8 232.936 526.666C232.733 526.532 230.971 525.041 230.971 525.041L230.294 523.686L229.141 521.995L229.343 520.506L228.869 518.475L229.955 514.887L230.226 510.418L228.938 505.948L227.516 502.7L225.685 499.383L224.263 496.2L223.381 492.882L222.498 490.31L223.855 490.176L223.989 487.874L222.361 484.149L222.021 481.237L221.005 478.259L220.057 475.821L219.923 473.588L219.583 472.435L217.821 471.488H214.974L214.16 471.622L213.212 470.741L213.552 468.913L213.62 466.951L214.026 465.393L214.5 465.596L215.111 467.829L215.585 469.386L217.007 469.86L218.092 470.673C218.092 470.673 218.498 470.131 218.566 469.86C218.635 469.589 218.161 467.558 218.161 467.558C218.161 467.558 217.687 466.543 217.687 466.34C217.687 466.138 217.618 463.634 217.618 463.634L216.196 462.279L216.33 459.569L215.788 458.214L216.464 457.267L217.007 455.779H218.024C218.024 455.779 218.769 454.358 218.769 454.153V451.851L219.04 449.618V447.656L218.635 446.503L218.229 444.133L217.824 442.644L217.821 442.638Z" fill="url(#paint4_linear_1145_1289)"/>
<path d="M217.821 442.638L218.975 441.692L222.77 438.172L223.652 436.886L224.058 435.465L224.734 434.179L225.82 433.027L227.447 432.351L227.787 431.404L227.584 429.576L226.162 427.545L226.094 424.296L226.839 422.334L227.856 421.182C227.856 421.182 228.127 419.285 228.127 419.083C228.127 418.88 228.33 417.457 228.33 417.457L232.331 412.514L234.295 412.041L239.175 414.342L245.481 416.373L249.21 416.171L253.143 415.155L261.275 415.087H268.392L278.832 417.254L286.219 417.796L299.709 417.728L314.419 417.796L316.792 421.182L321.672 425.854H324.993L328.246 425.514L330.076 424.296L333.94 417.189L345.462 408.929L440.498 375.282L442.94 374.469L453.446 395.661L463.817 415.7L462.732 418.002L462.801 419.017C462.801 419.017 463.412 419.628 463.817 419.628C464.223 419.628 465.716 419.899 465.716 419.899L466.191 420.78L466.53 422.608L467.276 425.112L468.835 427.482L471.139 430.936L472.427 434.254L467.207 435.674C467.207 435.674 463.478 436.96 463.412 437.163C463.343 437.365 462.53 438.854 462.53 438.854L459.343 439.259L455.276 441.629L453.243 444.473L451.684 448.263L451.413 450.294L450.193 451.58V453.477L451.141 456.591L450.667 458.893L450.736 460.519L449.379 461.195L446.464 462.076L443.211 463.363L442.263 465.393H440.433L438.331 465.867L437.112 467.558V469.047C437.112 469.047 435.552 469.181 435.281 469.047C435.01 468.913 432.163 469.106 432.163 469.106C432.163 469.106 431.417 469.925 431.146 470.131C430.875 470.336 428.639 470.741 428.639 470.741L422.268 472.772L418.676 473.856L415.355 474.6L412.913 475.413C412.913 475.413 410.406 474.802 410.066 474.802C409.726 474.802 407.49 475.818 407.49 475.818L405.388 477.917C405.388 477.917 405.522 478.864 404.234 478.932C402.947 479.001 400.439 479.066 400.1 479.066C399.76 479.066 398.812 479.811 398.677 480.013C398.543 480.216 398.677 480.895 397.795 481.029C396.913 481.163 395.017 480.96 395.017 480.96L392.643 480.35L389.931 482.312L388.303 482.854H387.557C387.557 482.854 386.609 483.667 386.404 483.735C386.201 483.804 383.423 484.209 383.423 484.209L382.066 485.495L379.559 485.09L377.931 486.647C377.931 486.647 377.32 486.987 377.117 487.121C376.914 487.255 376.101 487.594 376.101 487.594L375.355 488.747H374.136L372.305 489.559L371.56 490.98L371.426 492.606L370.952 493.892L368.716 495.789L366.343 497.888L365.124 499.445L362.208 501.476H359.498L358.55 502.018L356.448 501.613L353.804 502.018L352.176 502.491L350.277 501.544L347.567 500.663L345.126 501.544C345.126 501.544 343.295 502.965 343.161 503.236C343.027 503.507 341.196 504.319 341.196 504.319H339.297C339.297 504.319 338.009 505.877 337.807 506.079C337.604 506.282 334.62 509.194 334.62 509.194L332.992 510.412L330.282 511.293L327.572 512.174L322.963 512.648L319.234 514.003L316.726 515.831L312.66 516.17L305.067 517.117H298.559C298.559 517.117 293.95 517.049 293.747 517.117C293.544 517.186 290.426 518.335 290.223 518.472C290.02 518.606 286.291 520.029 286.291 520.029L285.206 521.992L283.849 523.954L282.967 525.172L281.476 525.916C281.476 525.916 279.783 525.782 279.577 525.916C279.371 526.05 278.087 526.526 278.087 526.526L276.459 528.015L274.831 529.912L274.357 531.943L273.409 533.973L272.798 534.584C272.798 534.584 271.036 534.179 270.899 533.973C270.765 533.771 268.866 533.431 268.866 533.431L267.983 532.821L265.95 532.619C265.95 532.619 265.205 531.943 265.002 531.943C264.799 531.943 263.443 531.874 263.443 531.874C263.443 531.874 261.884 531.806 261.544 532.077C261.204 532.348 260.053 533.229 260.053 533.229L259.036 534.584L257.546 535.465L254.97 537.091H248.936L246.903 536.415C246.903 536.415 245.684 536.01 245.412 536.01H243.379C243.379 536.01 241.751 536.01 241.549 536.079C241.346 536.147 239.855 536.213 239.584 536.213C239.313 536.213 236.871 535.602 236.871 535.602H235.312L234.566 534.655L234.972 533.098L235.377 532.083L234.564 530.323L233.681 528.155C233.681 528.155 233.138 526.8 232.936 526.666C232.733 526.532 230.971 525.041 230.971 525.041L230.294 523.686L229.141 521.995L229.343 520.506L228.869 518.475L229.955 514.887L230.226 510.418L228.938 505.948L227.516 502.7L225.685 499.383L224.263 496.2L223.381 492.882L222.498 490.31L223.855 490.176L223.989 487.874L222.361 484.149L222.021 481.237L221.005 478.259L220.057 475.821L219.923 473.588L219.583 472.435L217.821 471.488H214.974L214.16 471.622L213.212 470.741L213.552 468.913L213.62 466.951L214.026 465.393L214.5 465.596L215.111 467.829L215.585 469.386L217.007 469.86L218.092 470.673C218.092 470.673 218.498 470.131 218.566 469.86C218.635 469.589 218.161 467.558 218.161 467.558C218.161 467.558 217.687 466.543 217.687 466.34C217.687 466.138 217.618 463.634 217.618 463.634L216.196 462.279L216.33 459.569L215.788 458.214L216.464 457.267L217.007 455.779H218.024C218.024 455.779 218.769 454.358 218.769 454.153V451.851L219.04 449.618V447.656L218.635 446.503L218.229 444.133L217.824 442.644L217.821 442.638Z" stroke="white" stroke-width="4" stroke-miterlimit="10" mask="url(#path-5-outside-3_1145_1289)"/>
<mask id="path-6-outside-4_1145_1289" maskUnits="userSpaceOnUse" x="439.937" y="211.173" width="203" height="226" fill="black">
<rect fill="white" x="439.937" y="211.173" width="203" height="226"/>
<path d="M472.424 434.241L471.136 430.924L468.832 427.47L467.273 425.1L466.528 422.596L466.188 420.768L465.714 419.886C465.714 419.886 464.223 419.615 463.815 419.615C463.406 419.615 462.798 419.005 462.798 419.005L462.729 417.99L463.815 415.688L453.443 395.649L442.937 374.457L445.969 373.323L467.204 366.06L521.838 348.254L530.38 321.849L538.581 295.58L525.159 274.255L528.481 264.369L531.328 254.892L534.446 246.09L536.118 241.305L536.843 240.358L538.378 239.319L539.735 238.821L540.865 238.64L540.999 237.556L539.735 237.059L538.787 236.877L537.523 236.788C537.523 236.788 536.437 235.796 536.437 235.525C536.437 235.254 536.256 232.548 536.256 232.366C536.256 232.184 536.888 229.883 536.888 229.883L538.017 227.67L539.282 226.452L540.051 225.684L540.411 224.059L540.999 222.525L541.675 221.352L542.94 220.223L544.114 220.721L544.52 221.578V222.302L548.043 219.911L549.263 218.106L550.935 216.257L551.928 215.173L552.295 216.099L553.896 218.47V219.485L554.301 220.095L555.046 220.908L555.657 221.924V222.939L557.217 225.917L559.116 228.623L561.286 230.585L563.185 233.361L565.287 235.46L566.575 237.898C566.575 237.898 567.863 239.387 567.931 239.59C568 239.792 569.085 240.266 569.085 240.266L570.713 241.078L571.798 242.296L573.288 243.449L575.796 244.666L580.745 246.766C580.745 246.766 584.406 248.323 584.608 248.525C584.811 248.728 586.439 249.407 586.641 249.407C586.844 249.407 588.063 248.865 588.063 248.865L589.012 249.541L591.113 250.083L593.146 250.285L595.248 250.354L596.876 250.625L598.638 251.438C598.638 251.438 599.452 252.113 599.655 252.319C599.857 252.521 601.282 253.063 601.756 253.132C602.23 253.2 604.332 253.334 604.332 253.334L606.094 253.403L608.467 255.163L610.095 255.838L612.739 257.735L614.501 259.224C614.501 259.224 615.246 259.968 615.449 260.308C615.652 260.647 616.94 262.407 616.94 262.407L617.956 263.964L619.65 266.334L621.751 269.788L623.716 271.548L624.664 273.647L626.563 275.815L628.596 278.117L630.224 279.743C630.224 279.743 631.443 280.353 631.646 280.487C631.849 280.621 633.679 280.96 633.679 280.96L635.373 281.163L636.255 282.449V281.839L637.746 281.907C637.746 281.907 638.56 282.991 638.762 283.262C638.965 283.533 639.645 284.751 639.645 284.751L638.831 285.835V287.324L638.9 288.949L637.814 290.575L636.595 291.456L635.441 292.945L635.101 295.923L634.085 297.82L631.983 300.732L630.627 303.575L628.999 306.69L627.845 308.992L626.829 310.346L625.135 312.038L620.186 315.763L618.287 317.591L616.254 319.488L614.695 320.842L614.018 322.805L613.273 324.972L612.256 326.461C612.256 326.461 610.563 326.595 610.426 326.801C610.292 327.003 609.883 328.155 609.883 328.492C609.883 328.828 611.576 329.507 611.576 329.507L610.154 330.32L608.595 331.336L607.647 333.095C607.647 333.095 607.173 335.465 607.242 335.668C607.31 335.87 607.376 337.565 607.444 337.767C607.513 337.97 607.31 338.782 607.105 338.851C606.899 338.919 605.411 338.851 605.411 338.851L604.123 339.866L602.496 339.935L601.005 340.069L600.057 339.729L599.243 338.714L598.838 337.833L598.769 336.68L599.109 336.478L599.38 335.733L599.178 334.718C599.178 334.718 598.975 333.974 598.704 333.771C598.432 333.569 597.144 333.161 597.144 333.161L595.925 333.905C595.925 333.905 595.382 335.192 595.382 335.394C595.382 335.596 595.517 337.222 595.517 337.222L594.363 338.035L593.209 339.253L593.075 340.268L592.398 340.944L590.499 341.891L589.822 342.772L589.348 343.788C589.348 343.788 589.417 345.143 589.62 345.414C589.822 345.685 589.96 346.631 589.96 346.631L589.077 347.986L589.146 349.475L588.603 350.288L588.198 351.708L588.063 352.995L587.181 353.876L586.096 355.231L585.893 356.178L586.233 357.193L586.638 357.937V358.953L586.299 359.766L586.57 360.918L587.315 362.204L587.789 364.033L587.518 365.453L587.586 367.079L587.789 368.636L588.737 370.193C588.737 370.193 589.414 370.396 589.483 370.667C589.551 370.938 590.025 372.766 590.025 372.766C590.025 372.766 589.754 373.918 589.685 374.121C589.617 374.323 588.94 375.273 588.94 375.273L584.534 376.131H579.179L574.162 377.101L570.909 377.235L567.249 378.522L564.673 380.621L562.437 382.583L561.352 384.48L561.08 386.24L560.878 389.152C560.878 389.152 560.675 390.709 560.606 390.911C560.538 391.114 560.538 392.332 560.538 392.332L559.453 393.957L559.384 395.378C559.384 395.378 558.707 396.53 558.639 396.733C558.57 396.935 556.877 398.221 556.877 398.221L555.994 399.237C555.994 399.237 555.52 400.523 555.383 400.794C555.249 401.065 554.298 401.809 554.298 401.809L552.536 402.08L550.571 401.538L548.81 401.741C548.81 401.741 547.996 402.417 547.656 402.417C547.316 402.417 543.995 402.485 543.724 402.348C543.452 402.214 542.03 402.077 541.825 402.077C541.619 402.077 538.435 402.619 538.435 402.619L535.791 402.551L534.163 403.635L531.992 404.177L530.57 405.531C530.57 405.531 530.096 407.36 530.096 407.631C530.096 407.902 529.691 408.646 529.691 408.646C529.691 408.646 527.998 408.985 527.792 409.119C527.589 409.253 526.775 410.066 526.775 410.066L526.099 411.692V413.452L527.115 414.467C527.115 414.467 527.726 415.551 527.86 416.024C527.995 416.498 527.521 417.921 527.521 417.921L525.893 419.681L525.824 421.101L524.605 421.643L523.183 422.659L521.895 424.96L520.473 426.518H518.031L516.067 426.788L515.321 427.533L513.628 426.788L512.68 425.907L511.595 424.96L499.056 425.3L496.614 426.181L495.395 426.925L494.921 428.009L493.701 428.483L491.328 428.349L489.092 429.364L487.465 430.448C487.465 430.448 487.059 430.921 486.788 431.124C486.517 431.326 485.634 431.8 485.634 431.8C485.634 431.8 483.601 432.139 483.398 432.139C483.196 432.139 480.957 432.005 480.957 432.005C480.957 432.005 479.871 431.871 479.466 432.005C479.061 432.139 478.11 432.479 477.838 432.616C477.567 432.75 476.008 433.226 476.008 433.226L473.635 434.241H472.415H472.424Z"/>
</mask>
<path d="M472.424 434.241L471.136 430.924L468.832 427.47L467.273 425.1L466.528 422.596L466.188 420.768L465.714 419.886C465.714 419.886 464.223 419.615 463.815 419.615C463.406 419.615 462.798 419.005 462.798 419.005L462.729 417.99L463.815 415.688L453.443 395.649L442.937 374.457L445.969 373.323L467.204 366.06L521.838 348.254L530.38 321.849L538.581 295.58L525.159 274.255L528.481 264.369L531.328 254.892L534.446 246.09L536.118 241.305L536.843 240.358L538.378 239.319L539.735 238.821L540.865 238.64L540.999 237.556L539.735 237.059L538.787 236.877L537.523 236.788C537.523 236.788 536.437 235.796 536.437 235.525C536.437 235.254 536.256 232.548 536.256 232.366C536.256 232.184 536.888 229.883 536.888 229.883L538.017 227.67L539.282 226.452L540.051 225.684L540.411 224.059L540.999 222.525L541.675 221.352L542.94 220.223L544.114 220.721L544.52 221.578V222.302L548.043 219.911L549.263 218.106L550.935 216.257L551.928 215.173L552.295 216.099L553.896 218.47V219.485L554.301 220.095L555.046 220.908L555.657 221.924V222.939L557.217 225.917L559.116 228.623L561.286 230.585L563.185 233.361L565.287 235.46L566.575 237.898C566.575 237.898 567.863 239.387 567.931 239.59C568 239.792 569.085 240.266 569.085 240.266L570.713 241.078L571.798 242.296L573.288 243.449L575.796 244.666L580.745 246.766C580.745 246.766 584.406 248.323 584.608 248.525C584.811 248.728 586.439 249.407 586.641 249.407C586.844 249.407 588.063 248.865 588.063 248.865L589.012 249.541L591.113 250.083L593.146 250.285L595.248 250.354L596.876 250.625L598.638 251.438C598.638 251.438 599.452 252.113 599.655 252.319C599.857 252.521 601.282 253.063 601.756 253.132C602.23 253.2 604.332 253.334 604.332 253.334L606.094 253.403L608.467 255.163L610.095 255.838L612.739 257.735L614.501 259.224C614.501 259.224 615.246 259.968 615.449 260.308C615.652 260.647 616.94 262.407 616.94 262.407L617.956 263.964L619.65 266.334L621.751 269.788L623.716 271.548L624.664 273.647L626.563 275.815L628.596 278.117L630.224 279.743C630.224 279.743 631.443 280.353 631.646 280.487C631.849 280.621 633.679 280.96 633.679 280.96L635.373 281.163L636.255 282.449V281.839L637.746 281.907C637.746 281.907 638.56 282.991 638.762 283.262C638.965 283.533 639.645 284.751 639.645 284.751L638.831 285.835V287.324L638.9 288.949L637.814 290.575L636.595 291.456L635.441 292.945L635.101 295.923L634.085 297.82L631.983 300.732L630.627 303.575L628.999 306.69L627.845 308.992L626.829 310.346L625.135 312.038L620.186 315.763L618.287 317.591L616.254 319.488L614.695 320.842L614.018 322.805L613.273 324.972L612.256 326.461C612.256 326.461 610.563 326.595 610.426 326.801C610.292 327.003 609.883 328.155 609.883 328.492C609.883 328.828 611.576 329.507 611.576 329.507L610.154 330.32L608.595 331.336L607.647 333.095C607.647 333.095 607.173 335.465 607.242 335.668C607.31 335.87 607.376 337.565 607.444 337.767C607.513 337.97 607.31 338.782 607.105 338.851C606.899 338.919 605.411 338.851 605.411 338.851L604.123 339.866L602.496 339.935L601.005 340.069L600.057 339.729L599.243 338.714L598.838 337.833L598.769 336.68L599.109 336.478L599.38 335.733L599.178 334.718C599.178 334.718 598.975 333.974 598.704 333.771C598.432 333.569 597.144 333.161 597.144 333.161L595.925 333.905C595.925 333.905 595.382 335.192 595.382 335.394C595.382 335.596 595.517 337.222 595.517 337.222L594.363 338.035L593.209 339.253L593.075 340.268L592.398 340.944L590.499 341.891L589.822 342.772L589.348 343.788C589.348 343.788 589.417 345.143 589.62 345.414C589.822 345.685 589.96 346.631 589.96 346.631L589.077 347.986L589.146 349.475L588.603 350.288L588.198 351.708L588.063 352.995L587.181 353.876L586.096 355.231L585.893 356.178L586.233 357.193L586.638 357.937V358.953L586.299 359.766L586.57 360.918L587.315 362.204L587.789 364.033L587.518 365.453L587.586 367.079L587.789 368.636L588.737 370.193C588.737 370.193 589.414 370.396 589.483 370.667C589.551 370.938 590.025 372.766 590.025 372.766C590.025 372.766 589.754 373.918 589.685 374.121C589.617 374.323 588.94 375.273 588.94 375.273L584.534 376.131H579.179L574.162 377.101L570.909 377.235L567.249 378.522L564.673 380.621L562.437 382.583L561.352 384.48L561.08 386.24L560.878 389.152C560.878 389.152 560.675 390.709 560.606 390.911C560.538 391.114 560.538 392.332 560.538 392.332L559.453 393.957L559.384 395.378C559.384 395.378 558.707 396.53 558.639 396.733C558.57 396.935 556.877 398.221 556.877 398.221L555.994 399.237C555.994 399.237 555.52 400.523 555.383 400.794C555.249 401.065 554.298 401.809 554.298 401.809L552.536 402.08L550.571 401.538L548.81 401.741C548.81 401.741 547.996 402.417 547.656 402.417C547.316 402.417 543.995 402.485 543.724 402.348C543.452 402.214 542.03 402.077 541.825 402.077C541.619 402.077 538.435 402.619 538.435 402.619L535.791 402.551L534.163 403.635L531.992 404.177L530.57 405.531C530.57 405.531 530.096 407.36 530.096 407.631C530.096 407.902 529.691 408.646 529.691 408.646C529.691 408.646 527.998 408.985 527.792 409.119C527.589 409.253 526.775 410.066 526.775 410.066L526.099 411.692V413.452L527.115 414.467C527.115 414.467 527.726 415.551 527.86 416.024C527.995 416.498 527.521 417.921 527.521 417.921L525.893 419.681L525.824 421.101L524.605 421.643L523.183 422.659L521.895 424.96L520.473 426.518H518.031L516.067 426.788L515.321 427.533L513.628 426.788L512.68 425.907L511.595 424.96L499.056 425.3L496.614 426.181L495.395 426.925L494.921 428.009L493.701 428.483L491.328 428.349L489.092 429.364L487.465 430.448C487.465 430.448 487.059 430.921 486.788 431.124C486.517 431.326 485.634 431.8 485.634 431.8C485.634 431.8 483.601 432.139 483.398 432.139C483.196 432.139 480.957 432.005 480.957 432.005C480.957 432.005 479.871 431.871 479.466 432.005C479.061 432.139 478.11 432.479 477.838 432.616C477.567 432.75 476.008 433.226 476.008 433.226L473.635 434.241H472.415H472.424Z" fill="url(#paint5_linear_1145_1289)"/>
<path d="M472.424 434.241L471.136 430.924L468.832 427.47L467.273 425.1L466.528 422.596L466.188 420.768L465.714 419.886C465.714 419.886 464.223 419.615 463.815 419.615C463.406 419.615 462.798 419.005 462.798 419.005L462.729 417.99L463.815 415.688L453.443 395.649L442.937 374.457L445.969 373.323L467.204 366.06L521.838 348.254L530.38 321.849L538.581 295.58L525.159 274.255L528.481 264.369L531.328 254.892L534.446 246.09L536.118 241.305L536.843 240.358L538.378 239.319L539.735 238.821L540.865 238.64L540.999 237.556L539.735 237.059L538.787 236.877L537.523 236.788C537.523 236.788 536.437 235.796 536.437 235.525C536.437 235.254 536.256 232.548 536.256 232.366C536.256 232.184 536.888 229.883 536.888 229.883L538.017 227.67L539.282 226.452L540.051 225.684L540.411 224.059L540.999 222.525L541.675 221.352L542.94 220.223L544.114 220.721L544.52 221.578V222.302L548.043 219.911L549.263 218.106L550.935 216.257L551.928 215.173L552.295 216.099L553.896 218.47V219.485L554.301 220.095L555.046 220.908L555.657 221.924V222.939L557.217 225.917L559.116 228.623L561.286 230.585L563.185 233.361L565.287 235.46L566.575 237.898C566.575 237.898 567.863 239.387 567.931 239.59C568 239.792 569.085 240.266 569.085 240.266L570.713 241.078L571.798 242.296L573.288 243.449L575.796 244.666L580.745 246.766C580.745 246.766 584.406 248.323 584.608 248.525C584.811 248.728 586.439 249.407 586.641 249.407C586.844 249.407 588.063 248.865 588.063 248.865L589.012 249.541L591.113 250.083L593.146 250.285L595.248 250.354L596.876 250.625L598.638 251.438C598.638 251.438 599.452 252.113 599.655 252.319C599.857 252.521 601.282 253.063 601.756 253.132C602.23 253.2 604.332 253.334 604.332 253.334L606.094 253.403L608.467 255.163L610.095 255.838L612.739 257.735L614.501 259.224C614.501 259.224 615.246 259.968 615.449 260.308C615.652 260.647 616.94 262.407 616.94 262.407L617.956 263.964L619.65 266.334L621.751 269.788L623.716 271.548L624.664 273.647L626.563 275.815L628.596 278.117L630.224 279.743C630.224 279.743 631.443 280.353 631.646 280.487C631.849 280.621 633.679 280.96 633.679 280.96L635.373 281.163L636.255 282.449V281.839L637.746 281.907C637.746 281.907 638.56 282.991 638.762 283.262C638.965 283.533 639.645 284.751 639.645 284.751L638.831 285.835V287.324L638.9 288.949L637.814 290.575L636.595 291.456L635.441 292.945L635.101 295.923L634.085 297.82L631.983 300.732L630.627 303.575L628.999 306.69L627.845 308.992L626.829 310.346L625.135 312.038L620.186 315.763L618.287 317.591L616.254 319.488L614.695 320.842L614.018 322.805L613.273 324.972L612.256 326.461C612.256 326.461 610.563 326.595 610.426 326.801C610.292 327.003 609.883 328.155 609.883 328.492C609.883 328.828 611.576 329.507 611.576 329.507L610.154 330.32L608.595 331.336L607.647 333.095C607.647 333.095 607.173 335.465 607.242 335.668C607.31 335.87 607.376 337.565 607.444 337.767C607.513 337.97 607.31 338.782 607.105 338.851C606.899 338.919 605.411 338.851 605.411 338.851L604.123 339.866L602.496 339.935L601.005 340.069L600.057 339.729L599.243 338.714L598.838 337.833L598.769 336.68L599.109 336.478L599.38 335.733L599.178 334.718C599.178 334.718 598.975 333.974 598.704 333.771C598.432 333.569 597.144 333.161 597.144 333.161L595.925 333.905C595.925 333.905 595.382 335.192 595.382 335.394C595.382 335.596 595.517 337.222 595.517 337.222L594.363 338.035L593.209 339.253L593.075 340.268L592.398 340.944L590.499 341.891L589.822 342.772L589.348 343.788C589.348 343.788 589.417 345.143 589.62 345.414C589.822 345.685 589.96 346.631 589.96 346.631L589.077 347.986L589.146 349.475L588.603 350.288L588.198 351.708L588.063 352.995L587.181 353.876L586.096 355.231L585.893 356.178L586.233 357.193L586.638 357.937V358.953L586.299 359.766L586.57 360.918L587.315 362.204L587.789 364.033L587.518 365.453L587.586 367.079L587.789 368.636L588.737 370.193C588.737 370.193 589.414 370.396 589.483 370.667C589.551 370.938 590.025 372.766 590.025 372.766C590.025 372.766 589.754 373.918 589.685 374.121C589.617 374.323 588.94 375.273 588.94 375.273L584.534 376.131H579.179L574.162 377.101L570.909 377.235L567.249 378.522L564.673 380.621L562.437 382.583L561.352 384.48L561.08 386.24L560.878 389.152C560.878 389.152 560.675 390.709 560.606 390.911C560.538 391.114 560.538 392.332 560.538 392.332L559.453 393.957L559.384 395.378C559.384 395.378 558.707 396.53 558.639 396.733C558.57 396.935 556.877 398.221 556.877 398.221L555.994 399.237C555.994 399.237 555.52 400.523 555.383 400.794C555.249 401.065 554.298 401.809 554.298 401.809L552.536 402.08L550.571 401.538L548.81 401.741C548.81 401.741 547.996 402.417 547.656 402.417C547.316 402.417 543.995 402.485 543.724 402.348C543.452 402.214 542.03 402.077 541.825 402.077C541.619 402.077 538.435 402.619 538.435 402.619L535.791 402.551L534.163 403.635L531.992 404.177L530.57 405.531C530.57 405.531 530.096 407.36 530.096 407.631C530.096 407.902 529.691 408.646 529.691 408.646C529.691 408.646 527.998 408.985 527.792 409.119C527.589 409.253 526.775 410.066 526.775 410.066L526.099 411.692V413.452L527.115 414.467C527.115 414.467 527.726 415.551 527.86 416.024C527.995 416.498 527.521 417.921 527.521 417.921L525.893 419.681L525.824 421.101L524.605 421.643L523.183 422.659L521.895 424.96L520.473 426.518H518.031L516.067 426.788L515.321 427.533L513.628 426.788L512.68 425.907L511.595 424.96L499.056 425.3L496.614 426.181L495.395 426.925L494.921 428.009L493.701 428.483L491.328 428.349L489.092 429.364L487.465 430.448C487.465 430.448 487.059 430.921 486.788 431.124C486.517 431.326 485.634 431.8 485.634 431.8C485.634 431.8 483.601 432.139 483.398 432.139C483.196 432.139 480.957 432.005 480.957 432.005C480.957 432.005 479.871 431.871 479.466 432.005C479.061 432.139 478.11 432.479 477.838 432.616C477.567 432.75 476.008 433.226 476.008 433.226L473.635 434.241H472.415H472.424Z" stroke="white" stroke-width="4" stroke-miterlimit="10" mask="url(#path-6-outside-4_1145_1289)"/>
<path d="M608.284 343.675L608.277 342.51L608.277 342.472L608.284 343.675ZM608.284 343.675L606.619 345.13H609.283H609.286H610.292L610.289 344.579L612.093 343.003L613.633 341.785L613.634 341.785C613.684 341.758 613.755 341.719 613.841 341.672C614.011 341.578 614.241 341.451 614.477 341.315C614.71 341.181 614.959 341.035 615.164 340.904C615.265 340.84 615.367 340.772 615.456 340.706C615.5 340.673 615.551 340.633 615.602 340.588C615.64 340.554 615.732 340.47 615.812 340.35L615.814 340.347C615.904 340.212 615.946 340.079 615.96 340.036C615.98 339.97 615.997 339.904 616.009 339.848C616.035 339.734 616.058 339.603 616.078 339.472C616.12 339.207 616.16 338.884 616.194 338.579C616.223 338.323 616.249 338.071 616.27 337.866C616.416 337.772 616.588 337.661 616.763 337.55C616.994 337.403 617.226 337.258 617.41 337.146C617.503 337.09 617.577 337.046 617.63 337.017C617.645 337.009 617.656 337.003 617.664 336.998C617.98 336.87 618.136 336.628 618.194 336.523C618.265 336.394 618.299 336.272 618.316 336.201C618.351 336.054 618.363 335.902 618.369 335.789C618.381 335.549 618.373 335.265 618.36 335.014C618.346 334.757 618.326 334.505 618.31 334.32C618.301 334.226 618.294 334.148 618.288 334.093L618.282 334.029L618.28 334.011L618.28 334.006L618.279 334.005L618.279 334.004L618.279 334.004C618.279 334.004 618.279 334.004 617.285 334.11M608.284 343.675L608.28 342.434L608.28 342.434L608.28 342.434L608.28 342.433L608.28 342.429L608.281 342.413L608.285 342.351C608.289 342.297 608.294 342.22 608.299 342.125C608.31 341.936 608.324 341.684 608.333 341.428C608.342 341.168 608.346 340.919 608.342 340.73C608.34 340.668 608.338 340.621 608.335 340.587C608.261 340.372 608.272 340.172 608.296 340.04C608.328 339.868 608.395 339.736 608.437 339.663C608.523 339.513 608.632 339.387 608.709 339.304C608.875 339.126 609.088 338.938 609.274 338.783C609.468 338.623 609.662 338.471 609.806 338.362C609.879 338.306 609.94 338.261 609.983 338.228L610.034 338.191L610.049 338.18L610.053 338.177L610.054 338.176L610.054 338.176L610.055 338.176C610.055 338.176 610.055 338.176 610.643 338.985L610.055 338.176L610.188 338.079L610.346 338.03L611.765 337.589L611.865 337.165L611.683 335.65L611.645 335.331L611.799 335.05L612.676 335.531L611.799 335.05L611.799 335.05L611.799 335.05L611.8 335.049L611.801 335.046L611.808 335.034L611.832 334.989C611.853 334.951 611.884 334.896 611.921 334.83C611.994 334.697 612.095 334.516 612.203 334.326C612.397 333.984 612.674 333.503 612.827 333.3C612.981 333.098 613.194 332.942 613.317 332.855C613.468 332.75 613.633 332.649 613.777 332.566C613.815 332.544 613.853 332.522 613.89 332.501L614.203 330.934L614.274 330.576L614.559 330.349L615.575 329.536L617.891 327.684L617.17 330.56L616.887 331.686C616.914 331.796 616.948 331.931 616.987 332.061C617.005 332.121 617.022 332.173 617.038 332.218C617.058 332.23 617.075 332.242 617.089 332.252C617.212 332.337 617.312 332.435 617.384 332.511C617.53 332.667 617.665 332.851 617.769 333.001C617.877 333.158 617.973 333.311 618.041 333.423C618.075 333.48 618.103 333.527 618.123 333.561L618.146 333.602L618.153 333.613L618.155 333.617L618.156 333.618L618.156 333.619L618.156 333.619C618.156 333.619 618.156 333.619 617.285 334.11M617.285 334.11L618.279 334.004L618.257 333.799L618.156 333.619L617.285 334.11ZM617.103 332.377C617.103 332.377 617.102 332.375 617.1 332.372C617.102 332.375 617.103 332.377 617.103 332.377ZM617.68 336.99C617.68 336.99 617.68 336.99 617.678 336.991C617.68 336.99 617.68 336.99 617.68 336.99Z" fill="url(#paint6_linear_1145_1289)" stroke="white" stroke-width="2" stroke-miterlimit="10"/>
<path d="M333.686 73.3514L337.505 72.9974L337.658 72.9833L337.807 73.0153L340.338 73.5572L340.348 73.5595L340.348 73.5595L343.151 74.1908L343.326 74.2303L343.477 74.3287L344.872 75.2379L345.29 74.815L345.91 76.0777L346.712 77.7124L346.749 77.789L346.773 77.8708L347.034 78.7579L347.087 78.6521L347.244 78.3386L347.562 78.1917L349.324 77.3788L349.551 77.274L349.801 77.2886L352.106 77.4225L352.311 77.4345L352.494 77.5262L353.58 78.0681L353.776 78.1662L353.913 78.3373L355.541 80.3681L355.555 80.386L355.569 80.4045L356.654 81.8933L356.823 82.1253L356.843 82.4118L356.977 84.3085L356.987 84.4431L356.96 84.5754L356.689 85.9302L356.621 86.2689L356.359 86.4935L354.46 88.1193L354.4 88.1703L354.334 88.2114L352.572 89.2952L351.972 89.664L351.707 89.4514L351.689 89.6258L351.555 90.9806L351.331 93.2499L349.813 91.5474L348.781 90.3886L347.352 89.2208L347.074 88.9941L347.004 88.6428L346.997 88.6114L346.604 88.8228L345.646 90.0185L345.612 90.0617L345.573 90.1008L344.216 91.4557L344.192 91.4795L344.167 91.5016L343.082 92.4485L342.93 92.5806L342.74 92.6439L341.341 93.1088L341.282 93.9473L341.541 94.2704L342.614 95.3179C342.615 95.3176 342.617 95.3174 342.618 95.3171C342.933 95.2565 343.36 95.1754 343.805 95.0943C344.248 95.0133 344.714 94.9313 345.107 94.8692C345.462 94.8131 345.854 94.7565 346.085 94.7565C346.403 94.7565 346.785 94.8705 347.054 94.9576C347.371 95.0609 347.731 95.1975 348.075 95.3383C348.722 95.6034 349.457 95.9415 349.757 96.1416C349.978 96.2885 350.117 96.4794 350.199 96.6144C350.286 96.7582 350.351 96.908 350.399 97.04C350.496 97.3035 350.563 97.592 350.61 97.8356C350.658 98.0855 350.691 98.3215 350.712 98.4926C350.722 98.579 350.73 98.6507 350.735 98.7019C350.737 98.7274 350.739 98.748 350.741 98.7627L350.742 98.7803L350.743 98.7858L350.743 98.7876L350.743 98.7883L350.743 98.7885C350.743 98.7887 350.743 98.7888 349.746 98.871L350.743 98.7888L350.746 98.8298V98.871V100.471L350.868 102.809L351.493 104.058L353.634 105.82L353.918 106.054L353.983 106.416L354.643 110.105L355.143 111.412L357.082 112.324L357.694 112.612L357.655 113.287L357.521 115.589L357.519 115.623L357.515 115.657L357.097 118.941L356.986 119.815H356.105H347.43H347.382L347.334 119.81L343.858 119.476H340.176H339.931L339.714 119.362L338.155 118.549L337.984 118.46L337.858 118.314L336.231 116.417L336.18 116.359L336.14 116.293L336.989 115.766C336.14 116.293 336.14 116.293 336.139 116.293L336.139 116.292L336.139 116.292L336.138 116.29L336.135 116.286L336.126 116.271L336.095 116.219C336.068 116.175 336.032 116.113 335.989 116.039C335.904 115.891 335.791 115.686 335.684 115.469C335.583 115.263 335.465 114.999 335.395 114.745C335.362 114.624 335.321 114.44 335.327 114.237C335.331 114.113 335.357 113.887 335.488 113.664C335.49 113.637 335.492 113.604 335.494 113.564C335.504 113.336 335.498 113.025 335.481 112.692C335.465 112.365 335.441 112.041 335.42 111.797C335.41 111.675 335.401 111.575 335.394 111.505L335.386 111.425L335.384 111.405L335.384 111.4L335.384 111.399L335.384 111.399L333.686 73.3514ZM333.686 73.3514L329.595 73.1728L329.32 73.1608L329.077 73.2913L325.554 75.188L325.424 75.2575L325.321 75.361L323.332 77.3471L323.206 77.4737L323.131 77.6365L321.053 82.1505L321.022 82.218L321.001 82.2894L320.195 85.06L318.796 88.991L315.785 93.8031L310.38 101.35L309.491 102.591L310.984 102.91L314.419 103.642L314.461 103.652L314.505 103.657L320.798 104.434L320.828 104.438L320.859 104.44L324.098 104.641M333.686 73.3514L324.098 104.641M324.098 104.641L327.095 104.908L330.818 105.537L332.795 107.017L332.803 107.023L332.811 107.029L334.814 108.466L335.378 109.406V111.297V111.348L335.384 111.399L324.098 104.641Z" fill="url(#paint7_linear_1145_1289)" stroke="white" stroke-width="2" stroke-miterlimit="10"/>
</g>
<defs>
<filter id="filter0_d_1145_1289" x="-1.48779" y="0.601074" width="657.513" height="556.49" filterUnits="userSpaceOnUse" color-interpolation-filters="sRGB">
<feFlood flood-opacity="0" result="BackgroundImageFix"/>
<feColorMatrix in="SourceAlpha" type="matrix" values="0 0 0 0 0 0 0 0 0 0 0 0 0 0 0 0 0 0 127 0" result="hardAlpha"/>
<feOffset dy="4"/>
<feGaussianBlur stdDeviation="7"/>
<feComposite in2="hardAlpha" operator="out"/>
<feColorMatrix type="matrix" values="0 0 0 0 0 0 0 0 0 0 0 0 0 0 0 0 0 0 0.25 0"/>
<feBlend mode="normal" in2="BackgroundImageFix" result="effect1_dropShadow_1145_1289"/>
<feBlend mode="normal" in="SourceGraphic" in2="effect1_dropShadow_1145_1289" result="shape"/>
</filter>
<linearGradient id="paint0_linear_1145_1289" x1="15.0249" y1="12.9351" x2="539.385" y2="13.9086" gradientUnits="userSpaceOnUse">
<stop stop-color="#EE981D"/>
<stop offset="1" stop-color="#BB681E"/>
</linearGradient>
<linearGradient id="paint1_linear_1145_1289" x1="415.143" y1="184.674" x2="436.24" y2="184.689" gradientUnits="userSpaceOnUse">
<stop stop-color="#FF3D31"/>
<stop offset="1" stop-color="#C51A0F"/>
</linearGradient>
<linearGradient id="paint2_linear_1145_1289" x1="405.743" y1="184.601" x2="411.445" y2="184.606" gradientUnits="userSpaceOnUse">
<stop stop-color="#A86FF0"/>
<stop offset="1" stop-color="#5D25A0"/>
</linearGradient>
<linearGradient id="paint3_linear_1145_1289" x1="434.724" y1="185.701" x2="552.109" y2="185.937" gradientUnits="userSpaceOnUse">
<stop stop-color="#09BBC6"/>
<stop offset="1" stop-color="#00929B"/>
</linearGradient>
<linearGradient id="paint4_linear_1145_1289" x1="213.212" y1="374.469" x2="472.82" y2="375.099" gradientUnits="userSpaceOnUse">
<stop stop-color="#7F9CA7"/>
<stop offset="1" stop-color="#9AB7C1"/>
</linearGradient>
<linearGradient id="paint5_linear_1145_1289" x1="442.937" y1="215.173" x2="639.944" y2="215.443" gradientUnits="userSpaceOnUse">
<stop stop-color="#FF5FD2"/>
<stop offset="1" stop-color="#9A0070"/>
</linearGradient>
<linearGradient id="paint6_linear_1145_1289" x1="609.277" y1="330.317" x2="617.387" y2="330.324" gradientUnits="userSpaceOnUse">
<stop stop-color="#7F9CA7"/>
<stop offset="1" stop-color="#9AB7C1"/>
</linearGradient>
<linearGradient id="paint7_linear_1145_1289" x1="311.193" y1="73.9932" x2="356.726" y2="74.0635" gradientUnits="userSpaceOnUse">
<stop stop-color="#8AB62D"/>
<stop offset="1" stop-color="#668D12"/>
</linearGradient>
</defs>
</svg>
