<svg width="300" height="253" viewBox="0 0 300 253" fill="none" xmlns="http://www.w3.org/2000/svg">
<g filter="url(#filter0_d_1178_502)">
<mask id="path-1-outside-1_1178_502" maskUnits="userSpaceOnUse" x="12" y="10" width="232" height="193" fill="black">
<rect fill="white" x="12" y="10" width="232" height="193"/>
<path d="M18.903 48.5794L20.2298 48.7349L22.8048 49.2028L25.107 49.4753L27.8763 49.9431L30.3728 50.2156L31.6211 50.0202L32.7136 48.9676L34.2347 48.0717L35.5614 47.0191L36.8097 45.3829L37.9807 43.8637L38.8777 42.617L39.5018 42.383L40.5943 42.0707L41.6483 41.7584L42.8579 41.6029L44.029 41.3304L45.6285 41.135L46.4869 40.7456L47.0724 39.8883L47.6965 38.5632L47.8921 37.7444L48.5162 36.8087L49.4132 36.107L50.1158 35.6391L51.754 34.5093L51.1299 33.8474L49.6088 32.2112L48.7118 31.0031L46.8781 28.9775L45.3956 27.2629L44.0303 25.8992L42.9377 24.38L42.4693 22.9379V21.9636L43.8347 21.5356L45.7855 21.0678L47.2294 20.5228L49.1018 19.8994L50.8969 19.4316L53.1991 18.8082L54.9943 18.2234L56.8281 17.834L59.9487 16.7813L62.4452 15.9626L63.382 15.2608L64.436 14.0527L65.6057 13L68.025 14.0128L70.0531 14.8315L72.1983 15.3765L73.8365 15.8443L74.6562 16.7402L75.6317 17.0911H76.5286L78.1668 18.2607L79.7663 19.0396L83.2383 20.8711L87.53 23.1705L91.3918 25.1961L94.7081 26.9493L99.3111 29.6767L103.33 31.2743L106.919 34.197L109.688 36.7303L113.277 39.6531L117.179 43.1594L120.144 45.6528L122.758 47.9522L125.488 50.2901L128.025 52.3158L130.287 54.3028L131.301 55.1601H132.822L136.45 53.718L140.117 52.4713L142.692 51.3801L144.175 51.4675L145.668 51.6718L147.043 51.9353L148.447 52.0227L149.764 52.1397L151.491 52.4314L152.428 53.1332L153.364 53.8054L153.716 54.3902V55.3259C153.716 55.3259 153.833 56.466 153.716 56.5534C153.599 56.6408 153.98 57.2551 153.98 57.2551L154.682 58.0739L155.355 58.4248H156.965L158.486 58.5713H162.231L162.933 58.8926L163.314 59.2731L163.519 59.9453V60.5879C163.519 60.5879 163.372 61.2601 163.519 61.3771C163.666 61.494 164.25 62.0788 164.25 62.0788L164.484 62.868C164.484 62.868 164.542 63.5981 164.484 63.6867C164.426 63.7741 164.718 64.2124 164.718 64.2124C164.718 64.2124 165.304 64.6507 165.421 64.6507H166.094V65.4103L166.386 65.9656L167 66.2869L167.234 66.7252L167.615 67.193V68.04L167.264 68.1865L167.117 67.3974H166.795L166.649 68.1865L166.736 68.7122H167.205L167.351 69.1801L167.117 69.5014H167.381C167.381 69.5014 167.79 69.5888 167.907 69.7353C168.024 69.8818 168.463 69.5605 168.463 69.5605L168.932 69.7739L169.312 70.2327H169.956L170.951 70.3792L171.799 70.671L172.384 71.3432V72.045L172.003 72.4537L171.857 73.5064L172.53 73.7981L172.355 74.1786L172.53 74.5873L172.998 74.4408L173.173 75.2878C173.173 75.2878 173.671 75.2299 173.759 75.2878C173.846 75.3456 174.489 75.4626 174.489 75.4626V75.2582L174.109 74.6734H174.694L175.22 74.9369V75.4626L175.484 75.9883L175.748 76.5731L176.012 76.9535L176.772 77.6553L177.738 78.2105L179.024 78.5614L180.107 79.438L180.663 80.285L180.165 80.6654L179.755 80.2567L179.726 79.848L179.316 79.9058L179.404 80.4032L179.492 80.8711L179.638 81.5433L179.609 82.0985L180.165 82.8581L180.663 83.4712H181.161L181.98 84.4648V85.9261L181.571 86.4814C181.571 86.4814 181.688 86.8618 181.688 86.9788C181.688 87.0957 181.307 87.4466 181.307 87.4466L180.4 87.1253L180.43 86.5701L179.844 86.0444L179.669 86.4827L179.991 86.9505L180.751 87.8862L180.809 88.354L180.839 88.9389L180.722 89.5815C180.722 89.5815 180.634 90.0198 180.722 90.0789C180.809 90.1367 181.278 91.0724 181.278 91.1894C181.278 91.3064 181.98 92.6508 181.98 92.6508C181.98 92.6508 182.624 93.7034 182.624 93.7908C182.624 93.8782 183.15 94.7548 183.15 94.7548L183.736 95.5144V95.017H184.116C184.116 95.017 184.672 95.5427 184.76 95.5144C184.847 95.4848 185.199 95.9822 185.199 96.0696C185.199 96.157 185.491 97.0336 185.491 97.0336L185.227 97.5593L185.491 98.0567V99.5181L186.017 100.015H186.222L186.631 100.746L186.953 101.418L187.421 101.798L187.568 102.383L187.772 103.319L188.182 103.493L188.708 103.698L189.059 105.072L190.201 106.095L191.43 106.446C191.43 106.446 192.542 106.212 192.659 106.212H193.683L194.297 105.627L194.561 105.423V104.984L195.204 104.955L195.468 105.423L195.293 105.744L194.767 105.861L194.006 106.446L193.567 107.088L193.392 107.761V108.491H194.006L194.709 108.199L195.469 108.345L196.172 108.959V111.53L197.986 113.634L200.385 116.44L202.492 118.866L203.925 120.736L205.74 122.81L206.969 124.418L207.846 125.499H213.026L231.84 125.674H235.205L240.998 134.879L237.458 146.218L233.771 157.616L210.188 165.302L200.533 168.604L198.661 169.276L157.638 183.8L152.664 187.365L150.997 190.433L150.206 190.959L148.802 191.105H147.369L145.262 189.089L144.238 187.627L137.889 187.598L132.066 187.627L128.877 187.393L124.37 186.458H121.298L117.788 186.487L116.09 186.926L114.481 187.013L111.759 186.136L109.652 185.143L108.804 185.347L107.077 187.481C107.077 187.481 106.99 188.094 106.99 188.183C106.99 188.271 106.873 189.089 106.873 189.089L106.434 189.586L106.112 190.433L106.142 191.835L106.756 192.712L106.843 193.501L106.696 193.91L105.994 194.202L105.525 194.699L105.233 195.254L105.058 195.867L104.677 196.423L103.039 197.942L102.541 198.351C102.541 198.351 102.454 197.708 102.454 197.62C102.454 197.533 101.956 196.51 101.956 196.51L101.926 195.75L101.4 194.844L101.312 194.289L100.931 193.763L100.492 193.5L100.141 193.032L99.8491 192.711L99.9662 191.279L99.732 190.898C99.732 190.898 99.2339 190.607 99.1464 190.607C99.0589 190.607 98.5609 190.109 98.5609 190.109L98.1517 190.08L97.9471 189.582V189.085L97.5379 188.821L97.3332 188.324L97.1865 186.922L97.0694 186.424L97.099 186.073L97.0411 185.665L95.1983 184.32L94.2615 183.297L92.6516 182.129L91.2477 181.34L90.1062 179.937L89.3753 178.418L88.6444 177.25L88.4102 176.461L88.176 174.999L87.7667 174.269L87.445 173.597L86.7141 173.363L86.0411 172.574L85.5147 172.194L85.6897 171.58L86.0707 171.23C86.0707 171.23 86.1582 170.908 86.1003 170.791C86.0423 170.674 85.7489 170.294 85.6614 170.294C85.5739 170.294 85.2226 170.119 85.2226 170.119L85.018 169.71V168.658L85.2522 168.219L85.0772 167.781L84.5792 167.547L84.1983 167.313L84.1404 166.788L84.0529 166.32L83.9949 165.939L83.7028 165.588L83.1469 164.858L83.0298 163.923L82.7956 163.455C82.7956 163.455 82.5035 162.87 82.4147 162.812C82.3272 162.754 81.9759 162.374 81.8884 162.374C81.8009 162.374 81.42 162.053 81.42 162.053L81.2449 161.614L81.6542 161.351L81.6838 160.679L81.2153 160.153L80.864 159.889C80.864 159.889 80.4548 159.802 80.3956 159.889C80.3377 159.977 80.0443 160.123 80.0443 160.123L79.2542 159.832C79.2542 159.832 79.0496 159.306 79.0496 159.189C79.0496 159.072 78.962 158.517 78.962 158.517L78.5811 158.079L77.5272 157.319L76.3574 156.706L75.7719 156.297C75.7719 156.297 75.5673 155.888 75.4798 155.771C75.3923 155.654 74.6022 154.953 74.6022 154.953L73.7541 154.485C73.7541 154.485 72.964 154.221 72.8765 154.221C72.789 154.221 71.9113 154.192 71.7942 154.221C71.6771 154.251 71.1508 154.396 71.0337 154.368C70.9166 154.34 70.3311 154.076 70.3311 154.076L69.3363 153.257L68.3416 151.855L67.4344 150.394L66.5271 148.875L65.2982 147.501C65.2982 147.501 64.7423 146.565 64.7423 146.477C64.7423 146.39 63.7179 144.11 63.7179 144.11L63.2791 143.029L63.1916 142.24L63.5133 141.451C63.5133 141.451 63.66 140.983 63.6883 140.895C63.7179 140.808 63.6304 140.165 63.6304 140.165L63.162 139.581L62.8982 138.908L63.2495 138.383L63.7179 138.149C63.7179 138.149 63.8646 137.768 63.835 137.651C63.8054 137.534 63.5712 137.3 63.4541 137.3C63.337 137.3 62.8686 137.681 62.8686 137.681L62.5469 137.856L62.1956 137.622L61.61 135.956L61.1416 134.903L61.4929 134.319L61.9318 134.582L62.6923 134.348L63.0732 133.939L62.8686 133.589L62.5469 133.442L62.5765 132.829L62.8982 132.303L63.162 131.865L63.5712 131.397L63.4837 130.374L63.2791 130.053L62.9278 129.761L62.8403 129.176L62.9574 128.095L62.3139 127.131L62.0218 126.576L62.256 126.225L61.6422 126.021L60.8521 125.085L60.4133 124.472L60.5304 123.859L60.2962 123.362L60.1495 122.981L60.3245 122.484C60.3245 122.484 60.4712 122.045 60.412 121.928C60.3541 121.811 59.7981 121.256 59.7981 121.256L59.3297 120.876L58.8613 120.146L58.51 118.743L58.3633 117.603V117.165L58.0712 116.785L57.5732 116.697L57.4561 116.961L57.0751 117.107L56.9876 116.377L56.5488 115.354L56.3146 114.244L55.2028 113.104L54.6172 112.519L54.0034 112.344L53.2429 111.525L52.629 110.824L51.781 110.707L51.1672 110.298C51.1672 110.298 50.9922 110.064 50.9626 109.976C50.933 109.889 50.9626 109.451 50.9626 109.451L50.9047 109.07L50.4658 109.128L50.4362 109.479L50.0553 109.947L49.2652 109.509L48.7672 108.866L48.1238 108.164L47.6849 108.018L47.3928 108.281L47.2461 108.662L46.3981 108.719L45.8422 108.194L45.6375 107.668L45.3158 107.171L45.5796 106.615C45.5796 106.615 45.5796 106.265 45.4921 106.235C45.4046 106.205 45.0829 106.088 45.0829 106.088L44.527 105.125L43.7664 104.189L42.9467 103.429L42.4487 102.787L42.4191 102.085L42.9454 101.997L43.4718 101.793L43.6764 100.829L43.2375 99.7481L43.4126 99.1929L43.5593 98.4924L43.2955 97.7894C43.2955 97.7894 42.3303 97.1172 42.1836 97.0593C42.0369 97.0015 41.481 96.9128 41.5106 96.6789C41.5402 96.4449 41.8323 95.8319 41.8323 95.8319C41.8323 95.8319 41.8902 95.4231 41.8027 95.2471C41.7152 95.0723 41.1889 94.6044 41.1297 94.4874C41.0718 94.3705 40.3987 93.2896 40.3987 93.2896L39.9599 92.3834C39.9599 92.3834 39.6678 91.7703 39.5507 91.7703C39.4336 91.7703 38.5264 91.4786 38.5264 91.4786C38.5264 91.4786 37.6191 91.2447 37.6191 91.1573C37.6191 91.0699 37.1211 90.1342 37.1211 90.1342V88.1175C37.1211 88.1175 36.9165 87.5919 36.7698 87.5919C36.6231 87.5919 35.7159 87.4453 35.7159 87.4453L35.2178 86.7731L34.8086 85.9544L33.6672 83.9673C33.6672 83.9673 33.3159 82.6821 33.3159 82.5934C33.3159 82.5047 32.6428 81.1616 32.6428 81.1616L31.531 80.168L30.7705 79.5832L30.5954 78.2684L29.6586 77.4214L28.2546 76.2813L27.7862 75.6091L27.7283 73.8842L26.9974 72.9781L26.0902 72.1889L25.7388 71.0206L25.3 70.5232L25.2125 69.6762C25.2125 69.6762 24.5691 69.2675 24.5395 69.1505C24.5099 69.0336 24.3645 68.2444 24.3645 68.2444L23.6618 67.4552L23.4276 66.7534L21.9645 65.2625L21.8178 64.8538L21.9928 64.4451L21.5244 64.0942L20.6467 63.7137L20.2079 63.422L18.7744 63.6263L18.0717 63.8898L17.6625 63.4811L17.3987 63.6855C17.3987 63.6855 16.8132 63.3346 16.6961 63.305C16.579 63.2754 15.9651 63.2176 15.9355 63.305C15.9059 63.3924 15.9355 64.1816 15.9355 64.1816L15.5263 64.3281L15.3217 63.8603L15 63.5389C15 63.5389 15.3809 62.8963 15.4684 62.8667C15.5559 62.8372 15.8493 62.3989 15.8493 62.3989C15.8493 62.3989 15.8789 61.9015 15.9664 61.7267C16.0539 61.5519 16.4644 60.9079 16.4928 60.8205C16.5224 60.7331 16.6974 60.1779 16.6974 60.1779L17.1362 59.3309L17.3408 57.0803L17.1658 56.0868L17.1362 55.1807L17.3408 54.1576L17.575 53.6897L17.75 52.8427L17.8967 52.141L18.1605 51.4109L18.3947 50.7092L18.6869 49.9791L18.7448 49.2773L18.9108 48.5756L18.903 48.5794Z"/>
</mask>
<path d="M18.903 48.5794L20.2298 48.7349L22.8048 49.2028L25.107 49.4753L27.8763 49.9431L30.3728 50.2156L31.6211 50.0202L32.7136 48.9676L34.2347 48.0717L35.5614 47.0191L36.8097 45.3829L37.9807 43.8637L38.8777 42.617L39.5018 42.383L40.5943 42.0707L41.6483 41.7584L42.8579 41.6029L44.029 41.3304L45.6285 41.135L46.4869 40.7456L47.0724 39.8883L47.6965 38.5632L47.8921 37.7444L48.5162 36.8087L49.4132 36.107L50.1158 35.6391L51.754 34.5093L51.1299 33.8474L49.6088 32.2112L48.7118 31.0031L46.8781 28.9775L45.3956 27.2629L44.0303 25.8992L42.9377 24.38L42.4693 22.9379V21.9636L43.8347 21.5356L45.7855 21.0678L47.2294 20.5228L49.1018 19.8994L50.8969 19.4316L53.1991 18.8082L54.9943 18.2234L56.8281 17.834L59.9487 16.7813L62.4452 15.9626L63.382 15.2608L64.436 14.0527L65.6057 13L68.025 14.0128L70.0531 14.8315L72.1983 15.3765L73.8365 15.8443L74.6562 16.7402L75.6317 17.0911H76.5286L78.1668 18.2607L79.7663 19.0396L83.2383 20.8711L87.53 23.1705L91.3918 25.1961L94.7081 26.9493L99.3111 29.6767L103.33 31.2743L106.919 34.197L109.688 36.7303L113.277 39.6531L117.179 43.1594L120.144 45.6528L122.758 47.9522L125.488 50.2901L128.025 52.3158L130.287 54.3028L131.301 55.1601H132.822L136.45 53.718L140.117 52.4713L142.692 51.3801L144.175 51.4675L145.668 51.6718L147.043 51.9353L148.447 52.0227L149.764 52.1397L151.491 52.4314L152.428 53.1332L153.364 53.8054L153.716 54.3902V55.3259C153.716 55.3259 153.833 56.466 153.716 56.5534C153.599 56.6408 153.98 57.2551 153.98 57.2551L154.682 58.0739L155.355 58.4248H156.965L158.486 58.5713H162.231L162.933 58.8926L163.314 59.2731L163.519 59.9453V60.5879C163.519 60.5879 163.372 61.2601 163.519 61.3771C163.666 61.494 164.25 62.0788 164.25 62.0788L164.484 62.868C164.484 62.868 164.542 63.5981 164.484 63.6867C164.426 63.7741 164.718 64.2124 164.718 64.2124C164.718 64.2124 165.304 64.6507 165.421 64.6507H166.094V65.4103L166.386 65.9656L167 66.2869L167.234 66.7252L167.615 67.193V68.04L167.264 68.1865L167.117 67.3974H166.795L166.649 68.1865L166.736 68.7122H167.205L167.351 69.1801L167.117 69.5014H167.381C167.381 69.5014 167.79 69.5888 167.907 69.7353C168.024 69.8818 168.463 69.5605 168.463 69.5605L168.932 69.7739L169.312 70.2327H169.956L170.951 70.3792L171.799 70.671L172.384 71.3432V72.045L172.003 72.4537L171.857 73.5064L172.53 73.7981L172.355 74.1786L172.53 74.5873L172.998 74.4408L173.173 75.2878C173.173 75.2878 173.671 75.2299 173.759 75.2878C173.846 75.3456 174.489 75.4626 174.489 75.4626V75.2582L174.109 74.6734H174.694L175.22 74.9369V75.4626L175.484 75.9883L175.748 76.5731L176.012 76.9535L176.772 77.6553L177.738 78.2105L179.024 78.5614L180.107 79.438L180.663 80.285L180.165 80.6654L179.755 80.2567L179.726 79.848L179.316 79.9058L179.404 80.4032L179.492 80.8711L179.638 81.5433L179.609 82.0985L180.165 82.8581L180.663 83.4712H181.161L181.98 84.4648V85.9261L181.571 86.4814C181.571 86.4814 181.688 86.8618 181.688 86.9788C181.688 87.0957 181.307 87.4466 181.307 87.4466L180.4 87.1253L180.43 86.5701L179.844 86.0444L179.669 86.4827L179.991 86.9505L180.751 87.8862L180.809 88.354L180.839 88.9389L180.722 89.5815C180.722 89.5815 180.634 90.0198 180.722 90.0789C180.809 90.1367 181.278 91.0724 181.278 91.1894C181.278 91.3064 181.98 92.6508 181.98 92.6508C181.98 92.6508 182.624 93.7034 182.624 93.7908C182.624 93.8782 183.15 94.7548 183.15 94.7548L183.736 95.5144V95.017H184.116C184.116 95.017 184.672 95.5427 184.76 95.5144C184.847 95.4848 185.199 95.9822 185.199 96.0696C185.199 96.157 185.491 97.0336 185.491 97.0336L185.227 97.5593L185.491 98.0567V99.5181L186.017 100.015H186.222L186.631 100.746L186.953 101.418L187.421 101.798L187.568 102.383L187.772 103.319L188.182 103.493L188.708 103.698L189.059 105.072L190.201 106.095L191.43 106.446C191.43 106.446 192.542 106.212 192.659 106.212H193.683L194.297 105.627L194.561 105.423V104.984L195.204 104.955L195.468 105.423L195.293 105.744L194.767 105.861L194.006 106.446L193.567 107.088L193.392 107.761V108.491H194.006L194.709 108.199L195.469 108.345L196.172 108.959V111.53L197.986 113.634L200.385 116.44L202.492 118.866L203.925 120.736L205.74 122.81L206.969 124.418L207.846 125.499H213.026L231.84 125.674H235.205L240.998 134.879L237.458 146.218L233.771 157.616L210.188 165.302L200.533 168.604L198.661 169.276L157.638 183.8L152.664 187.365L150.997 190.433L150.206 190.959L148.802 191.105H147.369L145.262 189.089L144.238 187.627L137.889 187.598L132.066 187.627L128.877 187.393L124.37 186.458H121.298L117.788 186.487L116.09 186.926L114.481 187.013L111.759 186.136L109.652 185.143L108.804 185.347L107.077 187.481C107.077 187.481 106.99 188.094 106.99 188.183C106.99 188.271 106.873 189.089 106.873 189.089L106.434 189.586L106.112 190.433L106.142 191.835L106.756 192.712L106.843 193.501L106.696 193.91L105.994 194.202L105.525 194.699L105.233 195.254L105.058 195.867L104.677 196.423L103.039 197.942L102.541 198.351C102.541 198.351 102.454 197.708 102.454 197.62C102.454 197.533 101.956 196.51 101.956 196.51L101.926 195.75L101.4 194.844L101.312 194.289L100.931 193.763L100.492 193.5L100.141 193.032L99.8491 192.711L99.9662 191.279L99.732 190.898C99.732 190.898 99.2339 190.607 99.1464 190.607C99.0589 190.607 98.5609 190.109 98.5609 190.109L98.1517 190.08L97.9471 189.582V189.085L97.5379 188.821L97.3332 188.324L97.1865 186.922L97.0694 186.424L97.099 186.073L97.0411 185.665L95.1983 184.32L94.2615 183.297L92.6516 182.129L91.2477 181.34L90.1062 179.937L89.3753 178.418L88.6444 177.25L88.4102 176.461L88.176 174.999L87.7667 174.269L87.445 173.597L86.7141 173.363L86.0411 172.574L85.5147 172.194L85.6897 171.58L86.0707 171.23C86.0707 171.23 86.1582 170.908 86.1003 170.791C86.0423 170.674 85.7489 170.294 85.6614 170.294C85.5739 170.294 85.2226 170.119 85.2226 170.119L85.018 169.71V168.658L85.2522 168.219L85.0772 167.781L84.5792 167.547L84.1983 167.313L84.1404 166.788L84.0529 166.32L83.9949 165.939L83.7028 165.588L83.1469 164.858L83.0298 163.923L82.7956 163.455C82.7956 163.455 82.5035 162.87 82.4147 162.812C82.3272 162.754 81.9759 162.374 81.8884 162.374C81.8009 162.374 81.42 162.053 81.42 162.053L81.2449 161.614L81.6542 161.351L81.6838 160.679L81.2153 160.153L80.864 159.889C80.864 159.889 80.4548 159.802 80.3956 159.889C80.3377 159.977 80.0443 160.123 80.0443 160.123L79.2542 159.832C79.2542 159.832 79.0496 159.306 79.0496 159.189C79.0496 159.072 78.962 158.517 78.962 158.517L78.5811 158.079L77.5272 157.319L76.3574 156.706L75.7719 156.297C75.7719 156.297 75.5673 155.888 75.4798 155.771C75.3923 155.654 74.6022 154.953 74.6022 154.953L73.7541 154.485C73.7541 154.485 72.964 154.221 72.8765 154.221C72.789 154.221 71.9113 154.192 71.7942 154.221C71.6771 154.251 71.1508 154.396 71.0337 154.368C70.9166 154.34 70.3311 154.076 70.3311 154.076L69.3363 153.257L68.3416 151.855L67.4344 150.394L66.5271 148.875L65.2982 147.501C65.2982 147.501 64.7423 146.565 64.7423 146.477C64.7423 146.39 63.7179 144.11 63.7179 144.11L63.2791 143.029L63.1916 142.24L63.5133 141.451C63.5133 141.451 63.66 140.983 63.6883 140.895C63.7179 140.808 63.6304 140.165 63.6304 140.165L63.162 139.581L62.8982 138.908L63.2495 138.383L63.7179 138.149C63.7179 138.149 63.8646 137.768 63.835 137.651C63.8054 137.534 63.5712 137.3 63.4541 137.3C63.337 137.3 62.8686 137.681 62.8686 137.681L62.5469 137.856L62.1956 137.622L61.61 135.956L61.1416 134.903L61.4929 134.319L61.9318 134.582L62.6923 134.348L63.0732 133.939L62.8686 133.589L62.5469 133.442L62.5765 132.829L62.8982 132.303L63.162 131.865L63.5712 131.397L63.4837 130.374L63.2791 130.053L62.9278 129.761L62.8403 129.176L62.9574 128.095L62.3139 127.131L62.0218 126.576L62.256 126.225L61.6422 126.021L60.8521 125.085L60.4133 124.472L60.5304 123.859L60.2962 123.362L60.1495 122.981L60.3245 122.484C60.3245 122.484 60.4712 122.045 60.412 121.928C60.3541 121.811 59.7981 121.256 59.7981 121.256L59.3297 120.876L58.8613 120.146L58.51 118.743L58.3633 117.603V117.165L58.0712 116.785L57.5732 116.697L57.4561 116.961L57.0751 117.107L56.9876 116.377L56.5488 115.354L56.3146 114.244L55.2028 113.104L54.6172 112.519L54.0034 112.344L53.2429 111.525L52.629 110.824L51.781 110.707L51.1672 110.298C51.1672 110.298 50.9922 110.064 50.9626 109.976C50.933 109.889 50.9626 109.451 50.9626 109.451L50.9047 109.07L50.4658 109.128L50.4362 109.479L50.0553 109.947L49.2652 109.509L48.7672 108.866L48.1238 108.164L47.6849 108.018L47.3928 108.281L47.2461 108.662L46.3981 108.719L45.8422 108.194L45.6375 107.668L45.3158 107.171L45.5796 106.615C45.5796 106.615 45.5796 106.265 45.4921 106.235C45.4046 106.205 45.0829 106.088 45.0829 106.088L44.527 105.125L43.7664 104.189L42.9467 103.429L42.4487 102.787L42.4191 102.085L42.9454 101.997L43.4718 101.793L43.6764 100.829L43.2375 99.7481L43.4126 99.1929L43.5593 98.4924L43.2955 97.7894C43.2955 97.7894 42.3303 97.1172 42.1836 97.0593C42.0369 97.0015 41.481 96.9128 41.5106 96.6789C41.5402 96.4449 41.8323 95.8319 41.8323 95.8319C41.8323 95.8319 41.8902 95.4231 41.8027 95.2471C41.7152 95.0723 41.1889 94.6044 41.1297 94.4874C41.0718 94.3705 40.3987 93.2896 40.3987 93.2896L39.9599 92.3834C39.9599 92.3834 39.6678 91.7703 39.5507 91.7703C39.4336 91.7703 38.5264 91.4786 38.5264 91.4786C38.5264 91.4786 37.6191 91.2447 37.6191 91.1573C37.6191 91.0699 37.1211 90.1342 37.1211 90.1342V88.1175C37.1211 88.1175 36.9165 87.5919 36.7698 87.5919C36.6231 87.5919 35.7159 87.4453 35.7159 87.4453L35.2178 86.7731L34.8086 85.9544L33.6672 83.9673C33.6672 83.9673 33.3159 82.6821 33.3159 82.5934C33.3159 82.5047 32.6428 81.1616 32.6428 81.1616L31.531 80.168L30.7705 79.5832L30.5954 78.2684L29.6586 77.4214L28.2546 76.2813L27.7862 75.6091L27.7283 73.8842L26.9974 72.9781L26.0902 72.1889L25.7388 71.0206L25.3 70.5232L25.2125 69.6762C25.2125 69.6762 24.5691 69.2675 24.5395 69.1505C24.5099 69.0336 24.3645 68.2444 24.3645 68.2444L23.6618 67.4552L23.4276 66.7534L21.9645 65.2625L21.8178 64.8538L21.9928 64.4451L21.5244 64.0942L20.6467 63.7137L20.2079 63.422L18.7744 63.6263L18.0717 63.8898L17.6625 63.4811L17.3987 63.6855C17.3987 63.6855 16.8132 63.3346 16.6961 63.305C16.579 63.2754 15.9651 63.2176 15.9355 63.305C15.9059 63.3924 15.9355 64.1816 15.9355 64.1816L15.5263 64.3281L15.3217 63.8603L15 63.5389C15 63.5389 15.3809 62.8963 15.4684 62.8667C15.5559 62.8372 15.8493 62.3989 15.8493 62.3989C15.8493 62.3989 15.8789 61.9015 15.9664 61.7267C16.0539 61.5519 16.4644 60.9079 16.4928 60.8205C16.5224 60.7331 16.6974 60.1779 16.6974 60.1779L17.1362 59.3309L17.3408 57.0803L17.1658 56.0868L17.1362 55.1807L17.3408 54.1576L17.575 53.6897L17.75 52.8427L17.8967 52.141L18.1605 51.4109L18.3947 50.7092L18.6869 49.9791L18.7448 49.2773L18.9108 48.5756L18.903 48.5794Z" fill="url(#paint0_linear_1178_502)"/>
<path d="M18.903 48.5794L20.2298 48.7349L22.8048 49.2028L25.107 49.4753L27.8763 49.9431L30.3728 50.2156L31.6211 50.0202L32.7136 48.9676L34.2347 48.0717L35.5614 47.0191L36.8097 45.3829L37.9807 43.8637L38.8777 42.617L39.5018 42.383L40.5943 42.0707L41.6483 41.7584L42.8579 41.6029L44.029 41.3304L45.6285 41.135L46.4869 40.7456L47.0724 39.8883L47.6965 38.5632L47.8921 37.7444L48.5162 36.8087L49.4132 36.107L50.1158 35.6391L51.754 34.5093L51.1299 33.8474L49.6088 32.2112L48.7118 31.0031L46.8781 28.9775L45.3956 27.2629L44.0303 25.8992L42.9377 24.38L42.4693 22.9379V21.9636L43.8347 21.5356L45.7855 21.0678L47.2294 20.5228L49.1018 19.8994L50.8969 19.4316L53.1991 18.8082L54.9943 18.2234L56.8281 17.834L59.9487 16.7813L62.4452 15.9626L63.382 15.2608L64.436 14.0527L65.6057 13L68.025 14.0128L70.0531 14.8315L72.1983 15.3765L73.8365 15.8443L74.6562 16.7402L75.6317 17.0911H76.5286L78.1668 18.2607L79.7663 19.0396L83.2383 20.8711L87.53 23.1705L91.3918 25.1961L94.7081 26.9493L99.3111 29.6767L103.33 31.2743L106.919 34.197L109.688 36.7303L113.277 39.6531L117.179 43.1594L120.144 45.6528L122.758 47.9522L125.488 50.2901L128.025 52.3158L130.287 54.3028L131.301 55.1601H132.822L136.45 53.718L140.117 52.4713L142.692 51.3801L144.175 51.4675L145.668 51.6718L147.043 51.9353L148.447 52.0227L149.764 52.1397L151.491 52.4314L152.428 53.1332L153.364 53.8054L153.716 54.3902V55.3259C153.716 55.3259 153.833 56.466 153.716 56.5534C153.599 56.6408 153.98 57.2551 153.98 57.2551L154.682 58.0739L155.355 58.4248H156.965L158.486 58.5713H162.231L162.933 58.8926L163.314 59.2731L163.519 59.9453V60.5879C163.519 60.5879 163.372 61.2601 163.519 61.3771C163.666 61.494 164.25 62.0788 164.25 62.0788L164.484 62.868C164.484 62.868 164.542 63.5981 164.484 63.6867C164.426 63.7741 164.718 64.2124 164.718 64.2124C164.718 64.2124 165.304 64.6507 165.421 64.6507H166.094V65.4103L166.386 65.9656L167 66.2869L167.234 66.7252L167.615 67.193V68.04L167.264 68.1865L167.117 67.3974H166.795L166.649 68.1865L166.736 68.7122H167.205L167.351 69.1801L167.117 69.5014H167.381C167.381 69.5014 167.79 69.5888 167.907 69.7353C168.024 69.8818 168.463 69.5605 168.463 69.5605L168.932 69.7739L169.312 70.2327H169.956L170.951 70.3792L171.799 70.671L172.384 71.3432V72.045L172.003 72.4537L171.857 73.5064L172.53 73.7981L172.355 74.1786L172.53 74.5873L172.998 74.4408L173.173 75.2878C173.173 75.2878 173.671 75.2299 173.759 75.2878C173.846 75.3456 174.489 75.4626 174.489 75.4626V75.2582L174.109 74.6734H174.694L175.22 74.9369V75.4626L175.484 75.9883L175.748 76.5731L176.012 76.9535L176.772 77.6553L177.738 78.2105L179.024 78.5614L180.107 79.438L180.663 80.285L180.165 80.6654L179.755 80.2567L179.726 79.848L179.316 79.9058L179.404 80.4032L179.492 80.8711L179.638 81.5433L179.609 82.0985L180.165 82.8581L180.663 83.4712H181.161L181.98 84.4648V85.9261L181.571 86.4814C181.571 86.4814 181.688 86.8618 181.688 86.9788C181.688 87.0957 181.307 87.4466 181.307 87.4466L180.4 87.1253L180.43 86.5701L179.844 86.0444L179.669 86.4827L179.991 86.9505L180.751 87.8862L180.809 88.354L180.839 88.9389L180.722 89.5815C180.722 89.5815 180.634 90.0198 180.722 90.0789C180.809 90.1367 181.278 91.0724 181.278 91.1894C181.278 91.3064 181.98 92.6508 181.98 92.6508C181.98 92.6508 182.624 93.7034 182.624 93.7908C182.624 93.8782 183.15 94.7548 183.15 94.7548L183.736 95.5144V95.017H184.116C184.116 95.017 184.672 95.5427 184.76 95.5144C184.847 95.4848 185.199 95.9822 185.199 96.0696C185.199 96.157 185.491 97.0336 185.491 97.0336L185.227 97.5593L185.491 98.0567V99.5181L186.017 100.015H186.222L186.631 100.746L186.953 101.418L187.421 101.798L187.568 102.383L187.772 103.319L188.182 103.493L188.708 103.698L189.059 105.072L190.201 106.095L191.43 106.446C191.43 106.446 192.542 106.212 192.659 106.212H193.683L194.297 105.627L194.561 105.423V104.984L195.204 104.955L195.468 105.423L195.293 105.744L194.767 105.861L194.006 106.446L193.567 107.088L193.392 107.761V108.491H194.006L194.709 108.199L195.469 108.345L196.172 108.959V111.53L197.986 113.634L200.385 116.44L202.492 118.866L203.925 120.736L205.74 122.81L206.969 124.418L207.846 125.499H213.026L231.84 125.674H235.205L240.998 134.879L237.458 146.218L233.771 157.616L210.188 165.302L200.533 168.604L198.661 169.276L157.638 183.8L152.664 187.365L150.997 190.433L150.206 190.959L148.802 191.105H147.369L145.262 189.089L144.238 187.627L137.889 187.598L132.066 187.627L128.877 187.393L124.37 186.458H121.298L117.788 186.487L116.09 186.926L114.481 187.013L111.759 186.136L109.652 185.143L108.804 185.347L107.077 187.481C107.077 187.481 106.99 188.094 106.99 188.183C106.99 188.271 106.873 189.089 106.873 189.089L106.434 189.586L106.112 190.433L106.142 191.835L106.756 192.712L106.843 193.501L106.696 193.91L105.994 194.202L105.525 194.699L105.233 195.254L105.058 195.867L104.677 196.423L103.039 197.942L102.541 198.351C102.541 198.351 102.454 197.708 102.454 197.62C102.454 197.533 101.956 196.51 101.956 196.51L101.926 195.75L101.4 194.844L101.312 194.289L100.931 193.763L100.492 193.5L100.141 193.032L99.8491 192.711L99.9662 191.279L99.732 190.898C99.732 190.898 99.2339 190.607 99.1464 190.607C99.0589 190.607 98.5609 190.109 98.5609 190.109L98.1517 190.08L97.9471 189.582V189.085L97.5379 188.821L97.3332 188.324L97.1865 186.922L97.0694 186.424L97.099 186.073L97.0411 185.665L95.1983 184.32L94.2615 183.297L92.6516 182.129L91.2477 181.34L90.1062 179.937L89.3753 178.418L88.6444 177.25L88.4102 176.461L88.176 174.999L87.7667 174.269L87.445 173.597L86.7141 173.363L86.0411 172.574L85.5147 172.194L85.6897 171.58L86.0707 171.23C86.0707 171.23 86.1582 170.908 86.1003 170.791C86.0423 170.674 85.7489 170.294 85.6614 170.294C85.5739 170.294 85.2226 170.119 85.2226 170.119L85.018 169.71V168.658L85.2522 168.219L85.0772 167.781L84.5792 167.547L84.1983 167.313L84.1404 166.788L84.0529 166.32L83.9949 165.939L83.7028 165.588L83.1469 164.858L83.0298 163.923L82.7956 163.455C82.7956 163.455 82.5035 162.87 82.4147 162.812C82.3272 162.754 81.9759 162.374 81.8884 162.374C81.8009 162.374 81.42 162.053 81.42 162.053L81.2449 161.614L81.6542 161.351L81.6838 160.679L81.2153 160.153L80.864 159.889C80.864 159.889 80.4548 159.802 80.3956 159.889C80.3377 159.977 80.0443 160.123 80.0443 160.123L79.2542 159.832C79.2542 159.832 79.0496 159.306 79.0496 159.189C79.0496 159.072 78.962 158.517 78.962 158.517L78.5811 158.079L77.5272 157.319L76.3574 156.706L75.7719 156.297C75.7719 156.297 75.5673 155.888 75.4798 155.771C75.3923 155.654 74.6022 154.953 74.6022 154.953L73.7541 154.485C73.7541 154.485 72.964 154.221 72.8765 154.221C72.789 154.221 71.9113 154.192 71.7942 154.221C71.6771 154.251 71.1508 154.396 71.0337 154.368C70.9166 154.34 70.3311 154.076 70.3311 154.076L69.3363 153.257L68.3416 151.855L67.4344 150.394L66.5271 148.875L65.2982 147.501C65.2982 147.501 64.7423 146.565 64.7423 146.477C64.7423 146.39 63.7179 144.11 63.7179 144.11L63.2791 143.029L63.1916 142.24L63.5133 141.451C63.5133 141.451 63.66 140.983 63.6883 140.895C63.7179 140.808 63.6304 140.165 63.6304 140.165L63.162 139.581L62.8982 138.908L63.2495 138.383L63.7179 138.149C63.7179 138.149 63.8646 137.768 63.835 137.651C63.8054 137.534 63.5712 137.3 63.4541 137.3C63.337 137.3 62.8686 137.681 62.8686 137.681L62.5469 137.856L62.1956 137.622L61.61 135.956L61.1416 134.903L61.4929 134.319L61.9318 134.582L62.6923 134.348L63.0732 133.939L62.8686 133.589L62.5469 133.442L62.5765 132.829L62.8982 132.303L63.162 131.865L63.5712 131.397L63.4837 130.374L63.2791 130.053L62.9278 129.761L62.8403 129.176L62.9574 128.095L62.3139 127.131L62.0218 126.576L62.256 126.225L61.6422 126.021L60.8521 125.085L60.4133 124.472L60.5304 123.859L60.2962 123.362L60.1495 122.981L60.3245 122.484C60.3245 122.484 60.4712 122.045 60.412 121.928C60.3541 121.811 59.7981 121.256 59.7981 121.256L59.3297 120.876L58.8613 120.146L58.51 118.743L58.3633 117.603V117.165L58.0712 116.785L57.5732 116.697L57.4561 116.961L57.0751 117.107L56.9876 116.377L56.5488 115.354L56.3146 114.244L55.2028 113.104L54.6172 112.519L54.0034 112.344L53.2429 111.525L52.629 110.824L51.781 110.707L51.1672 110.298C51.1672 110.298 50.9922 110.064 50.9626 109.976C50.933 109.889 50.9626 109.451 50.9626 109.451L50.9047 109.07L50.4658 109.128L50.4362 109.479L50.0553 109.947L49.2652 109.509L48.7672 108.866L48.1238 108.164L47.6849 108.018L47.3928 108.281L47.2461 108.662L46.3981 108.719L45.8422 108.194L45.6375 107.668L45.3158 107.171L45.5796 106.615C45.5796 106.615 45.5796 106.265 45.4921 106.235C45.4046 106.205 45.0829 106.088 45.0829 106.088L44.527 105.125L43.7664 104.189L42.9467 103.429L42.4487 102.787L42.4191 102.085L42.9454 101.997L43.4718 101.793L43.6764 100.829L43.2375 99.7481L43.4126 99.1929L43.5593 98.4924L43.2955 97.7894C43.2955 97.7894 42.3303 97.1172 42.1836 97.0593C42.0369 97.0015 41.481 96.9128 41.5106 96.6789C41.5402 96.4449 41.8323 95.8319 41.8323 95.8319C41.8323 95.8319 41.8902 95.4231 41.8027 95.2471C41.7152 95.0723 41.1889 94.6044 41.1297 94.4874C41.0718 94.3705 40.3987 93.2896 40.3987 93.2896L39.9599 92.3834C39.9599 92.3834 39.6678 91.7703 39.5507 91.7703C39.4336 91.7703 38.5264 91.4786 38.5264 91.4786C38.5264 91.4786 37.6191 91.2447 37.6191 91.1573C37.6191 91.0699 37.1211 90.1342 37.1211 90.1342V88.1175C37.1211 88.1175 36.9165 87.5919 36.7698 87.5919C36.6231 87.5919 35.7159 87.4453 35.7159 87.4453L35.2178 86.7731L34.8086 85.9544L33.6672 83.9673C33.6672 83.9673 33.3159 82.6821 33.3159 82.5934C33.3159 82.5047 32.6428 81.1616 32.6428 81.1616L31.531 80.168L30.7705 79.5832L30.5954 78.2684L29.6586 77.4214L28.2546 76.2813L27.7862 75.6091L27.7283 73.8842L26.9974 72.9781L26.0902 72.1889L25.7388 71.0206L25.3 70.5232L25.2125 69.6762C25.2125 69.6762 24.5691 69.2675 24.5395 69.1505C24.5099 69.0336 24.3645 68.2444 24.3645 68.2444L23.6618 67.4552L23.4276 66.7534L21.9645 65.2625L21.8178 64.8538L21.9928 64.4451L21.5244 64.0942L20.6467 63.7137L20.2079 63.422L18.7744 63.6263L18.0717 63.8898L17.6625 63.4811L17.3987 63.6855C17.3987 63.6855 16.8132 63.3346 16.6961 63.305C16.579 63.2754 15.9651 63.2176 15.9355 63.305C15.9059 63.3924 15.9355 64.1816 15.9355 64.1816L15.5263 64.3281L15.3217 63.8603L15 63.5389C15 63.5389 15.3809 62.8963 15.4684 62.8667C15.5559 62.8372 15.8493 62.3989 15.8493 62.3989C15.8493 62.3989 15.8789 61.9015 15.9664 61.7267C16.0539 61.5519 16.4644 60.9079 16.4928 60.8205C16.5224 60.7331 16.6974 60.1779 16.6974 60.1779L17.1362 59.3309L17.3408 57.0803L17.1658 56.0868L17.1362 55.1807L17.3408 54.1576L17.575 53.6897L17.75 52.8427L17.8967 52.141L18.1605 51.4109L18.3947 50.7092L18.6869 49.9791L18.7448 49.2773L18.9108 48.5756L18.903 48.5794Z" stroke="white" stroke-width="4" stroke-miterlimit="10" mask="url(#path-1-outside-1_1178_502)"/>
<path d="M192.712 107.339C192.684 107.343 192.644 107.35 192.594 107.359C192.482 107.38 192.338 107.408 192.194 107.437C192.051 107.465 191.91 107.494 191.805 107.516L191.68 107.542L191.645 107.549L191.636 107.551L191.634 107.551L191.633 107.551L191.633 107.551L191.633 107.551L191.391 107.602L191.153 107.534L189.924 107.184L189.702 107.12L189.531 106.967L188.39 105.944L188.163 105.741L188.088 105.447L187.864 104.571L187.817 104.553L186.332 103.976L187.497 102.889L187.658 102.739L187.569 102.561V102.325V102.05L187.44 101.909L187.235 101.683L187.19 101.381L187.034 100.329L187.024 100.256V100.182V99.8103L186.798 99.3029L186.711 99.1086V98.8959V97.1427V97.0267L186.738 96.9137L186.867 96.3648V95.7071L186.762 95.393L186.711 95.2393V95.0773V94.5709V93.5709H187.18L186.897 92.4411H187.762L187.864 91.9673L188.842 92.1776C187.864 91.9673 187.864 91.9672 187.864 91.9671L187.865 91.9669L187.865 91.9665L187.865 91.9654L187.866 91.9624L187.867 91.9535L187.874 91.924C187.88 91.8995 187.888 91.8656 187.898 91.825C187.917 91.7448 187.946 91.6333 187.982 91.5143C188.016 91.3999 188.063 91.2555 188.123 91.1186C188.153 91.0504 188.194 90.9646 188.248 90.8777C188.282 90.8232 188.346 90.7275 188.446 90.6309C188.469 90.5992 188.502 90.5513 188.544 90.4863C188.638 90.3425 188.755 90.1537 188.872 89.9599C188.987 89.7679 189.099 89.5785 189.182 89.4366C189.223 89.3658 189.258 89.3072 189.281 89.2664L189.301 89.2328L189.778 88.2518L189.843 88.1189L189.943 88.0103L190.338 87.5828L190.674 87.0135L190.782 86.8305L190.955 86.7071L191.5 86.3177L191.761 86.1316H192.081H193.291H193.611L193.872 86.3177L194.417 86.7071L194.549 86.8008L194.644 86.9311L194.957 87.3591L195.149 87.6227V87.949V88.1869L195.294 88.218L195.31 88.2214L195.326 88.2254L195.951 88.381L196.233 88.4514L196.434 88.6629L197.137 89.4032L197.411 89.6926V90.0916V91.0659V91.1153L197.407 91.1634L197.407 91.1637L197.407 91.164L197.407 91.1643L197.407 91.1644L197.407 91.1644L197.407 91.1645L197.406 91.172L197.403 91.2064C197.401 91.237 197.398 91.2781 197.396 91.3213C197.394 91.3653 197.394 91.402 197.395 91.4275C197.395 91.428 197.395 91.4286 197.395 91.4291C197.395 91.4343 197.395 91.4383 197.395 91.4411M192.712 107.339L197.395 91.4411M192.712 107.339H193.07L193.229 107.18L193.414 107.1L193.666 106.992L193.827 106.77L194.1 106.395L194.362 106.033L194.345 105.952L194.542 105.895L194.895 105.794L195.098 105.489L195.332 105.138L195.342 105.124L195.351 105.109L195.664 104.602L195.758 104.45L195.793 104.274L195.849 104L196.033 103.601L196.077 103.506L196.101 103.403L196.235 102.814L196.825 102.195L196.848 102.171L196.869 102.145L197.259 101.677L197.348 101.571L197.405 101.444L197.717 100.742L197.804 100.548V100.335V99.0102V98.6911L197.619 98.4309L197.309 97.9953L197.076 97.3574L196.985 96.7718V96.3227V96.2636L196.978 96.2049L196.9 95.543L196.89 95.4622L196.868 95.3839L195.907 95.6608C196.868 95.3839 196.868 95.3838 196.868 95.3837L196.868 95.3835L196.868 95.3831L196.867 95.382L196.866 95.3792L196.864 95.3712L196.857 95.3464C196.851 95.3262 196.842 95.2985 196.831 95.2655C196.81 95.2005 196.779 95.1096 196.741 95.011C196.704 94.9161 196.652 94.7941 196.588 94.675C196.57 94.6417 196.54 94.5869 196.496 94.5224M192.712 107.339L196.496 94.5224M197.395 91.4411C197.396 91.4449 197.396 91.4469 197.396 91.4469C197.396 91.447 197.395 91.4451 197.395 91.4411ZM196.496 94.5224C196.496 94.4541 196.5 94.3839 196.504 94.3278C196.505 94.3 196.507 94.2777 196.509 94.2631L196.51 94.2479L196.51 94.247L196.496 94.5224ZM195.594 94.9988L195.594 94.9989L195.594 94.9988ZM192.74 107.335C192.746 107.334 192.749 107.334 192.748 107.334C192.748 107.334 192.745 107.334 192.74 107.335Z" fill="url(#paint1_linear_1178_502)" stroke="white" stroke-width="2" stroke-miterlimit="10"/>
<path d="M186.112 89.9436C186.121 89.9576 186.125 89.9649 186.127 89.9672C186.127 89.9682 186.127 89.9683 186.127 89.9677L186.12 89.9724L186.117 89.9746L186.108 89.98L186.112 89.9436ZM186.112 89.9436V88.3362V89.9436ZM186.185 92.0636L186.461 91.5108L187.007 90.4196L187.112 90.2084V89.9724V88.3362V88.1144L187.018 87.9134L186.746 87.3286L186.607 87.031L186.319 86.8736L185.839 87.7514C186.319 86.8736 186.318 86.8736 186.318 86.8736L186.318 86.8735L186.318 86.8733L186.317 86.8729L186.315 86.8718L186.309 86.8686L186.29 86.8585C186.275 86.8502 186.253 86.8389 186.227 86.8256C186.176 86.7994 186.105 86.7634 186.024 86.7264C185.947 86.6907 185.847 86.6473 185.744 86.6108C185.706 86.5974 185.63 86.5707 185.532 86.5493C185.508 86.5347 185.487 86.521 185.461 86.5049C185.426 86.4821 185.382 86.4544 185.314 86.4126C185.22 86.3547 185.054 86.2543 184.878 86.1878C184.794 86.1563 184.628 86.1002 184.423 86.1001C184.202 86.1 183.849 86.1717 183.588 86.4885C183.581 86.4956 183.566 86.5094 183.541 86.5307C183.487 86.5775 183.418 86.6344 183.343 86.693C183.27 86.7505 183.199 86.8044 183.146 86.8442C183.12 86.864 183.099 86.88 183.084 86.8908L183.068 86.903L183.064 86.9059L183.063 86.9064L183.063 86.9064L183.063 86.9064L183.063 86.9064L183.063 86.9065L182.518 87.3063L182.686 87.9614L183.037 89.3303L183.117 89.6417L183.363 89.8482L184.103 90.4682C184.13 90.5146 184.161 90.568 184.192 90.6231C184.275 90.7656 184.392 90.9685 184.453 91.0625C184.454 91.0638 184.462 91.0784 184.48 91.1125C184.503 91.1567 184.53 91.2114 184.557 91.2678C184.583 91.3233 184.608 91.3761 184.626 91.4154L184.648 91.4615L184.653 91.4736L184.654 91.4765L184.655 91.477L184.655 91.477L184.655 91.477L184.655 91.477L184.655 91.4771L184.921 92.0636H185.565H185.567H186.185Z" fill="url(#paint2_linear_1178_502)" stroke="white" stroke-width="2" stroke-miterlimit="10"/>
<mask id="path-4-outside-2_1178_502" maskUnits="userSpaceOnUse" x="183.164" y="84.5747" width="66" height="44" fill="black">
<rect fill="white" x="183.164" y="84.5747" width="66" height="44"/>
<path d="M196.169 109.085V111.657L197.984 113.761L200.382 116.567L202.489 118.992L203.923 120.862L205.737 122.937L206.966 124.545L207.844 125.626H213.023L231.837 125.801H235.202L236.636 121.533L237.865 117.442L239.211 113.643L239.933 111.578L240.245 111.169L240.908 110.72L241.494 110.506L241.981 110.427L242.039 109.959L241.494 109.745L241.084 109.666L240.539 109.628C240.539 109.628 240.07 109.2 240.07 109.083C240.07 108.966 239.992 107.797 239.992 107.719C239.992 107.641 240.265 106.647 240.265 106.647L240.752 105.692L241.298 105.166L241.63 104.835L241.786 104.133L242.039 103.471L242.331 102.965L242.877 102.478L243.384 102.692L243.559 103.062V103.375L245.08 102.343L245.606 101.564L246.328 100.766L246.757 100.298V95.0371L246.582 93.9459L245.879 93.5757L245.743 93.2056L245.996 89.7378L245.977 88.6081L245.841 88.004L245.431 87.6531L244.924 87.5747L244.437 88.7045L244.085 89.9512L243.598 90.9062L242.895 91.7249L241.257 92.8161L240.184 93.6143L239.423 94.3546L238.486 94.5101L238.037 94.8417L238.076 95.6206L237.686 95.9329L237.1 95.8545L236.847 96.4394L236.964 96.6926L236.613 97.0627L235.833 96.8674C235.833 96.8674 234.546 99.1076 234.525 99.1667C234.506 99.2246 233.471 100.297 233.471 100.297C233.471 100.297 232.496 100.958 232.417 100.958C232.339 100.958 231.501 101.271 231.501 101.271L229.141 103.356V104.349C229.141 104.349 228.926 105.109 228.907 105.168C228.888 105.226 228.711 105.805 228.711 105.805L228.419 105.713C228.419 105.713 228.185 106.317 228.068 106.414C227.951 106.512 227.385 106.336 227.385 106.336L227.482 106.998L227.424 107.543L226.975 107.738L226.76 108.264L226.409 108.673C226.409 108.673 225.843 109.101 225.746 109.141C225.649 109.179 225.142 109.277 225.044 109.277C224.946 109.277 224.088 109.102 224.088 109.102L224.692 108.947V108.342L224.888 108.03L225.063 108.575C225.063 108.575 225.766 108.497 225.785 108.439C225.804 108.381 225.706 107.66 225.629 107.601C225.551 107.543 224.869 107.348 224.869 107.348L223.913 107.815L224.01 108.069L223.893 108.341L223.367 108.36L222.977 108.633L223.211 109.159L223.64 109.256C223.64 109.256 223.893 109.412 223.893 109.471C223.893 109.53 223.757 109.899 223.678 109.958C223.6 110.016 223.016 110.309 223.016 110.309L222.664 110.328L221.553 110.796L219.836 111.302L218.294 111.264L217.027 111.245L215.973 110.7L215.602 110.563C215.602 110.563 214.724 110.485 214.627 110.485C214.529 110.485 213.885 110.368 213.749 110.29C213.613 110.211 213.066 110.27 213.066 110.27L212.617 110.543C212.617 110.543 212.031 110.543 211.954 110.504C211.875 110.466 211.525 110.213 211.33 110.213C211.134 110.213 209.204 110.291 209.125 110.291C209.047 110.291 207.994 110.252 207.994 110.252L207.487 109.882C207.487 109.882 207.097 109.882 207.038 109.921C206.98 109.959 206.433 110.583 206.433 110.583L205.692 111.051L204.619 111.576L204.365 111.889L203.935 112.122L203.311 112.297C203.311 112.297 202.492 112.2 202.414 112.161C202.336 112.122 201.673 111.908 201.673 111.908L200.619 111.85L199.605 111.908L198.806 111.674L198.318 111.342L198.28 110.66L198.299 109.803L198.416 109.296C198.416 109.296 198.377 109.004 198.299 108.984C198.22 108.965 197.87 109.081 197.87 109.081L197.617 109.394L197.246 109.336L196.974 109.434L196.447 109.336L196.164 109.083L196.169 109.085Z"/>
</mask>
<path d="M196.169 109.085V111.657L197.984 113.761L200.382 116.567L202.489 118.992L203.923 120.862L205.737 122.937L206.966 124.545L207.844 125.626H213.023L231.837 125.801H235.202L236.636 121.533L237.865 117.442L239.211 113.643L239.933 111.578L240.245 111.169L240.908 110.72L241.494 110.506L241.981 110.427L242.039 109.959L241.494 109.745L241.084 109.666L240.539 109.628C240.539 109.628 240.07 109.2 240.07 109.083C240.07 108.966 239.992 107.797 239.992 107.719C239.992 107.641 240.265 106.647 240.265 106.647L240.752 105.692L241.298 105.166L241.63 104.835L241.786 104.133L242.039 103.471L242.331 102.965L242.877 102.478L243.384 102.692L243.559 103.062V103.375L245.08 102.343L245.606 101.564L246.328 100.766L246.757 100.298V95.0371L246.582 93.9459L245.879 93.5757L245.743 93.2056L245.996 89.7378L245.977 88.6081L245.841 88.004L245.431 87.6531L244.924 87.5747L244.437 88.7045L244.085 89.9512L243.598 90.9062L242.895 91.7249L241.257 92.8161L240.184 93.6143L239.423 94.3546L238.486 94.5101L238.037 94.8417L238.076 95.6206L237.686 95.9329L237.1 95.8545L236.847 96.4394L236.964 96.6926L236.613 97.0627L235.833 96.8674C235.833 96.8674 234.546 99.1076 234.525 99.1667C234.506 99.2246 233.471 100.297 233.471 100.297C233.471 100.297 232.496 100.958 232.417 100.958C232.339 100.958 231.501 101.271 231.501 101.271L229.141 103.356V104.349C229.141 104.349 228.926 105.109 228.907 105.168C228.888 105.226 228.711 105.805 228.711 105.805L228.419 105.713C228.419 105.713 228.185 106.317 228.068 106.414C227.951 106.512 227.385 106.336 227.385 106.336L227.482 106.998L227.424 107.543L226.975 107.738L226.76 108.264L226.409 108.673C226.409 108.673 225.843 109.101 225.746 109.141C225.649 109.179 225.142 109.277 225.044 109.277C224.946 109.277 224.088 109.102 224.088 109.102L224.692 108.947V108.342L224.888 108.03L225.063 108.575C225.063 108.575 225.766 108.497 225.785 108.439C225.804 108.381 225.706 107.66 225.629 107.601C225.551 107.543 224.869 107.348 224.869 107.348L223.913 107.815L224.01 108.069L223.893 108.341L223.367 108.36L222.977 108.633L223.211 109.159L223.64 109.256C223.64 109.256 223.893 109.412 223.893 109.471C223.893 109.53 223.757 109.899 223.678 109.958C223.6 110.016 223.016 110.309 223.016 110.309L222.664 110.328L221.553 110.796L219.836 111.302L218.294 111.264L217.027 111.245L215.973 110.7L215.602 110.563C215.602 110.563 214.724 110.485 214.627 110.485C214.529 110.485 213.885 110.368 213.749 110.29C213.613 110.211 213.066 110.27 213.066 110.27L212.617 110.543C212.617 110.543 212.031 110.543 211.954 110.504C211.875 110.466 211.525 110.213 211.33 110.213C211.134 110.213 209.204 110.291 209.125 110.291C209.047 110.291 207.994 110.252 207.994 110.252L207.487 109.882C207.487 109.882 207.097 109.882 207.038 109.921C206.98 109.959 206.433 110.583 206.433 110.583L205.692 111.051L204.619 111.576L204.365 111.889L203.935 112.122L203.311 112.297C203.311 112.297 202.492 112.2 202.414 112.161C202.336 112.122 201.673 111.908 201.673 111.908L200.619 111.85L199.605 111.908L198.806 111.674L198.318 111.342L198.28 110.66L198.299 109.803L198.416 109.296C198.416 109.296 198.377 109.004 198.299 108.984C198.22 108.965 197.87 109.081 197.87 109.081L197.617 109.394L197.246 109.336L196.974 109.434L196.447 109.336L196.164 109.083L196.169 109.085Z" fill="url(#paint3_linear_1178_502)"/>
<path d="M196.169 109.085V111.657L197.984 113.761L200.382 116.567L202.489 118.992L203.923 120.862L205.737 122.937L206.966 124.545L207.844 125.626H213.023L231.837 125.801H235.202L236.636 121.533L237.865 117.442L239.211 113.643L239.933 111.578L240.245 111.169L240.908 110.72L241.494 110.506L241.981 110.427L242.039 109.959L241.494 109.745L241.084 109.666L240.539 109.628C240.539 109.628 240.07 109.2 240.07 109.083C240.07 108.966 239.992 107.797 239.992 107.719C239.992 107.641 240.265 106.647 240.265 106.647L240.752 105.692L241.298 105.166L241.63 104.835L241.786 104.133L242.039 103.471L242.331 102.965L242.877 102.478L243.384 102.692L243.559 103.062V103.375L245.08 102.343L245.606 101.564L246.328 100.766L246.757 100.298V95.0371L246.582 93.9459L245.879 93.5757L245.743 93.2056L245.996 89.7378L245.977 88.6081L245.841 88.004L245.431 87.6531L244.924 87.5747L244.437 88.7045L244.085 89.9512L243.598 90.9062L242.895 91.7249L241.257 92.8161L240.184 93.6143L239.423 94.3546L238.486 94.5101L238.037 94.8417L238.076 95.6206L237.686 95.9329L237.1 95.8545L236.847 96.4394L236.964 96.6926L236.613 97.0627L235.833 96.8674C235.833 96.8674 234.546 99.1076 234.525 99.1667C234.506 99.2246 233.471 100.297 233.471 100.297C233.471 100.297 232.496 100.958 232.417 100.958C232.339 100.958 231.501 101.271 231.501 101.271L229.141 103.356V104.349C229.141 104.349 228.926 105.109 228.907 105.168C228.888 105.226 228.711 105.805 228.711 105.805L228.419 105.713C228.419 105.713 228.185 106.317 228.068 106.414C227.951 106.512 227.385 106.336 227.385 106.336L227.482 106.998L227.424 107.543L226.975 107.738L226.76 108.264L226.409 108.673C226.409 108.673 225.843 109.101 225.746 109.141C225.649 109.179 225.142 109.277 225.044 109.277C224.946 109.277 224.088 109.102 224.088 109.102L224.692 108.947V108.342L224.888 108.03L225.063 108.575C225.063 108.575 225.766 108.497 225.785 108.439C225.804 108.381 225.706 107.66 225.629 107.601C225.551 107.543 224.869 107.348 224.869 107.348L223.913 107.815L224.01 108.069L223.893 108.341L223.367 108.36L222.977 108.633L223.211 109.159L223.64 109.256C223.64 109.256 223.893 109.412 223.893 109.471C223.893 109.53 223.757 109.899 223.678 109.958C223.6 110.016 223.016 110.309 223.016 110.309L222.664 110.328L221.553 110.796L219.836 111.302L218.294 111.264L217.027 111.245L215.973 110.7L215.602 110.563C215.602 110.563 214.724 110.485 214.627 110.485C214.529 110.485 213.885 110.368 213.749 110.29C213.613 110.211 213.066 110.27 213.066 110.27L212.617 110.543C212.617 110.543 212.031 110.543 211.954 110.504C211.875 110.466 211.525 110.213 211.33 110.213C211.134 110.213 209.204 110.291 209.125 110.291C209.047 110.291 207.994 110.252 207.994 110.252L207.487 109.882C207.487 109.882 207.097 109.882 207.038 109.921C206.98 109.959 206.433 110.583 206.433 110.583L205.692 111.051L204.619 111.576L204.365 111.889L203.935 112.122L203.311 112.297C203.311 112.297 202.492 112.2 202.414 112.161C202.336 112.122 201.673 111.908 201.673 111.908L200.619 111.85L199.605 111.908L198.806 111.674L198.318 111.342L198.28 110.66L198.299 109.803L198.416 109.296C198.416 109.296 198.377 109.004 198.299 108.984C198.22 108.965 197.87 109.081 197.87 109.081L197.617 109.394L197.246 109.336L196.974 109.434L196.447 109.336L196.164 109.083L196.169 109.085Z" stroke="white" stroke-width="4" stroke-miterlimit="10" mask="url(#path-4-outside-2_1178_502)"/>
<mask id="path-5-outside-3_1178_502" maskUnits="userSpaceOnUse" x="97.5469" y="166.057" width="118" height="76" fill="black">
<rect fill="white" x="97.5469" y="166.057" width="118" height="76"/>
<path d="M102.536 198.483L103.034 198.074L104.673 196.555L105.053 196L105.228 195.387L105.521 194.831L105.989 194.334L106.692 194.042L106.838 193.633L106.751 192.844L106.137 191.968L106.107 190.565L106.429 189.718L106.868 189.221C106.868 189.221 106.985 188.402 106.985 188.315C106.985 188.227 107.073 187.613 107.073 187.613L108.8 185.48L109.648 185.275L111.754 186.269L114.476 187.145L116.086 187.058L117.783 186.62L121.294 186.59H124.365L128.872 187.526L132.061 187.76L137.884 187.73L144.233 187.76L145.258 189.221L147.364 191.238H148.798L150.202 191.091L150.992 190.565L152.66 187.497L157.633 183.932L198.656 169.408L199.71 169.057L204.245 178.205L208.722 186.855L208.253 187.848L208.283 188.287C208.283 188.287 208.547 188.55 208.722 188.55C208.897 188.55 209.541 188.667 209.541 188.667L209.746 189.048L209.893 189.837L210.214 190.918L210.887 191.941L211.882 193.432L212.438 194.863L210.185 195.477C210.185 195.477 208.575 196.032 208.547 196.119C208.517 196.207 208.166 196.849 208.166 196.849L206.79 197.024L205.035 198.047L204.157 199.275L203.484 200.911L203.367 201.787L202.841 202.343V203.161L203.25 204.506L203.045 205.499L203.075 206.201L202.489 206.493L201.231 206.873L199.827 207.428L199.418 208.305H198.627L197.72 208.509L197.194 209.239V209.882C197.194 209.882 196.521 209.94 196.404 209.882C196.287 209.824 195.058 209.908 195.058 209.908C195.058 209.908 194.736 210.261 194.619 210.35C194.502 210.439 193.537 210.613 193.537 210.613L190.787 211.49L189.236 211.958L187.802 212.279L186.748 212.63C186.748 212.63 185.666 212.367 185.519 212.367C185.373 212.367 184.408 212.805 184.408 212.805L183.5 213.711C183.5 213.711 183.558 214.12 183.002 214.149C182.446 214.179 181.364 214.207 181.218 214.207C181.071 214.207 180.662 214.528 180.604 214.616C180.546 214.703 180.604 214.996 180.223 215.054C179.842 215.112 179.023 215.025 179.023 215.025L177.999 214.761L176.828 215.608L176.125 215.842H175.804C175.804 215.842 175.394 216.193 175.306 216.222C175.218 216.252 174.019 216.427 174.019 216.427L173.433 216.982L172.351 216.807L171.648 217.479C171.648 217.479 171.385 217.626 171.297 217.684C171.21 217.742 170.858 217.888 170.858 217.888L170.537 218.386H170.01L169.22 218.736L168.898 219.35L168.84 220.051L168.636 220.607L167.671 221.425L166.646 222.331L166.12 223.004L164.862 223.88H163.692L163.283 224.114L162.375 223.939L161.234 224.114L160.531 224.318L159.712 223.91L158.542 223.529L157.488 223.91C157.488 223.91 156.698 224.523 156.64 224.64C156.582 224.757 155.792 225.108 155.792 225.108H154.972C154.972 225.108 154.416 225.78 154.329 225.867C154.241 225.955 152.953 227.212 152.953 227.212L152.25 227.737L151.081 228.118L149.911 228.498L147.921 228.703L146.311 229.287L145.229 230.077L143.474 230.223L140.196 230.632H137.387C137.387 230.632 135.398 230.602 135.31 230.632C135.223 230.661 133.877 231.157 133.789 231.217C133.702 231.274 132.092 231.889 132.092 231.889L131.623 232.736L131.038 233.583L130.657 234.109L130.013 234.43C130.013 234.43 129.282 234.372 129.194 234.43C129.105 234.488 128.55 234.693 128.55 234.693L127.848 235.336L127.145 236.155L126.94 237.031L126.531 237.908L126.267 238.171C126.267 238.171 125.507 237.997 125.448 237.908C125.39 237.82 124.57 237.674 124.57 237.674L124.189 237.41L123.311 237.323C123.311 237.323 122.99 237.031 122.902 237.031C122.815 237.031 122.229 237.002 122.229 237.002C122.229 237.002 121.556 236.972 121.409 237.089C121.263 237.206 120.766 237.587 120.766 237.587L120.327 238.171L119.684 238.552L118.572 239.254H115.967L115.09 238.962C115.09 238.962 114.563 238.787 114.446 238.787H113.569C113.569 238.787 112.866 238.787 112.778 238.817C112.691 238.846 112.048 238.874 111.93 238.874C111.813 238.874 110.759 238.611 110.759 238.611H110.086L109.765 238.202L109.94 237.53L110.115 237.092L109.763 236.332L109.382 235.396C109.382 235.396 109.148 234.812 109.061 234.754C108.973 234.696 108.213 234.052 108.213 234.052L107.921 233.467L107.423 232.737L107.51 232.094L107.305 231.218L107.774 229.669L107.891 227.74L107.335 225.811L106.721 224.408L105.931 222.977L105.317 221.603L104.936 220.171L104.555 219.06L105.141 219.002L105.199 218.009L104.496 216.401L104.35 215.144L103.911 213.859L103.502 212.806L103.444 211.842L103.297 211.345L102.536 210.936H101.307L100.956 210.994L100.547 210.613L100.694 209.824L100.723 208.977L100.898 208.305L101.103 208.392L101.367 209.356L101.571 210.029L102.185 210.233L102.653 210.584C102.653 210.584 102.828 210.35 102.858 210.233C102.888 210.116 102.683 209.239 102.683 209.239C102.683 209.239 102.478 208.801 102.478 208.714C102.478 208.626 102.449 207.545 102.449 207.545L101.835 206.961L101.893 205.791L101.659 205.206L101.951 204.797L102.185 204.155H102.624C102.624 204.155 102.946 203.542 102.946 203.453V202.46L103.063 201.496V200.649L102.888 200.151L102.713 199.128L102.538 198.485L102.536 198.483Z"/>
</mask>
<path d="M102.536 198.483L103.034 198.074L104.673 196.555L105.053 196L105.228 195.387L105.521 194.831L105.989 194.334L106.692 194.042L106.838 193.633L106.751 192.844L106.137 191.968L106.107 190.565L106.429 189.718L106.868 189.221C106.868 189.221 106.985 188.402 106.985 188.315C106.985 188.227 107.073 187.613 107.073 187.613L108.8 185.48L109.648 185.275L111.754 186.269L114.476 187.145L116.086 187.058L117.783 186.62L121.294 186.59H124.365L128.872 187.526L132.061 187.76L137.884 187.73L144.233 187.76L145.258 189.221L147.364 191.238H148.798L150.202 191.091L150.992 190.565L152.66 187.497L157.633 183.932L198.656 169.408L199.71 169.057L204.245 178.205L208.722 186.855L208.253 187.848L208.283 188.287C208.283 188.287 208.547 188.55 208.722 188.55C208.897 188.55 209.541 188.667 209.541 188.667L209.746 189.048L209.893 189.837L210.214 190.918L210.887 191.941L211.882 193.432L212.438 194.863L210.185 195.477C210.185 195.477 208.575 196.032 208.547 196.119C208.517 196.207 208.166 196.849 208.166 196.849L206.79 197.024L205.035 198.047L204.157 199.275L203.484 200.911L203.367 201.787L202.841 202.343V203.161L203.25 204.506L203.045 205.499L203.075 206.201L202.489 206.493L201.231 206.873L199.827 207.428L199.418 208.305H198.627L197.72 208.509L197.194 209.239V209.882C197.194 209.882 196.521 209.94 196.404 209.882C196.287 209.824 195.058 209.908 195.058 209.908C195.058 209.908 194.736 210.261 194.619 210.35C194.502 210.439 193.537 210.613 193.537 210.613L190.787 211.49L189.236 211.958L187.802 212.279L186.748 212.63C186.748 212.63 185.666 212.367 185.519 212.367C185.373 212.367 184.408 212.805 184.408 212.805L183.5 213.711C183.5 213.711 183.558 214.12 183.002 214.149C182.446 214.179 181.364 214.207 181.218 214.207C181.071 214.207 180.662 214.528 180.604 214.616C180.546 214.703 180.604 214.996 180.223 215.054C179.842 215.112 179.023 215.025 179.023 215.025L177.999 214.761L176.828 215.608L176.125 215.842H175.804C175.804 215.842 175.394 216.193 175.306 216.222C175.218 216.252 174.019 216.427 174.019 216.427L173.433 216.982L172.351 216.807L171.648 217.479C171.648 217.479 171.385 217.626 171.297 217.684C171.21 217.742 170.858 217.888 170.858 217.888L170.537 218.386H170.01L169.22 218.736L168.898 219.35L168.84 220.051L168.636 220.607L167.671 221.425L166.646 222.331L166.12 223.004L164.862 223.88H163.692L163.283 224.114L162.375 223.939L161.234 224.114L160.531 224.318L159.712 223.91L158.542 223.529L157.488 223.91C157.488 223.91 156.698 224.523 156.64 224.64C156.582 224.757 155.792 225.108 155.792 225.108H154.972C154.972 225.108 154.416 225.78 154.329 225.867C154.241 225.955 152.953 227.212 152.953 227.212L152.25 227.737L151.081 228.118L149.911 228.498L147.921 228.703L146.311 229.287L145.229 230.077L143.474 230.223L140.196 230.632H137.387C137.387 230.632 135.398 230.602 135.31 230.632C135.223 230.661 133.877 231.157 133.789 231.217C133.702 231.274 132.092 231.889 132.092 231.889L131.623 232.736L131.038 233.583L130.657 234.109L130.013 234.43C130.013 234.43 129.282 234.372 129.194 234.43C129.105 234.488 128.55 234.693 128.55 234.693L127.848 235.336L127.145 236.155L126.94 237.031L126.531 237.908L126.267 238.171C126.267 238.171 125.507 237.997 125.448 237.908C125.39 237.82 124.57 237.674 124.57 237.674L124.189 237.41L123.311 237.323C123.311 237.323 122.99 237.031 122.902 237.031C122.815 237.031 122.229 237.002 122.229 237.002C122.229 237.002 121.556 236.972 121.409 237.089C121.263 237.206 120.766 237.587 120.766 237.587L120.327 238.171L119.684 238.552L118.572 239.254H115.967L115.09 238.962C115.09 238.962 114.563 238.787 114.446 238.787H113.569C113.569 238.787 112.866 238.787 112.778 238.817C112.691 238.846 112.048 238.874 111.93 238.874C111.813 238.874 110.759 238.611 110.759 238.611H110.086L109.765 238.202L109.94 237.53L110.115 237.092L109.763 236.332L109.382 235.396C109.382 235.396 109.148 234.812 109.061 234.754C108.973 234.696 108.213 234.052 108.213 234.052L107.921 233.467L107.423 232.737L107.51 232.094L107.305 231.218L107.774 229.669L107.891 227.74L107.335 225.811L106.721 224.408L105.931 222.977L105.317 221.603L104.936 220.171L104.555 219.06L105.141 219.002L105.199 218.009L104.496 216.401L104.35 215.144L103.911 213.859L103.502 212.806L103.444 211.842L103.297 211.345L102.536 210.936H101.307L100.956 210.994L100.547 210.613L100.694 209.824L100.723 208.977L100.898 208.305L101.103 208.392L101.367 209.356L101.571 210.029L102.185 210.233L102.653 210.584C102.653 210.584 102.828 210.35 102.858 210.233C102.888 210.116 102.683 209.239 102.683 209.239C102.683 209.239 102.478 208.801 102.478 208.714C102.478 208.626 102.449 207.545 102.449 207.545L101.835 206.961L101.893 205.791L101.659 205.206L101.951 204.797L102.185 204.155H102.624C102.624 204.155 102.946 203.542 102.946 203.453V202.46L103.063 201.496V200.649L102.888 200.151L102.713 199.128L102.538 198.485L102.536 198.483Z" fill="url(#paint4_linear_1178_502)"/>
<path d="M102.536 198.483L103.034 198.074L104.673 196.555L105.053 196L105.228 195.387L105.521 194.831L105.989 194.334L106.692 194.042L106.838 193.633L106.751 192.844L106.137 191.968L106.107 190.565L106.429 189.718L106.868 189.221C106.868 189.221 106.985 188.402 106.985 188.315C106.985 188.227 107.073 187.613 107.073 187.613L108.8 185.48L109.648 185.275L111.754 186.269L114.476 187.145L116.086 187.058L117.783 186.62L121.294 186.59H124.365L128.872 187.526L132.061 187.76L137.884 187.73L144.233 187.76L145.258 189.221L147.364 191.238H148.798L150.202 191.091L150.992 190.565L152.66 187.497L157.633 183.932L198.656 169.408L199.71 169.057L204.245 178.205L208.722 186.855L208.253 187.848L208.283 188.287C208.283 188.287 208.547 188.55 208.722 188.55C208.897 188.55 209.541 188.667 209.541 188.667L209.746 189.048L209.893 189.837L210.214 190.918L210.887 191.941L211.882 193.432L212.438 194.863L210.185 195.477C210.185 195.477 208.575 196.032 208.547 196.119C208.517 196.207 208.166 196.849 208.166 196.849L206.79 197.024L205.035 198.047L204.157 199.275L203.484 200.911L203.367 201.787L202.841 202.343V203.161L203.25 204.506L203.045 205.499L203.075 206.201L202.489 206.493L201.231 206.873L199.827 207.428L199.418 208.305H198.627L197.72 208.509L197.194 209.239V209.882C197.194 209.882 196.521 209.94 196.404 209.882C196.287 209.824 195.058 209.908 195.058 209.908C195.058 209.908 194.736 210.261 194.619 210.35C194.502 210.439 193.537 210.613 193.537 210.613L190.787 211.49L189.236 211.958L187.802 212.279L186.748 212.63C186.748 212.63 185.666 212.367 185.519 212.367C185.373 212.367 184.408 212.805 184.408 212.805L183.5 213.711C183.5 213.711 183.558 214.12 183.002 214.149C182.446 214.179 181.364 214.207 181.218 214.207C181.071 214.207 180.662 214.528 180.604 214.616C180.546 214.703 180.604 214.996 180.223 215.054C179.842 215.112 179.023 215.025 179.023 215.025L177.999 214.761L176.828 215.608L176.125 215.842H175.804C175.804 215.842 175.394 216.193 175.306 216.222C175.218 216.252 174.019 216.427 174.019 216.427L173.433 216.982L172.351 216.807L171.648 217.479C171.648 217.479 171.385 217.626 171.297 217.684C171.21 217.742 170.858 217.888 170.858 217.888L170.537 218.386H170.01L169.22 218.736L168.898 219.35L168.84 220.051L168.636 220.607L167.671 221.425L166.646 222.331L166.12 223.004L164.862 223.88H163.692L163.283 224.114L162.375 223.939L161.234 224.114L160.531 224.318L159.712 223.91L158.542 223.529L157.488 223.91C157.488 223.91 156.698 224.523 156.64 224.64C156.582 224.757 155.792 225.108 155.792 225.108H154.972C154.972 225.108 154.416 225.78 154.329 225.867C154.241 225.955 152.953 227.212 152.953 227.212L152.25 227.737L151.081 228.118L149.911 228.498L147.921 228.703L146.311 229.287L145.229 230.077L143.474 230.223L140.196 230.632H137.387C137.387 230.632 135.398 230.602 135.31 230.632C135.223 230.661 133.877 231.157 133.789 231.217C133.702 231.274 132.092 231.889 132.092 231.889L131.623 232.736L131.038 233.583L130.657 234.109L130.013 234.43C130.013 234.43 129.282 234.372 129.194 234.43C129.105 234.488 128.55 234.693 128.55 234.693L127.848 235.336L127.145 236.155L126.94 237.031L126.531 237.908L126.267 238.171C126.267 238.171 125.507 237.997 125.448 237.908C125.39 237.82 124.57 237.674 124.57 237.674L124.189 237.41L123.311 237.323C123.311 237.323 122.99 237.031 122.902 237.031C122.815 237.031 122.229 237.002 122.229 237.002C122.229 237.002 121.556 236.972 121.409 237.089C121.263 237.206 120.766 237.587 120.766 237.587L120.327 238.171L119.684 238.552L118.572 239.254H115.967L115.09 238.962C115.09 238.962 114.563 238.787 114.446 238.787H113.569C113.569 238.787 112.866 238.787 112.778 238.817C112.691 238.846 112.048 238.874 111.93 238.874C111.813 238.874 110.759 238.611 110.759 238.611H110.086L109.765 238.202L109.94 237.53L110.115 237.092L109.763 236.332L109.382 235.396C109.382 235.396 109.148 234.812 109.061 234.754C108.973 234.696 108.213 234.052 108.213 234.052L107.921 233.467L107.423 232.737L107.51 232.094L107.305 231.218L107.774 229.669L107.891 227.74L107.335 225.811L106.721 224.408L105.931 222.977L105.317 221.603L104.936 220.171L104.555 219.06L105.141 219.002L105.199 218.009L104.496 216.401L104.35 215.144L103.911 213.859L103.502 212.806L103.444 211.842L103.297 211.345L102.536 210.936H101.307L100.956 210.994L100.547 210.613L100.694 209.824L100.723 208.977L100.898 208.305L101.103 208.392L101.367 209.356L101.571 210.029L102.185 210.233L102.653 210.584C102.653 210.584 102.828 210.35 102.858 210.233C102.888 210.116 102.683 209.239 102.683 209.239C102.683 209.239 102.478 208.801 102.478 208.714C102.478 208.626 102.449 207.545 102.449 207.545L101.835 206.961L101.893 205.791L101.659 205.206L101.951 204.797L102.185 204.155H102.624C102.624 204.155 102.946 203.542 102.946 203.453V202.46L103.063 201.496V200.649L102.888 200.151L102.713 199.128L102.538 198.485L102.536 198.483Z" stroke="white" stroke-width="4" stroke-miterlimit="10" mask="url(#path-5-outside-3_1178_502)"/>
<mask id="path-6-outside-4_1178_502" maskUnits="userSpaceOnUse" x="196.709" y="96.2969" width="91" height="101" fill="black">
<rect fill="white" x="196.709" y="96.2969" width="91" height="101"/>
<path d="M212.437 194.858L211.881 193.426L210.887 191.936L210.214 190.912L209.892 189.832L209.745 189.042L209.541 188.662C209.541 188.662 208.897 188.545 208.721 188.545C208.545 188.545 208.282 188.281 208.282 188.281L208.252 187.843L208.721 186.85L204.244 178.2L199.709 169.052L201.018 168.563L210.184 165.428L233.767 157.742L237.454 146.344L240.994 135.005L235.201 125.8L236.634 121.532L237.863 117.441L239.209 113.642L239.931 111.577L240.244 111.168L240.906 110.719L241.492 110.505L241.98 110.426L242.038 109.958L241.492 109.744L241.083 109.665L240.537 109.627C240.537 109.627 240.069 109.199 240.069 109.082C240.069 108.965 239.99 107.797 239.99 107.718C239.99 107.64 240.263 106.646 240.263 106.646L240.751 105.691L241.296 105.166L241.628 104.834L241.784 104.132L242.038 103.47L242.33 102.964L242.875 102.477L243.382 102.691L243.557 103.062V103.374L245.078 102.342L245.605 101.563L246.327 100.765L246.755 100.297L246.914 100.697L247.605 101.72V102.158L247.78 102.421L248.101 102.772L248.365 103.211V103.649L249.038 104.934L249.858 106.103L250.795 106.95L251.614 108.147L252.522 109.054L253.078 110.106C253.078 110.106 253.634 110.749 253.663 110.836C253.693 110.924 254.161 111.128 254.161 111.128L254.864 111.479L255.332 112.005L255.976 112.502L257.058 113.028L259.194 113.934C259.194 113.934 260.774 114.606 260.862 114.693C260.949 114.781 261.652 115.074 261.739 115.074C261.827 115.074 262.353 114.84 262.353 114.84L262.763 115.132L263.67 115.366L264.547 115.453L265.455 115.483L266.157 115.6L266.918 115.95C266.918 115.95 267.269 116.242 267.357 116.331C267.444 116.418 268.059 116.652 268.264 116.682C268.468 116.711 269.376 116.769 269.376 116.769L270.136 116.799L271.161 117.558L271.863 117.85L273.005 118.669L273.765 119.311C273.765 119.311 274.087 119.633 274.174 119.779C274.262 119.926 274.818 120.685 274.818 120.685L275.257 121.358L275.988 122.381L276.895 123.872L277.743 124.631L278.152 125.537L278.972 126.473L279.849 127.467L280.552 128.168C280.552 128.168 281.078 128.432 281.166 128.49C281.253 128.548 282.044 128.694 282.044 128.694L282.774 128.781L283.155 129.337V129.073L283.799 129.103C283.799 129.103 284.15 129.571 284.238 129.688C284.325 129.805 284.619 130.33 284.619 130.33L284.267 130.798V131.441L284.297 132.143L283.828 132.844L283.302 133.225L282.804 133.867L282.657 135.153L282.219 135.971L281.311 137.228L280.726 138.456L280.023 139.8L279.525 140.794L279.086 141.379L278.355 142.109L276.219 143.717L275.399 144.506L274.522 145.324L273.849 145.909L273.557 146.756L273.235 147.692L272.796 148.335C272.796 148.335 272.065 148.392 272.006 148.481C271.948 148.569 271.772 149.066 271.772 149.211C271.772 149.356 272.503 149.649 272.503 149.649L271.889 150L271.216 150.439L270.807 151.198C270.807 151.198 270.602 152.221 270.632 152.309C270.661 152.396 270.69 153.127 270.719 153.215C270.749 153.302 270.661 153.653 270.572 153.683C270.484 153.712 269.842 153.683 269.842 153.683L269.286 154.121L268.583 154.151L267.94 154.208L267.53 154.062L267.179 153.624L267.004 153.243L266.974 152.746L267.121 152.658L267.238 152.337L267.151 151.899C267.151 151.899 267.063 151.577 266.946 151.49C266.829 151.403 266.273 151.227 266.273 151.227L265.747 151.548C265.747 151.548 265.513 152.103 265.513 152.19C265.513 152.278 265.57 152.98 265.57 152.98L265.072 153.331L264.574 153.856L264.516 154.295L264.224 154.586L263.405 154.995L263.113 155.375L262.908 155.814C262.908 155.814 262.938 156.399 263.025 156.515C263.113 156.632 263.172 157.041 263.172 157.041L262.791 157.626L262.82 158.269L262.586 158.62L262.411 159.233L262.353 159.788L261.972 160.168L261.504 160.753L261.416 161.162L261.563 161.6L261.738 161.921V162.36L261.591 162.711L261.709 163.208L262.03 163.763L262.235 164.552L262.118 165.165L262.147 165.867L262.235 166.539L262.644 167.212C262.644 167.212 262.936 167.299 262.966 167.416C262.995 167.533 263.2 168.322 263.2 168.322C263.2 168.322 263.083 168.82 263.053 168.907C263.024 168.994 262.732 169.404 262.732 169.404L260.83 169.775H258.518L256.353 170.194L254.949 170.251L253.368 170.807L252.257 171.713L251.291 172.56L250.823 173.379L250.706 174.138L250.618 175.395C250.618 175.395 250.531 176.067 250.501 176.155C250.472 176.242 250.472 176.768 250.472 176.768L250.003 177.47L249.974 178.083C249.974 178.083 249.682 178.58 249.652 178.667C249.622 178.755 248.891 179.31 248.891 179.31L248.511 179.748C248.511 179.748 248.306 180.304 248.247 180.421C248.189 180.538 247.778 180.859 247.778 180.859L247.018 180.976L246.17 180.742L245.409 180.829C245.409 180.829 245.058 181.121 244.911 181.121C244.764 181.121 243.331 181.151 243.214 181.092C243.097 181.034 242.483 180.975 242.394 180.975C242.305 180.975 240.931 181.209 240.931 181.209L239.789 181.179L239.087 181.647L238.15 181.881L237.536 182.466C237.536 182.466 237.332 183.255 237.332 183.372C237.332 183.489 237.157 183.81 237.157 183.81C237.157 183.81 236.426 183.956 236.337 184.014C236.249 184.072 235.898 184.423 235.898 184.423L235.606 185.125V185.884L236.045 186.323C236.045 186.323 236.309 186.791 236.366 186.995C236.424 187.199 236.22 187.814 236.22 187.814L235.517 188.573L235.488 189.186L234.961 189.42L234.347 189.859L233.791 190.852L233.178 191.524H232.124L231.276 191.641L230.954 191.963L230.223 191.641L229.814 191.261L229.345 190.852L223.933 190.999L222.879 191.379L222.353 191.7L222.148 192.168L221.622 192.373L220.597 192.315L219.632 192.753L218.93 193.221C218.93 193.221 218.754 193.425 218.637 193.513C218.52 193.6 218.139 193.804 218.139 193.804C218.139 193.804 217.262 193.951 217.174 193.951C217.087 193.951 216.12 193.893 216.12 193.893C216.12 193.893 215.652 193.835 215.477 193.893C215.302 193.951 214.891 194.097 214.774 194.157C214.657 194.214 213.984 194.42 213.984 194.42L212.96 194.858H212.433H212.437Z"/>
</mask>
<path d="M212.437 194.858L211.881 193.426L210.887 191.936L210.214 190.912L209.892 189.832L209.745 189.042L209.541 188.662C209.541 188.662 208.897 188.545 208.721 188.545C208.545 188.545 208.282 188.281 208.282 188.281L208.252 187.843L208.721 186.85L204.244 178.2L199.709 169.052L201.018 168.563L210.184 165.428L233.767 157.742L237.454 146.344L240.994 135.005L235.201 125.8L236.634 121.532L237.863 117.441L239.209 113.642L239.931 111.577L240.244 111.168L240.906 110.719L241.492 110.505L241.98 110.426L242.038 109.958L241.492 109.744L241.083 109.665L240.537 109.627C240.537 109.627 240.069 109.199 240.069 109.082C240.069 108.965 239.99 107.797 239.99 107.718C239.99 107.64 240.263 106.646 240.263 106.646L240.751 105.691L241.296 105.166L241.628 104.834L241.784 104.132L242.038 103.47L242.33 102.964L242.875 102.477L243.382 102.691L243.557 103.062V103.374L245.078 102.342L245.605 101.563L246.327 100.765L246.755 100.297L246.914 100.697L247.605 101.72V102.158L247.78 102.421L248.101 102.772L248.365 103.211V103.649L249.038 104.934L249.858 106.103L250.795 106.95L251.614 108.147L252.522 109.054L253.078 110.106C253.078 110.106 253.634 110.749 253.663 110.836C253.693 110.924 254.161 111.128 254.161 111.128L254.864 111.479L255.332 112.005L255.976 112.502L257.058 113.028L259.194 113.934C259.194 113.934 260.774 114.606 260.862 114.693C260.949 114.781 261.652 115.074 261.739 115.074C261.827 115.074 262.353 114.84 262.353 114.84L262.763 115.132L263.67 115.366L264.547 115.453L265.455 115.483L266.157 115.6L266.918 115.95C266.918 115.95 267.269 116.242 267.357 116.331C267.444 116.418 268.059 116.652 268.264 116.682C268.468 116.711 269.376 116.769 269.376 116.769L270.136 116.799L271.161 117.558L271.863 117.85L273.005 118.669L273.765 119.311C273.765 119.311 274.087 119.633 274.174 119.779C274.262 119.926 274.818 120.685 274.818 120.685L275.257 121.358L275.988 122.381L276.895 123.872L277.743 124.631L278.152 125.537L278.972 126.473L279.849 127.467L280.552 128.168C280.552 128.168 281.078 128.432 281.166 128.49C281.253 128.548 282.044 128.694 282.044 128.694L282.774 128.781L283.155 129.337V129.073L283.799 129.103C283.799 129.103 284.15 129.571 284.238 129.688C284.325 129.805 284.619 130.33 284.619 130.33L284.267 130.798V131.441L284.297 132.143L283.828 132.844L283.302 133.225L282.804 133.867L282.657 135.153L282.219 135.971L281.311 137.228L280.726 138.456L280.023 139.8L279.525 140.794L279.086 141.379L278.355 142.109L276.219 143.717L275.399 144.506L274.522 145.324L273.849 145.909L273.557 146.756L273.235 147.692L272.796 148.335C272.796 148.335 272.065 148.392 272.006 148.481C271.948 148.569 271.772 149.066 271.772 149.211C271.772 149.356 272.503 149.649 272.503 149.649L271.889 150L271.216 150.439L270.807 151.198C270.807 151.198 270.602 152.221 270.632 152.309C270.661 152.396 270.69 153.127 270.719 153.215C270.749 153.302 270.661 153.653 270.572 153.683C270.484 153.712 269.842 153.683 269.842 153.683L269.286 154.121L268.583 154.151L267.94 154.208L267.53 154.062L267.179 153.624L267.004 153.243L266.974 152.746L267.121 152.658L267.238 152.337L267.151 151.899C267.151 151.899 267.063 151.577 266.946 151.49C266.829 151.403 266.273 151.227 266.273 151.227L265.747 151.548C265.747 151.548 265.513 152.103 265.513 152.19C265.513 152.278 265.57 152.98 265.57 152.98L265.072 153.331L264.574 153.856L264.516 154.295L264.224 154.586L263.405 154.995L263.113 155.375L262.908 155.814C262.908 155.814 262.938 156.399 263.025 156.515C263.113 156.632 263.172 157.041 263.172 157.041L262.791 157.626L262.82 158.269L262.586 158.62L262.411 159.233L262.353 159.788L261.972 160.168L261.504 160.753L261.416 161.162L261.563 161.6L261.738 161.921V162.36L261.591 162.711L261.709 163.208L262.03 163.763L262.235 164.552L262.118 165.165L262.147 165.867L262.235 166.539L262.644 167.212C262.644 167.212 262.936 167.299 262.966 167.416C262.995 167.533 263.2 168.322 263.2 168.322C263.2 168.322 263.083 168.82 263.053 168.907C263.024 168.994 262.732 169.404 262.732 169.404L260.83 169.775H258.518L256.353 170.194L254.949 170.251L253.368 170.807L252.257 171.713L251.291 172.56L250.823 173.379L250.706 174.138L250.618 175.395C250.618 175.395 250.531 176.067 250.501 176.155C250.472 176.242 250.472 176.768 250.472 176.768L250.003 177.47L249.974 178.083C249.974 178.083 249.682 178.58 249.652 178.667C249.622 178.755 248.891 179.31 248.891 179.31L248.511 179.748C248.511 179.748 248.306 180.304 248.247 180.421C248.189 180.538 247.778 180.859 247.778 180.859L247.018 180.976L246.17 180.742L245.409 180.829C245.409 180.829 245.058 181.121 244.911 181.121C244.764 181.121 243.331 181.151 243.214 181.092C243.097 181.034 242.483 180.975 242.394 180.975C242.305 180.975 240.931 181.209 240.931 181.209L239.789 181.179L239.087 181.647L238.15 181.881L237.536 182.466C237.536 182.466 237.332 183.255 237.332 183.372C237.332 183.489 237.157 183.81 237.157 183.81C237.157 183.81 236.426 183.956 236.337 184.014C236.249 184.072 235.898 184.423 235.898 184.423L235.606 185.125V185.884L236.045 186.323C236.045 186.323 236.309 186.791 236.366 186.995C236.424 187.199 236.22 187.814 236.22 187.814L235.517 188.573L235.488 189.186L234.961 189.42L234.347 189.859L233.791 190.852L233.178 191.524H232.124L231.276 191.641L230.954 191.963L230.223 191.641L229.814 191.261L229.345 190.852L223.933 190.999L222.879 191.379L222.353 191.7L222.148 192.168L221.622 192.373L220.597 192.315L219.632 192.753L218.93 193.221C218.93 193.221 218.754 193.425 218.637 193.513C218.52 193.6 218.139 193.804 218.139 193.804C218.139 193.804 217.262 193.951 217.174 193.951C217.087 193.951 216.12 193.893 216.12 193.893C216.12 193.893 215.652 193.835 215.477 193.893C215.302 193.951 214.891 194.097 214.774 194.157C214.657 194.214 213.984 194.42 213.984 194.42L212.96 194.858H212.433H212.437Z" fill="url(#paint5_linear_1178_502)"/>
<path d="M212.437 194.858L211.881 193.426L210.887 191.936L210.214 190.912L209.892 189.832L209.745 189.042L209.541 188.662C209.541 188.662 208.897 188.545 208.721 188.545C208.545 188.545 208.282 188.281 208.282 188.281L208.252 187.843L208.721 186.85L204.244 178.2L199.709 169.052L201.018 168.563L210.184 165.428L233.767 157.742L237.454 146.344L240.994 135.005L235.201 125.8L236.634 121.532L237.863 117.441L239.209 113.642L239.931 111.577L240.244 111.168L240.906 110.719L241.492 110.505L241.98 110.426L242.038 109.958L241.492 109.744L241.083 109.665L240.537 109.627C240.537 109.627 240.069 109.199 240.069 109.082C240.069 108.965 239.99 107.797 239.99 107.718C239.99 107.64 240.263 106.646 240.263 106.646L240.751 105.691L241.296 105.166L241.628 104.834L241.784 104.132L242.038 103.47L242.33 102.964L242.875 102.477L243.382 102.691L243.557 103.062V103.374L245.078 102.342L245.605 101.563L246.327 100.765L246.755 100.297L246.914 100.697L247.605 101.72V102.158L247.78 102.421L248.101 102.772L248.365 103.211V103.649L249.038 104.934L249.858 106.103L250.795 106.95L251.614 108.147L252.522 109.054L253.078 110.106C253.078 110.106 253.634 110.749 253.663 110.836C253.693 110.924 254.161 111.128 254.161 111.128L254.864 111.479L255.332 112.005L255.976 112.502L257.058 113.028L259.194 113.934C259.194 113.934 260.774 114.606 260.862 114.693C260.949 114.781 261.652 115.074 261.739 115.074C261.827 115.074 262.353 114.84 262.353 114.84L262.763 115.132L263.67 115.366L264.547 115.453L265.455 115.483L266.157 115.6L266.918 115.95C266.918 115.95 267.269 116.242 267.357 116.331C267.444 116.418 268.059 116.652 268.264 116.682C268.468 116.711 269.376 116.769 269.376 116.769L270.136 116.799L271.161 117.558L271.863 117.85L273.005 118.669L273.765 119.311C273.765 119.311 274.087 119.633 274.174 119.779C274.262 119.926 274.818 120.685 274.818 120.685L275.257 121.358L275.988 122.381L276.895 123.872L277.743 124.631L278.152 125.537L278.972 126.473L279.849 127.467L280.552 128.168C280.552 128.168 281.078 128.432 281.166 128.49C281.253 128.548 282.044 128.694 282.044 128.694L282.774 128.781L283.155 129.337V129.073L283.799 129.103C283.799 129.103 284.15 129.571 284.238 129.688C284.325 129.805 284.619 130.33 284.619 130.33L284.267 130.798V131.441L284.297 132.143L283.828 132.844L283.302 133.225L282.804 133.867L282.657 135.153L282.219 135.971L281.311 137.228L280.726 138.456L280.023 139.8L279.525 140.794L279.086 141.379L278.355 142.109L276.219 143.717L275.399 144.506L274.522 145.324L273.849 145.909L273.557 146.756L273.235 147.692L272.796 148.335C272.796 148.335 272.065 148.392 272.006 148.481C271.948 148.569 271.772 149.066 271.772 149.211C271.772 149.356 272.503 149.649 272.503 149.649L271.889 150L271.216 150.439L270.807 151.198C270.807 151.198 270.602 152.221 270.632 152.309C270.661 152.396 270.69 153.127 270.719 153.215C270.749 153.302 270.661 153.653 270.572 153.683C270.484 153.712 269.842 153.683 269.842 153.683L269.286 154.121L268.583 154.151L267.94 154.208L267.53 154.062L267.179 153.624L267.004 153.243L266.974 152.746L267.121 152.658L267.238 152.337L267.151 151.899C267.151 151.899 267.063 151.577 266.946 151.49C266.829 151.403 266.273 151.227 266.273 151.227L265.747 151.548C265.747 151.548 265.513 152.103 265.513 152.19C265.513 152.278 265.57 152.98 265.57 152.98L265.072 153.331L264.574 153.856L264.516 154.295L264.224 154.586L263.405 154.995L263.113 155.375L262.908 155.814C262.908 155.814 262.938 156.399 263.025 156.515C263.113 156.632 263.172 157.041 263.172 157.041L262.791 157.626L262.82 158.269L262.586 158.62L262.411 159.233L262.353 159.788L261.972 160.168L261.504 160.753L261.416 161.162L261.563 161.6L261.738 161.921V162.36L261.591 162.711L261.709 163.208L262.03 163.763L262.235 164.552L262.118 165.165L262.147 165.867L262.235 166.539L262.644 167.212C262.644 167.212 262.936 167.299 262.966 167.416C262.995 167.533 263.2 168.322 263.2 168.322C263.2 168.322 263.083 168.82 263.053 168.907C263.024 168.994 262.732 169.404 262.732 169.404L260.83 169.775H258.518L256.353 170.194L254.949 170.251L253.368 170.807L252.257 171.713L251.291 172.56L250.823 173.379L250.706 174.138L250.618 175.395C250.618 175.395 250.531 176.067 250.501 176.155C250.472 176.242 250.472 176.768 250.472 176.768L250.003 177.47L249.974 178.083C249.974 178.083 249.682 178.58 249.652 178.667C249.622 178.755 248.891 179.31 248.891 179.31L248.511 179.748C248.511 179.748 248.306 180.304 248.247 180.421C248.189 180.538 247.778 180.859 247.778 180.859L247.018 180.976L246.17 180.742L245.409 180.829C245.409 180.829 245.058 181.121 244.911 181.121C244.764 181.121 243.331 181.151 243.214 181.092C243.097 181.034 242.483 180.975 242.394 180.975C242.305 180.975 240.931 181.209 240.931 181.209L239.789 181.179L239.087 181.647L238.15 181.881L237.536 182.466C237.536 182.466 237.332 183.255 237.332 183.372C237.332 183.489 237.157 183.81 237.157 183.81C237.157 183.81 236.426 183.956 236.337 184.014C236.249 184.072 235.898 184.423 235.898 184.423L235.606 185.125V185.884L236.045 186.323C236.045 186.323 236.309 186.791 236.366 186.995C236.424 187.199 236.22 187.814 236.22 187.814L235.517 188.573L235.488 189.186L234.961 189.42L234.347 189.859L233.791 190.852L233.178 191.524H232.124L231.276 191.641L230.954 191.963L230.223 191.641L229.814 191.261L229.345 190.852L223.933 190.999L222.879 191.379L222.353 191.7L222.148 192.168L221.622 192.373L220.597 192.315L219.632 192.753L218.93 193.221C218.93 193.221 218.754 193.425 218.637 193.513C218.52 193.6 218.139 193.804 218.139 193.804C218.139 193.804 217.262 193.951 217.174 193.951C217.087 193.951 216.12 193.893 216.12 193.893C216.12 193.893 215.652 193.835 215.477 193.893C215.302 193.951 214.891 194.097 214.774 194.157C214.657 194.214 213.984 194.42 213.984 194.42L212.96 194.858H212.433H212.437Z" stroke="white" stroke-width="4" stroke-miterlimit="10" mask="url(#path-6-outside-4_1178_502)"/>
<path d="M274.968 151.636C275.839 151.145 275.839 151.145 275.839 151.145L275.839 151.145L275.839 151.144L275.838 151.143L275.837 151.141L275.833 151.134L275.821 151.113C275.811 151.096 275.797 151.073 275.781 151.045C275.748 150.991 275.7 150.915 275.645 150.835C275.594 150.761 275.517 150.655 275.425 150.557C275.417 150.548 275.408 150.539 275.398 150.529L275.47 150.242L276.191 147.366L273.875 149.218L273.436 149.569L273.152 149.796L273.08 150.154L272.994 150.585C272.973 150.599 272.951 150.614 272.93 150.629C272.873 150.668 272.716 150.779 272.591 150.943C272.496 151.068 272.354 151.319 272.28 151.449C272.233 151.533 272.188 151.613 272.156 151.671L272.117 151.741L272.106 151.761L272.103 151.767L272.102 151.768L272.102 151.769L272.102 151.769L272.102 151.769L272.979 152.249L272.102 151.769L271.948 152.05L271.986 152.368L272.028 152.716L271.804 152.785L271.647 152.834L271.513 152.931L272.101 153.74C271.513 152.931 271.513 152.932 271.513 152.932L271.513 152.932L271.512 152.932L271.512 152.932L271.509 152.934L271.502 152.939L271.478 152.957C271.458 152.972 271.429 152.994 271.396 153.019C271.33 153.069 271.239 153.14 271.147 153.217C271.062 153.287 270.947 153.387 270.85 153.491C270.807 153.537 270.725 153.629 270.655 153.752C270.621 153.811 270.56 153.931 270.53 154.092C270.51 154.197 270.499 154.351 270.54 154.522C270.541 154.586 270.54 154.674 270.536 154.775C270.532 154.88 270.527 154.984 270.522 155.063C270.52 155.102 270.518 155.134 270.516 155.156L270.515 155.182L270.514 155.188L270.514 155.189L270.514 155.189L270.514 155.189L270.514 155.189L270.514 155.189L270.512 155.227L270.512 155.265L270.513 155.508L268.85 156.961H271.514H271.516H272.521L272.518 156.412L273.091 155.912L273.706 155.425C273.721 155.417 273.737 155.408 273.755 155.398C273.831 155.357 273.933 155.3 274.039 155.239C274.142 155.18 274.259 155.112 274.358 155.048C274.407 155.017 274.464 154.979 274.518 154.939C274.544 154.92 274.581 154.891 274.62 154.856C274.647 154.833 274.73 154.758 274.805 154.645L274.805 154.645L274.807 154.642C274.89 154.517 274.927 154.399 274.937 154.368L274.938 154.366C274.954 154.316 274.965 154.27 274.972 154.237C274.987 154.171 274.999 154.1 275.009 154.038C275.029 153.912 275.047 153.764 275.062 153.629C275.064 153.616 275.065 153.602 275.067 153.589C275.159 153.53 275.247 153.475 275.317 153.433C275.346 153.415 275.367 153.402 275.383 153.394C275.667 153.265 275.807 153.044 275.858 152.952C275.924 152.833 275.953 152.725 275.966 152.671C275.993 152.556 276.001 152.45 276.004 152.39C276.011 152.256 276.006 152.11 276 151.997C275.993 151.876 275.984 151.76 275.977 151.676C275.973 151.634 275.969 151.598 275.967 151.573L275.964 151.543L275.963 151.534L275.963 151.531L275.963 151.531L275.963 151.53L275.963 151.53C275.963 151.53 275.963 151.53 274.968 151.636ZM274.968 151.636L275.839 151.145L275.941 151.325L275.963 151.53L274.968 151.636Z" fill="url(#paint6_linear_1178_502)" stroke="white" stroke-width="2" stroke-miterlimit="10"/>
<path d="M154.147 38.36L152.537 38.5092L150.81 38.4338L150.535 38.4218L150.292 38.5523L148.771 39.371L148.642 39.4405L148.539 39.544L147.68 40.4013L147.553 40.5279L147.478 40.6907L146.582 42.6392L146.55 42.7067L146.53 42.7781L146.187 43.958L145.609 45.5806L144.351 47.5902L142.029 50.8333L141.14 52.075L142.633 52.3936L144.116 52.7098L144.158 52.7189L144.202 52.7242L146.918 53.0597L146.948 53.0634L146.979 53.0653L148.369 53.1519L149.634 53.2642L151.083 53.509L151.826 54.0655L151.834 54.0716L151.842 54.0776L152.611 54.6294L152.713 54.7994V55.4578V55.5091L152.718 55.5598L152.718 55.5599L152.718 55.5599L152.718 55.56L152.718 55.56L152.719 55.5615L152.719 55.5692L152.722 55.6014C152.725 55.6299 152.729 55.6713 152.733 55.7216C152.742 55.823 152.752 55.9558 152.758 56.0882C152.763 56.1892 152.766 56.2767 152.765 56.3443C152.707 56.4962 152.694 56.6325 152.691 56.7091C152.686 56.8795 152.72 57.0218 152.741 57.0973C152.785 57.2589 152.855 57.4109 152.903 57.5089C152.957 57.6179 153.012 57.7181 153.052 57.7879C153.073 57.8237 153.091 57.8536 153.103 57.8752L153.119 57.9014L153.124 57.9095L153.126 57.9122L153.127 57.9132L153.127 57.9136L153.127 57.9138C153.127 57.9139 153.127 57.914 153.977 57.3871L153.127 57.914L153.168 57.9797L153.218 58.0383L153.921 58.857L154.046 59.0034L154.217 59.0925L154.89 59.4434L155.108 59.5567H155.353H156.914L158.388 59.6986L158.436 59.7032H158.484H162.228H163.109L163.22 58.8293L163.401 57.4116L163.405 57.3778L163.407 57.3437L163.465 56.3502L163.504 55.6749L162.892 55.3871L162.262 55.0908L162.147 54.7905L161.872 53.2509L161.807 52.8888L161.523 52.655L160.692 51.971L160.529 51.6458L160.483 50.77V50.0943V50.0531L160.48 50.0121L159.483 50.0943C160.48 50.0121 160.48 50.012 160.48 50.0119L160.48 50.0116L160.48 50.011L160.48 50.0097L160.48 50.0063L160.479 49.9964L160.476 49.9652C160.473 49.9396 160.469 49.9046 160.464 49.8627C160.454 49.7806 160.438 49.6649 160.415 49.5402C160.392 49.4216 160.356 49.2631 160.299 49.1079C160.27 49.0301 160.228 48.929 160.165 48.8252C160.107 48.73 159.995 48.57 159.802 48.4423C159.617 48.3196 159.249 48.1548 158.977 48.0434C158.821 47.9796 158.652 47.915 158.497 47.8646C158.391 47.8303 158.143 47.7499 157.903 47.7499C157.749 47.7499 157.53 47.7837 157.392 47.8056C157.216 47.8334 157.01 47.8697 156.817 47.905C156.775 47.9127 156.733 47.9203 156.692 47.9279L156.829 47.8823L156.98 47.7503L157.449 47.3415L157.474 47.3194L157.498 47.2956L158.084 46.7108L158.123 46.6716L158.157 46.6284L158.256 46.5047L158.672 46.8445L159.088 47.3112L160.605 49.0137L160.83 46.7444L160.85 46.5375L161.001 46.445L161.761 45.9771L161.828 45.936L161.888 45.885L162.708 45.1833L162.97 44.9586L163.038 44.62L163.155 44.0352L163.181 43.9029L163.172 43.7683L163.114 42.9495L163.094 42.6631L162.924 42.4311L162.456 41.7884L162.443 41.7699L162.428 41.752L161.726 40.8754L161.588 40.7042L161.392 40.6062L160.924 40.3723L160.74 40.2805L160.535 40.2686L159.54 40.2108L159.29 40.1963L159.063 40.3011L158.59 40.5194L158.338 40.0052L157.718 38.7422L157.301 39.1636L157.088 39.0244L156.937 38.9261L156.761 38.8866L155.552 38.6141L155.552 38.614L155.541 38.6118L154.449 38.3779L154.299 38.3459L154.147 38.36Z" fill="url(#paint7_linear_1178_502)" stroke="white" stroke-width="2" stroke-miterlimit="10"/>
</g>
<defs>
<filter id="filter0_d_1178_502" x="-1.98828" y="0.666016" width="302.986" height="258.587" filterUnits="userSpaceOnUse" color-interpolation-filters="sRGB">
<feFlood flood-opacity="0" result="BackgroundImageFix"/>
<feColorMatrix in="SourceAlpha" type="matrix" values="0 0 0 0 0 0 0 0 0 0 0 0 0 0 0 0 0 0 127 0" result="hardAlpha"/>
<feOffset dy="4"/>
<feGaussianBlur stdDeviation="7"/>
<feComposite in2="hardAlpha" operator="out"/>
<feColorMatrix type="matrix" values="0 0 0 0 0 0 0 0 0 0 0 0 0 0 0 0 0 0 0.25 0"/>
<feBlend mode="normal" in2="BackgroundImageFix" result="effect1_dropShadow_1178_502"/>
<feBlend mode="normal" in="SourceGraphic" in2="effect1_dropShadow_1178_502" result="shape"/>
</filter>
<linearGradient id="paint0_linear_1178_502" x1="15" y1="13" x2="241.342" y2="13.4202" gradientUnits="userSpaceOnUse">
<stop stop-color="#EE981D"/>
<stop offset="1" stop-color="#BB681E"/>
</linearGradient>
<linearGradient id="paint1_linear_1178_502" x1="187.711" y1="87.1316" x2="196.818" y2="87.1381" gradientUnits="userSpaceOnUse">
<stop stop-color="#FF3D31"/>
<stop offset="1" stop-color="#C51A0F"/>
</linearGradient>
<linearGradient id="paint2_linear_1178_502" x1="183.654" y1="87.1001" x2="186.116" y2="87.1024" gradientUnits="userSpaceOnUse">
<stop stop-color="#A86FF0"/>
<stop offset="1" stop-color="#5D25A0"/>
</linearGradient>
<linearGradient id="paint3_linear_1178_502" x1="196.164" y1="87.5747" x2="246.834" y2="87.6768" gradientUnits="userSpaceOnUse">
<stop stop-color="#09BBC6"/>
<stop offset="1" stop-color="#00929B"/>
</linearGradient>
<linearGradient id="paint4_linear_1178_502" x1="100.547" y1="169.057" x2="212.608" y2="169.329" gradientUnits="userSpaceOnUse">
<stop stop-color="#7F9CA7"/>
<stop offset="1" stop-color="#9AB7C1"/>
</linearGradient>
<linearGradient id="paint5_linear_1178_502" x1="199.709" y1="100.297" x2="284.748" y2="100.413" gradientUnits="userSpaceOnUse">
<stop stop-color="#FF5FD2"/>
<stop offset="1" stop-color="#9A0070"/>
</linearGradient>
<linearGradient id="paint6_linear_1178_502" x1="271.512" y1="149.999" x2="275.012" y2="150.002" gradientUnits="userSpaceOnUse">
<stop stop-color="#7F9CA7"/>
<stop offset="1" stop-color="#9AB7C1"/>
</linearGradient>
<linearGradient id="paint7_linear_1178_502" x1="142.842" y1="39.3557" x2="162.496" y2="39.3861" gradientUnits="userSpaceOnUse">
<stop stop-color="#8AB62D"/>
<stop offset="1" stop-color="#668D12"/>
</linearGradient>
</defs>
</svg>
