<svg width="19" height="16" viewBox="0 0 19 16" fill="none" xmlns="http://www.w3.org/2000/svg">
<path d="M1.58887 9.14638L16.5508 9.14638L10.8216 14.6033C10.5216 14.8891 10.51 15.3638 10.7958 15.6638C11.0811 15.9634 11.5559 15.9754 11.8562 15.6897L18.3992 9.45726C18.6823 9.17376 18.8387 8.79726 18.8387 8.39639C18.8387 7.9959 18.6823 7.61903 18.386 7.32316L11.8559 1.10348C11.7107 0.965107 11.5247 0.896485 11.3387 0.896485C11.1407 0.896485 10.9428 0.974483 10.7954 1.12936C10.5096 1.42935 10.5213 1.90372 10.8213 2.18947L16.5744 7.6464L1.58887 7.6464C1.17487 7.6464 0.838876 7.9824 0.838875 8.39639C0.838875 8.81039 1.17487 9.14638 1.58887 9.14638Z" fill="url(#paint0_linear_0_60)"/>
<path d="M1.58887 9.14638L16.5508 9.14638L10.8216 14.6033C10.5216 14.8891 10.51 15.3638 10.7958 15.6638C11.0811 15.9634 11.5559 15.9754 11.8562 15.6897L18.3992 9.45726C18.6823 9.17376 18.8387 8.79726 18.8387 8.39639C18.8387 7.9959 18.6823 7.61903 18.386 7.32316L11.8559 1.10348C11.7107 0.965107 11.5247 0.896485 11.3387 0.896485C11.1407 0.896485 10.9428 0.974483 10.7954 1.12936C10.5096 1.42935 10.5213 1.90372 10.8213 2.18947L16.5744 7.6464L1.58887 7.6464C1.17487 7.6464 0.838876 7.9824 0.838875 8.39639C0.838875 8.81039 1.17487 9.14638 1.58887 9.14638Z" stroke="url(#paint1_linear_0_60)"/>
<defs>
<linearGradient id="paint0_linear_0_60" x1="18.8387" y1="15.8965" x2="0.811528" y2="15.8635" gradientUnits="userSpaceOnUse">
<stop stop-color="#201453"/>
<stop offset="1" stop-color="#20068F"/>
</linearGradient>
<linearGradient id="paint1_linear_0_60" x1="18.8387" y1="15.8965" x2="0.811528" y2="15.8635" gradientUnits="userSpaceOnUse">
<stop stop-color="#201453"/>
<stop offset="1" stop-color="#20068F"/>
</linearGradient>
</defs>
</svg>
